<?xml version="1.0" encoding="UTF-8" standalone="no"?>
<!-- Created with Inkscape (http://www.inkscape.org/) -->

<svg
   width="200"
   height="200"
   viewBox="0 0 52.916665 52.916666"
   version="1.1"
   id="svg1"
   inkscape:export-filename="databricks.svg"
   inkscape:export-xdpi="96"
   inkscape:export-ydpi="96"
   xmlns:inkscape="http://www.inkscape.org/namespaces/inkscape"
   xmlns:sodipodi="http://sodipodi.sourceforge.net/DTD/sodipodi-0.dtd"
   xmlns="http://www.w3.org/2000/svg"
   xmlns:svg="http://www.w3.org/2000/svg">
  <sodipodi:namedview
     id="namedview1"
     pagecolor="#ffffff"
     bordercolor="#cccccc"
     borderopacity="1"
     inkscape:showpageshadow="0"
     inkscape:pageopacity="1"
     inkscape:pagecheckerboard="0"
     inkscape:deskcolor="#d1d1d1"
     inkscape:document-units="mm"
     inkscape:zoom="3.76"
     inkscape:cx="99.867021"
     inkscape:cy="100"
     inkscape:window-width="1712"
     inkscape:window-height="971"
     inkscape:window-x="0"
     inkscape:window-y="39"
     inkscape:window-maximized="1"
     inkscape:current-layer="layer1">
    <inkscape:page
       x="0"
       y="0"
       width="52.916664"
       height="52.916664"
       id="page2"
       margin="0"
       bleed="0" />
  </sodipodi:namedview>
  <defs
     id="defs1" />
  <g
     inkscape:label="Layer 1"
     inkscape:groupmode="layer"
     id="layer1">
    <path
      
       d="M 23.050913,43.899956 C 22.909467,43.886611 22.380434,43.840704 21.875286,43.797793 18.536692,43.514457 14.850853,42.630066 11.917113,41.408404 7.8119731,39.698935 4.5508239,37.439763 1.9950259,34.534876 1.0256272,33.433061 0.82803902,33.171801 0.52629962,32.592908 c -0.322065,-0.617885 -0.3476421,-1.095315 -0.072536,-1.353774 0.3831143,-0.359923 1.03358568,-0.08687 2.42254228,1.016866 0.2877155,0.228642 0.9686984,0.715948 1.5133011,1.082891 4.8676759,3.27981 10.551625,5.113472 18.110217,5.842439 1.308863,0.126239 6.283709,0.128599 7.751781,0.004 4.215682,-0.35868 8.59544,-1.298987 11.939952,-2.563414 0.48494,-0.183333 1.533296,-0.64528 2.329686,-1.026538 0.796377,-0.381265 1.56001,-0.711389 1.696952,-0.73361 0.284796,-0.04624 0.66614,0.118426 0.783892,0.33844 0.105281,0.196723 0.09439,0.551783 -0.02576,0.839307 -0.364308,0.871919 -2.957409,2.896525 -5.315691,4.150316 -3.786166,2.012926 -8.731854,3.369045 -13.422675,3.680555 -1.054499,0.06998 -4.546951,0.09017 -5.187066,0.02986 z m 24.469572,-3.550761 c -0.350429,-0.350416 -0.277985,-0.733663 0.333717,-1.765301 0.793346,-1.338006 1.393971,-2.690176 1.687982,-3.80007 0.146592,-0.553349 0.15911,-1.228809 0.02576,-1.390311 -0.191829,-0.232347 -0.691685,-0.386239 -1.525192,-0.469575 -0.973058,-0.09728 -1.99344,-0.02524 -3.756149,0.265375 -1.222468,0.201518 -1.548735,0.190487 -1.819533,-0.0615 -0.214169,-0.199259 -0.222082,-0.624035 -0.01651,-0.885401 0.178016,-0.226309 0.964544,-0.75574 1.582713,-1.065366 0.717335,-0.359288 1.858131,-0.725584 2.653714,-0.852069 2.445154,-0.388743 5.236166,0.20716 5.77234,1.232443 0.125045,0.23911 0.164824,0.466603 0.187911,1.074804 0.06394,1.684361 -0.507499,3.581807 -1.548972,5.143363 -0.463485,0.694967 -1.943798,2.18024 -2.477547,2.485857 -0.47858,0.274042 -0.881802,0.306172 -1.100277,0.0877 z M 7.1432239,25.326992 C 5.7130415,24.998718 4.7645893,24.27137 4.1657146,23.043592 3.7966768,22.287033 3.6527728,21.587799 3.6543449,20.558956 c 0.00462,-2.73849 1.658031,-4.593178 4.7379873,-5.313385 0.4771722,-0.111576 0.882323,-0.137451 2.1525698,-0.137451 h 1.564765 l -0.04604,-0.587809 C 11.971854,13.348884 11.690341,12.66119 11.154802,12.300297 10.416805,11.802952 9.2420633,11.896434 8.5475455,12.507774 8.1684143,12.841498 8.036843,13.056016 7.8098927,13.710451 7.5902813,14.343721 7.560688,14.348405 5.8144121,14.026115 4.2804089,13.74301 4.0939446,13.664654 4.0939446,13.303101 c 0,-0.61996 0.5788861,-1.796393 1.2300246,-2.499697 0.7185888,-0.776157 1.5858445,-1.2748113 2.8111923,-1.6163693 0.562788,-0.15687 0.7698817,-0.173926 2.0940825,-0.172427 1.288564,0.002 1.541396,0.02167 2.053082,0.16423 1.18903,0.331253 2.116529,0.9440463 2.77218,1.8315743 0.3738,0.505986 0.614615,1.048713 0.856448,1.930144 l 0.191498,0.698032 0.02464,5.562036 c 0.02451,5.527335 0.02365,5.562986 -0.126122,5.712809 -0.141955,0.141955 -0.236396,0.150767 -1.614968,0.150767 -1.771932,0 -1.644113,0.08615 -1.947629,-1.313203 -0.201446,-0.928741 -0.286058,-1.111328 -0.387428,-0.835984 -0.02603,0.07071 -0.175843,0.33379 -0.332905,0.584606 -0.513721,0.820369 -1.351436,1.449887 -2.3068841,1.73352 -0.562504,0.166985 -1.7374706,0.215602 -2.2679305,0.09385 z M 10.60605,22.13982 c 0.93178,-0.477661 1.372357,-1.587046 1.469367,-3.699864 l 0.04941,-1.076753 -0.493812,-0.05291 C 9.883676,17.123174 8.372198,17.905144 7.9789835,19.1997 c -0.2176495,0.716587 -0.173352,1.624732 0.1057961,2.168673 0.2096302,0.408454 0.5609979,0.735374 0.9496213,0.883533 0.3567844,0.136017 1.2057221,0.07546 1.5716161,-0.112118 z m 32.467228,3.221496 c -1.219383,-0.141097 -2.45596,-0.624657 -3.287472,-1.285572 -1.019291,-0.810163 -1.799762,-2.256582 -1.935588,-3.587131 -0.0677,-0.663016 -0.04511,-0.676253 1.745213,-1.023559 1.472101,-0.285562 1.485293,-0.286731 1.670912,-0.148145 0.132609,0.09901 0.210568,0.255454 0.267641,0.537126 0.301079,1.485887 0.971255,2.207032 2.153111,2.316878 0.768805,0.07145 1.404341,-0.112943 1.819242,-0.527837 0.614431,-0.614432 0.622972,-1.472823 0.02107,-2.125738 -0.365497,-0.396517 -0.744979,-0.559129 -1.981404,-0.849057 -1.675919,-0.392996 -2.28237,-0.587487 -3.04447,-0.976375 -1.616449,-0.824834 -2.387995,-2.078903 -2.387995,-3.881445 0,-0.922532 0.0928,-1.353319 0.454885,-2.111595 0.56111,-1.175059 1.776628,-2.1038603 3.292426,-2.5158083 0.692431,-0.188175 2.434955,-0.265646 3.223233,-0.143289 1.843108,0.286071 3.256321,1.2784503 4.009397,2.8154603 0.591781,1.207822 0.626553,1.683244 0.132655,1.814241 -0.723299,0.191841 -2.998297,0.524825 -3.141117,0.459753 -0.09677,-0.04412 -0.198401,-0.222499 -0.284823,-0.500028 -0.265606,-0.852895 -0.755799,-1.280584 -1.634792,-1.426338 -0.454846,-0.07547 -0.656886,-0.05502 -1.217349,0.123097 -0.934818,0.297028 -1.203773,1.472828 -0.487774,2.132448 0.334094,0.30777 0.806041,0.481149 2.464217,0.905271 1.829072,0.467832 2.379969,0.671438 3.116017,1.151609 1.10027,0.717776 1.656498,1.658249 1.831363,3.096497 0.224955,1.850117 -0.555984,3.593209 -2.096164,4.678748 -0.5456,0.384547 -1.528031,0.807375 -2.208519,0.950526 -0.662236,0.1393 -1.839013,0.196049 -2.493983,0.120263 z M 20.975062,24.972349 c -0.145899,-0.11161 -0.0434,0.297095 -2.073546,-8.267188 C 17.1285,9.2256847 17.176154,9.4925657 17.586153,9.3366917 c 0.101205,-0.03844 0.938676,-0.06997 1.861049,-0.06997 1.515197,0 1.693054,0.01295 1.84297,0.134359 0.151837,0.122944 0.242261,0.588484 1.063773,5.4764653 0.493798,2.938167 0.91876,5.363047 0.944344,5.388625 0.02556,0.02556 0.05972,0.03276 0.07592,0.01592 0.01619,-0.01678 0.480402,-2.444321 1.031677,-5.394403 0.861316,-4.609244 1.02371,-5.3818803 1.15441,-5.4923733 0.134867,-0.114033 0.336676,-0.128585 1.783307,-0.128585 1.528592,0 1.641134,0.0092 1.788651,0.146665 0.08661,0.08066 0.176913,0.254251 0.200725,0.38575 0.755892,4.1731453 1.933784,10.4265343 1.970967,10.4637173 0.02741,0.02741 0.06183,0.03607 0.07656,0.01928 0.01473,-0.01678 0.41971,-2.42778 0.900085,-5.357669 0.775844,-4.731983 0.891503,-5.3455163 1.035394,-5.4923723 0.158879,-0.16215 0.195064,-0.16532 1.88724,-0.16532 0.948888,0 1.809149,0.03191 1.911675,0.07089 0.108544,0.04128 0.206638,0.151415 0.234804,0.263644 0.06295,0.250619 -3.45986,15.1484173 -3.625993,15.3343663 -0.10417,0.11659 -0.304394,0.128579 -2.146799,0.128579 -1.538582,0 -2.063241,-0.02292 -2.160979,-0.09437 -0.09872,-0.07217 -0.351566,-1.136547 -1.075446,-4.527062 -0.520511,-2.437973 -0.964728,-4.451011 -0.987128,-4.473417 -0.02239,-0.02239 -0.05132,-0.02695 -0.06421,-0.01018 -0.01288,0.01678 -0.44627,2.014485 -0.962991,4.439213 -0.577195,2.708436 -0.983403,4.458186 -1.05331,4.537182 -0.10322,0.116617 -0.302896,0.128587 -2.145713,0.128587 -1.512515,0 -2.062607,-0.02345 -2.151981,-0.09185 z"
       id="path18" />
  </g>
</svg>
