<?xml version="1.0" encoding="UTF-8" standalone="no"?>
<!-- Created with Inkscape (http://www.inkscape.org/) -->

<svg
   width="200"
   height="200"
   viewBox="0 0 52.916665 52.916666"
   version="1.1"
   id="svg1"
   inkscape:export-filename="github.svg"
   inkscape:export-xdpi="96"
   inkscape:export-ydpi="96"
   xmlns:inkscape="http://www.inkscape.org/namespaces/inkscape"
   xmlns:sodipodi="http://sodipodi.sourceforge.net/DTD/sodipodi-0.dtd"
   xmlns="http://www.w3.org/2000/svg"
   xmlns:svg="http://www.w3.org/2000/svg">
  <sodipodi:namedview
     id="namedview1"
     pagecolor="#ffffff"
     bordercolor="#cccccc"
     borderopacity="1"
     inkscape:showpageshadow="0"
     inkscape:pageopacity="1"
     inkscape:pagecheckerboard="0"
     inkscape:deskcolor="#d1d1d1"
     inkscape:document-units="mm"
     inkscape:zoom="3.76"
     inkscape:cx="99.867021"
     inkscape:cy="100"
     inkscape:window-width="1712"
     inkscape:window-height="971"
     inkscape:window-x="0"
     inkscape:window-y="39"
     inkscape:window-maximized="1"
     inkscape:current-layer="layer1">
    <inkscape:page
       x="0"
       y="0"
       width="52.916664"
       height="52.916664"
       id="page2"
       margin="0"
       bleed="0" />
  </sodipodi:namedview>
  <defs
     id="defs1" />
  <g
     inkscape:label="Layer 1"
     inkscape:groupmode="layer"
     id="layer1">
    <path
      
       d="m 4.6001553,52.759393 c -1.29764,-0.349467 -2.42996,-1.228748 -3.0336,-2.35567 -0.62780997,-1.172069 -0.60217997,-0.28234 -0.60217997,-20.901346 0,-20.6189951 -0.0257,-19.7292671 0.60217997,-20.9013351 0.42673,-0.796662 1.28688,-1.622183 2.07403,-1.990532 0.84365,-0.394791 1.55272,-0.528887 2.79663,-0.528887 h 0.98644 l 0.0347,2.044667 0.0347,2.0446771 0.36431,0.671918 c 1.47536,2.721172 5.3716797,2.620232 6.6810197,-0.173081 0.27049,-0.577057 0.28523,-0.6972231 0.31845,-2.5966171 l 0.0348,-1.991564 h 11.56934 11.56933 v 1.741379 c 0,2.2477761 0.16073,2.8471771 1.00925,3.7636811 0.79098,0.854351 1.60956,1.22391 2.70833,1.2227 1.11976,-0.001 1.89078,-0.316644 2.66391,-1.089782 0.92628,-0.926284 1.07802,-1.427395 1.13632,-3.7526391 l 0.0472,-1.885339 h 0.9296 c 1.24793,0 1.9271,0.140195 2.83418,0.585044 1.25229,0.614134 2.16205,1.801561 2.46506,3.217434 0.16971,0.7930011 0.1717,38.4300801 0.002,39.2365731 -0.38364,1.82402 -1.86006,3.30043 -3.68408,3.684074 -0.40367,0.08487 -6.56241,0.116413 -21.7744,0.111408 C 8.4646853,52.909856 5.0693953,52.885816 4.6000453,52.759393 Z M 45.196755,46.838877 c 0.23195,-0.131375 0.53068,-0.400536 0.66386,-0.59815 l 0.24212,-0.359299 V 33.326177 20.770927 l -0.24212,-0.359288 c -0.13318,-0.197615 -0.43191,-0.466786 -0.66386,-0.598161 l -0.42172,-0.238851 -18.25993,-0.0021 -18.2599197,-0.0021 -0.4705,0.27573 c -0.32387,0.189805 -0.53297,0.413256 -0.67086,0.716961 -0.19258,0.42411 -0.20044,0.917911 -0.20268,12.728883 -0.002,8.428977 0.0332,12.381555 0.11065,12.586666 0.14926,0.395072 0.60646,0.874621 1.00229,1.051309 0.26214,0.117006 3.5490397,0.142656 18.5347997,0.144637 l 18.21615,0.0021 z m -34.88901,-7.777005 v -4.726634 h 4.67354 4.67352 v 4.726634 4.726646 h -4.67352 -4.67354 z m 11.79004,0 v -4.726634 h 4.62042 4.62043 v 4.726634 4.726646 h -4.62043 -4.62042 z m 12.21491,0 v -4.726634 h 4.67353 4.67353 v 4.726634 4.726646 h -4.67353 -4.67353 z m -24.00495,-11.68382 v -4.726635 h 4.67354 4.67352 v 4.726635 4.726635 h -4.67352 -4.67354 z m 11.79004,0 v -4.726635 h 4.62042 4.62043 v 4.726635 4.726635 h -4.62043 -4.62042 z m 12.21491,0 v -4.726635 h 4.67353 4.67353 v 4.726635 4.726635 h -4.67353 -4.67353 z M 10.409915,10.622384 c -0.34696,-0.174968 -0.5387097,-0.367035 -0.7157297,-0.7169611 -0.24097,-0.476347 -0.2417,-0.492174 -0.21243,-4.639333 0.0284,-4.013313 0.0371,-4.171776 0.24836,-4.45453298 0.3875097,-0.518773 0.7481097,-0.714677 1.3993797,-0.760241 0.51104,-0.03576 0.67198,-0.0021 0.97416,0.205548 0.1991,0.13662 0.46199,0.383332 0.5842,0.54827 0.2169,0.29272498 0.22219,0.40296498 0.22219,4.62041998 v 4.320541 l -0.25503,0.3575791 c -0.28541,0.400181 -0.95973,0.751827 -1.44848,0.755361 -0.17748,10e-4 -0.53596,-0.105204 -0.79662,-0.236651 z m 30.74848,0.09551 c -0.43829,-0.198865 -0.86754,-0.7313181 -1.00695,-1.2490481 -0.0756,-0.280922 -0.10385,-1.762514 -0.0825,-4.331469 l 0.0325,-3.904512 0.28263,-0.42684198 c 0.86327,-1.30385 2.82206,-0.959951 3.17393,0.55722598 0.12587,0.542691 0.12587,7.513338 0,8.056019 -0.18779,0.8097151 -0.78276,1.3446701 -1.56329,1.4055921 -0.29547,0.02304 -0.6496,-0.02221 -0.83636,-0.106966 z"
       id="path5"
       inkscape:export-filename="calendar.svg"
       inkscape:export-xdpi="96"
       inkscape:export-ydpi="96" />
  </g>
</svg>
