<?xml version="1.0" encoding="UTF-8" standalone="no"?>
<!-- Created with Inkscape (http://www.inkscape.org/) -->

<svg
   width="200"
   height="200"
   viewBox="0 0 52.916665 52.916666"
   version="1.1"
   id="svg1"
   inkscape:export-filename="rust.svg"
   inkscape:export-xdpi="96"
   inkscape:export-ydpi="96"
   xmlns:inkscape="http://www.inkscape.org/namespaces/inkscape"
   xmlns:sodipodi="http://sodipodi.sourceforge.net/DTD/sodipodi-0.dtd"
   xmlns="http://www.w3.org/2000/svg"
   xmlns:svg="http://www.w3.org/2000/svg">
  <sodipodi:namedview
     id="namedview1"
     pagecolor="#ffffff"
     bordercolor="#cccccc"
     borderopacity="1"
     inkscape:showpageshadow="0"
     inkscape:pageopacity="1"
     inkscape:pagecheckerboard="0"
     inkscape:deskcolor="#d1d1d1"
     inkscape:document-units="mm"
     inkscape:zoom="3.76"
     inkscape:cx="99.867021"
     inkscape:cy="100"
     inkscape:window-width="1712"
     inkscape:window-height="971"
     inkscape:window-x="0"
     inkscape:window-y="39"
     inkscape:window-maximized="1"
     inkscape:current-layer="layer1">
    <inkscape:page
       x="0"
       y="0"
       width="52.916664"
       height="52.916664"
       id="page2"
       margin="0"
       bleed="0" />
  </sodipodi:namedview>
  <defs
     id="defs1" />
  <g
     inkscape:label="Layer 1"
     inkscape:groupmode="layer"
     id="layer1">
    <path
      
       d="m 25.876394,52.61517 c -0.4168,-0.05415 -0.929491,-0.194159 -1.191861,-0.325631 -0.129027,-0.06465 -4.612242,-2.64429 -9.962746,-5.732536 C 7.6233976,42.459879 4.9131539,40.874265 4.6959479,40.691432 3.9740697,40.08379 3.3681897,38.980445 3.214908,37.994414 3.176892,37.749647 3.167388,34.780429 3.177387,26.22974 L 3.190653,14.792468 3.3109479,14.409002 C 3.6221643,13.416883 4.2197976,12.520498 4.8864338,12.045901 5.1562979,11.853772 24.067813,0.91727196 24.607036,0.64151737 c 0.15837,-0.081081 0.482506,-0.19870289 0.720274,-0.26155799 0.376052,-0.0994158 0.520414,-0.1144341 1.108969,-0.1153647 0.726056,-9.009e-4 1.061676,0.051381 1.583722,0.24788609 0.328997,0.1238391 19.709217,11.29606823 20.061578,11.56502123 0.640094,0.488575 1.26017,1.430758 1.542568,2.343904 l 0.101257,0.327403 0.01168,11.52459 c 0.01277,12.697086 0.03158,11.800611 -0.263251,12.585483 -0.280477,0.746718 -0.840034,1.530857 -1.385257,1.941222 -0.274022,0.206247 -19.058203,11.080426 -19.740847,11.427995 -0.696742,0.354757 -1.613631,0.498366 -2.471198,0.387071 z m 2.546062,-10.77615 c 4.256446,-0.568775 8.004714,-2.777554 10.549776,-6.216794 0.210385,-0.284298 0.503752,-0.713057 0.651925,-0.952806 0.226334,-0.36623 0.259727,-0.444767 0.208831,-0.491248 -0.03326,-0.03049 -0.640075,-0.389604 -1.34835,-0.798177 -0.708286,-0.408573 -2.17609,-1.25633 -3.261783,-1.883921 -1.085693,-0.62758 -1.991286,-1.141054 -2.012432,-1.141054 -0.02109,0 -0.147896,0.164489 -0.281695,0.365518 -1.144331,1.719551 -2.895364,2.895691 -4.962098,3.332954 -0.493594,0.104435 -0.641737,0.116176 -1.486772,0.11783 -0.810433,0.002 -1.00681,-0.01188 -1.438578,-0.0986 -1.476684,-0.296703 -2.709917,-0.914255 -3.828637,-1.917214 -1.106008,-0.991555 -1.952934,-2.475406 -2.302532,-4.034132 -0.561459,-2.503383 0.154073,-5.095262 1.926896,-6.979777 1.262577,-1.342133 2.974475,-2.192483 4.822627,-2.395532 2.01952,-0.221869 4.103629,0.411345 5.726674,1.739925 0.591357,0.48408 1.328689,1.327105 1.669803,1.909175 l 0.11192,0.190981 0.137293,-0.08356 c 0.07544,-0.04594 1.59097,-0.923175 3.367673,-1.949399 1.776713,-1.026234 3.237003,-1.871407 3.245111,-1.878159 0.02128,-0.01782 -0.491931,-0.825026 -0.817235,-1.285297 -0.686773,-0.971714 -1.881267,-2.239231 -2.820757,-2.993166 -2.441578,-1.959378 -5.177492,-3.087859 -8.31603,-3.430112 -0.645836,-0.07039 -2.408264,-0.0694 -3.055763,0.002 -3.611342,0.397109 -6.750573,1.869358 -9.314128,4.368167 -2.05723,2.005275 -3.513193,4.532784 -4.213044,7.313704 -0.782338,3.108689 -0.57321,6.459869 0.589288,9.4436 0.210503,0.540302 0.900771,1.976931 0.995266,2.071426 0.03079,0.03079 0.159212,0.222423 0.285219,0.42571 1.039877,1.677575 2.34633,3.097492 3.96394,4.308223 0.732422,0.548192 1.301405,0.901771 2.175001,1.351607 1.422036,0.732243 2.798136,1.19789 4.361633,1.475892 0.490663,0.08722 0.812008,0.127799 1.702503,0.21486 0.466804,0.04564 2.345557,-0.01921 2.968455,-0.102426 z M 40.26444,28.161418 40.27622,27.299257 h 0.850331 0.85032 v -0.851252 -0.851241 h -0.85125 -0.851242 v -0.873081 -0.873071 h -0.873081 -0.873071 v 0.873071 0.873081 h -0.851241 -0.851252 v 0.851241 0.851252 h 0.851252 0.851241 v 0.873991 0.874012 l 0.862171,-0.01188 0.862152,-0.01178 z m 6.470739,0.01089 v -0.873071 h 0.851261 0.851242 V 26.447985 25.596734 H 47.58644 46.735179 v -0.873071 -0.873071 h -0.873072 -0.873061 v 0.873071 0.873071 h -0.851261 -0.851242 v 0.851251 0.851252 h 0.851242 0.851261 v 0.873071 0.873071 h 0.873061 0.873072 z"
       id="path12" />
  </g>
</svg>
