<?xml version="1.0" encoding="UTF-8" standalone="no"?>
<!-- Created with Inkscape (http://www.inkscape.org/) -->

<svg
   width="200"
   height="200"
   viewBox="0 0 52.916665 52.916666"
   version="1.1"
   id="svg1"
   inkscape:export-filename="matplotlib.svg"
   inkscape:export-xdpi="96"
   inkscape:export-ydpi="96"
   xmlns:inkscape="http://www.inkscape.org/namespaces/inkscape"
   xmlns:sodipodi="http://sodipodi.sourceforge.net/DTD/sodipodi-0.dtd"
   xmlns="http://www.w3.org/2000/svg"
   xmlns:svg="http://www.w3.org/2000/svg">
  <sodipodi:namedview
     id="namedview1"
     pagecolor="#ffffff"
     bordercolor="#cccccc"
     borderopacity="1"
     inkscape:showpageshadow="0"
     inkscape:pageopacity="1"
     inkscape:pagecheckerboard="0"
     inkscape:deskcolor="#d1d1d1"
     inkscape:document-units="mm"
     inkscape:zoom="3.76"
     inkscape:cx="99.867021"
     inkscape:cy="100"
     inkscape:window-width="1712"
     inkscape:window-height="971"
     inkscape:window-x="0"
     inkscape:window-y="39"
     inkscape:window-maximized="1"
     inkscape:current-layer="layer1">
    <inkscape:page
       x="0"
       y="0"
       width="52.916664"
       height="52.916664"
       id="page2"
       margin="0"
       bleed="0" />
  </sodipodi:namedview>
  <defs
     id="defs1" />
  <g
     inkscape:label="Layer 1"
     inkscape:groupmode="layer"
     id="layer1">
    <path
      
       d="M 14.423023,45.864564 2.4856629,39.079163 v -0.888327 -0.888327 l 0.5337783,-0.296247 0.5337882,-0.296258 11.1913256,6.371412 c 6.155226,3.504283 11.320135,6.43802 11.477584,6.519437 l 0.286259,0.148035 10.674477,-6.089846 10.674486,-6.089837 v -2.456071 -2.456061 l -0.218374,0.136293 C 46.662372,33.402949 26.480965,44.79969 26.420664,44.775653 26.377604,44.758523 20.964052,41.687358 14.390462,37.95086 l -11.9519726,-6.793627 -7.326e-4,-4.810479 -7.425e-4,-4.810479 0.5756751,-0.275161 0.575685,-0.275141 11.4469036,6.51516 11.446895,6.515151 10.684634,-6.088005 10.684634,-6.088005 0.003,-2.456299 c 9.9e-4,-1.350954 -0.0298,-2.437172 -0.06989,-2.413828 -1.147509,0.669201 -20.992692,11.957151 -21.138479,12.02358 -0.181517,0.08266 -1.883752,-0.854311 -12.209937,-6.721031 L 2.4371727,15.455566 V 14.658438 13.86131 L 14.429606,7.0479322 c 6.595826,-3.747368 12.046409,-6.79984399 12.112383,-6.78328199 0.06593,0.01663 1.71169,0.93797599 3.657159,2.04756799 1.945468,1.109602 6.004755,3.424281 9.020642,5.143743 l 5.483421,3.1263108 v 0.617522 0.617532 L 43.959197,12.247115 43.215162,12.676904 34.849474,7.9127662 26.483777,3.1486192 16.35879,8.9012522 C 10.79006,12.065212 6.2421287,14.661269 6.2522663,14.670288 c 0.1028313,0.09148 20.0496967,11.3355 20.1606167,11.364566 0.08217,0.02148 5.257504,-2.865267 11.500631,-6.41514 l 11.351132,-6.454315 0.582308,0.326195 0.582308,0.326205 0.02515,4.743763 0.02524,4.743763 -11.968406,6.81325 c -6.582609,3.747278 -11.995206,6.813249 -12.027975,6.813249 -0.03277,0 -4.866949,-2.72554 -10.742619,-6.056741 L 5.0576135,24.818352 v 2.450448 2.450448 l 10.5058595,5.952563 c 5.778224,3.27391 10.594613,6.009201 10.703117,6.078442 0.178567,0.113949 1.281912,-0.490605 11.646202,-6.381273 l 11.448953,-6.507151 0.533789,0.293268 0.533788,0.293257 v 4.816271 4.816271 l -11.923283,6.786657 c -6.557809,3.732667 -11.973297,6.785698 -12.034429,6.78453 -0.06108,-9.9e-4 -5.482957,-3.055546 -12.048498,-6.787519 z"
       id="path17" />
  </g>
</svg>
