<?xml version="1.0" encoding="UTF-8" standalone="no"?>
<!-- Created with Inkscape (http://www.inkscape.org/) -->

<svg
   width="200"
   height="200"
   viewBox="0 0 52.916665 52.916666"
   version="1.1"
   id="svg1"
   inkscape:export-filename="linkedin.svg"
   inkscape:export-xdpi="96"
   inkscape:export-ydpi="96"
   xmlns:inkscape="http://www.inkscape.org/namespaces/inkscape"
   xmlns:sodipodi="http://sodipodi.sourceforge.net/DTD/sodipodi-0.dtd"
   xmlns="http://www.w3.org/2000/svg"
   xmlns:svg="http://www.w3.org/2000/svg">
  <sodipodi:namedview
     id="namedview1"
     pagecolor="#ffffff"
     bordercolor="#cccccc"
     borderopacity="1"
     inkscape:showpageshadow="0"
     inkscape:pageopacity="1"
     inkscape:pagecheckerboard="0"
     inkscape:deskcolor="#d1d1d1"
     inkscape:document-units="mm"
     inkscape:zoom="3.76"
     inkscape:cx="99.867021"
     inkscape:cy="100"
     inkscape:window-width="1712"
     inkscape:window-height="971"
     inkscape:window-x="0"
     inkscape:window-y="39"
     inkscape:window-maximized="1"
     inkscape:current-layer="layer1">
    <inkscape:page
       x="0"
       y="0"
       width="52.916664"
       height="52.916664"
       id="page2"
       margin="0"
       bleed="0" />
  </sodipodi:namedview>
  <defs
     id="defs1" />
  <g
     inkscape:label="Layer 1"
     inkscape:groupmode="layer"
     id="layer1">
    <path
      
       d="M 4.0357102,46.203713 C 2.1914599,45.906779 0.5053166,44.274855 0.11802,42.411963 -0.0130793,41.781331 -0.0485868,17.747619 0.081635,17.805517 c 0.042612,0.01896 5.101485,3.384349 11.241884,7.478649 6.140398,4.094311 11.433846,7.573961 11.763219,7.732553 1.374266,0.661707 3.108836,0.908502 4.58456,0.652288 1.908543,-0.331352 1.569231,-0.127976 13.733956,-8.231404 6.197257,-4.128231 11.326791,-7.541476 11.398992,-7.584968 0.105922,-0.06374 0.125871,2.30696 0.103432,12.255589 l -0.02798,12.334673 -0.247817,0.620242 c -0.679443,1.700485 -2.118286,2.882168 -3.835451,3.149933 -0.84674,0.132041 -43.9385001,0.123025 -44.7607984,-0.0095 z M 25.645227,30.592291 C 25.334947,30.540875 24.8465,30.391369 24.5598,30.260086 24.273091,30.128816 19.014558,26.671047 12.874159,22.576168 4.8718874,17.239645 1.5734589,14.984399 1.2283695,14.61356 -1.2414816,11.959362 0.2650538,7.5470145 3.9044534,6.7758131 c 1.0495221,-0.2224022 44.0771686,-0.2224022 45.1267056,0 3.108686,0.658745 4.79732,4.1060769 3.376023,6.8920549 -0.506527,0.992893 -0.874701,1.258549 -12.345736,8.9083 -6.140406,4.094879 -11.396952,7.551202 -11.681222,7.680731 -0.470187,0.214216 -1.632885,0.468131 -2.0158,0.440231 -0.0853,-0.0059 -0.408925,-0.05343 -0.719197,-0.104852 z"
       id="path3"
       inkscape:export-filename="email.svg"
       inkscape:export-xdpi="96"
       inkscape:export-ydpi="96" />
  </g>
</svg>
