<?xml version="1.0" encoding="UTF-8" standalone="no"?>
<!-- Created with Inkscape (http://www.inkscape.org/) -->

<svg
   width="200"
   height="200"
   viewBox="0 0 52.916665 52.916666"
   version="1.1"
   id="svg1"
   inkscape:export-filename="web.svg"
   inkscape:export-xdpi="96"
   inkscape:export-ydpi="96"
   xmlns:inkscape="http://www.inkscape.org/namespaces/inkscape"
   xmlns:sodipodi="http://sodipodi.sourceforge.net/DTD/sodipodi-0.dtd"
   xmlns="http://www.w3.org/2000/svg"
   xmlns:svg="http://www.w3.org/2000/svg">
  <sodipodi:namedview
     id="namedview1"
     pagecolor="#ffffff"
     bordercolor="#cccccc"
     borderopacity="1"
     inkscape:showpageshadow="0"
     inkscape:pageopacity="1"
     inkscape:pagecheckerboard="0"
     inkscape:deskcolor="#d1d1d1"
     inkscape:document-units="mm"
     inkscape:zoom="3.76"
     inkscape:cx="99.867021"
     inkscape:cy="100"
     inkscape:window-width="1712"
     inkscape:window-height="971"
     inkscape:window-x="0"
     inkscape:window-y="39"
     inkscape:window-maximized="1"
     inkscape:current-layer="layer1">
    <inkscape:page
       x="0"
       y="0"
       width="52.916664"
       height="52.916664"
       id="page2"
       margin="0"
       bleed="0" />
  </sodipodi:namedview>
  <defs
     id="defs1" />
  <g
     inkscape:label="Layer 1"
     inkscape:groupmode="layer"
     id="layer1">
    <path
      
       d="M 16.976879,51.375143 C 13.219214,49.944272 9.7537089,47.621501 6.9665743,44.665692 5.9353218,43.572034 5.253496,42.699564 4.2274121,41.160633 -1.4084783,32.707852 -1.4091579,21.41305 4.2254978,12.95399 5.3019087,11.338071 6.1644731,10.293583 7.6317266,8.8293486 11.610991,4.8582492 16.277001,2.4517799 22.023854,1.4066744 c 1.393505,-0.2534207 1.711748,-0.272938 4.450728,-0.272938 2.738962,0 3.057214,0.019516 4.450729,0.272938 2.940642,0.5347798 5.424389,1.3631205 7.836656,2.6135718 7.597291,3.9382223 12.670693,11.0237128 13.968857,19.5088608 0.222556,1.454678 0.25196,5.258686 0.05159,6.676095 -0.812027,5.744909 -3.139653,10.606534 -7.003849,14.628689 -1.457136,1.516698 -2.752993,2.600025 -4.497447,3.759844 -2.161666,1.437194 -5.632052,3.042671 -6.845383,3.166811 -0.543145,0.05554 -1.046749,-0.152485 -1.256135,-0.518968 -0.09945,-0.174055 -0.147583,-1.379393 -0.193163,-4.837802 -0.05207,-3.954743 -0.08624,-4.692862 -0.241173,-5.220501 -0.242159,-0.824624 -0.713947,-1.738697 -1.141899,-2.212389 l -0.35091,-0.388422 1.426374,-0.229279 c 2.745757,-0.441372 5.050239,-1.343821 6.648162,-2.603477 1.846381,-1.45552 3.141146,-3.740679 3.655997,-6.45255 0.248965,-1.311404 0.367374,-3.524806 0.24996,-4.672503 -0.1204,-1.176751 -0.487228,-2.51022 -0.936265,-3.40336 -0.356395,-0.708903 -1.234436,-2.023092 -1.530933,-2.291426 -0.183849,-0.166382 -0.183323,-0.191641 0.01666,-0.813764 0.141648,-0.440536 0.22314,-1.051623 0.259598,-1.946946 0.05839,-1.434382 -0.04307,-2.234937 -0.444137,-3.504724 -0.234358,-0.741867 -0.27989,-0.8108 -0.574529,-0.869727 -1.120583,-0.224115 -3.795875,0.72986 -6.140433,2.189608 l -0.820287,0.510717 -0.534875,-0.139674 c -1.00538,-0.262544 -2.895263,-0.543258 -4.46632,-0.663404 -2.3273,-0.177984 -5.571953,0.104854 -7.672696,0.668825 l -0.548246,0.147186 -0.804848,-0.499181 c -2.352655,-1.459161 -5.097532,-2.437262 -6.213454,-2.214077 -0.29463,0.05893 -0.340161,0.12786 -0.57452,0.869727 -0.401725,1.271688 -0.502685,2.069934 -0.443256,3.504724 0.0381,0.920394 0.115461,1.484197 0.26247,1.913427 l 0.208429,0.608533 -0.656557,0.860506 c -0.769941,1.009091 -1.27434,2.012707 -1.6608942,3.304699 -0.2347793,0.784728 -0.2866089,1.186876 -0.3288097,2.55158 -0.098816,3.194987 0.4721999,5.779356 1.7512399,7.925903 0.783886,1.315576 2.497376,2.836561 4.104919,3.643769 1.319068,0.662357 3.701356,1.321129 5.48357,1.516363 l 0.652824,0.0715 -0.257732,0.270605 c -0.482088,0.506174 -0.979528,1.471602 -1.212364,2.352979 -0.219082,0.829303 -0.253262,0.887971 -0.603177,1.035146 -1.228741,0.516825 -3.119534,0.62854 -4.240644,0.250547 -1.269027,-0.427874 -2.115033,-1.138754 -3.057242,-2.568924 -0.953465,-1.447275 -2.2967095,-2.400685 -3.7066297,-2.630897 -0.5013838,-0.08187 -0.7424133,-0.07395 -1.062513,0.03493 -0.7768325,0.264298 -0.5687672,0.749196 0.6859894,1.598713 1.0647528,0.720867 1.7314556,1.578776 2.5985853,3.343846 0.592074,1.205177 0.857951,1.623368 1.392155,2.18964 1.112391,1.179198 2.558721,1.80022 4.483482,1.925121 0.864996,0.05612 2.476272,-0.06814 3.027533,-0.233541 0.169004,-0.05072 0.18114,0.113082 0.18114,2.447108 v 2.501453 l -0.351925,0.351915 c -0.313811,0.313819 -0.411861,0.35157 -0.905674,0.348708 -0.387761,-0.0025 -0.872155,-0.12446 -1.615985,-0.407703 z"
       id="path2"
       inkscape:export-filename="github.svg"
       inkscape:export-xdpi="96"
       inkscape:export-ydpi="96" />
  </g>
</svg>
