<?xml version="1.0" encoding="UTF-8" standalone="no"?>
<!-- Created with Inkscape (http://www.inkscape.org/) -->

<svg
   width="200"
   height="200"
   viewBox="0 0 52.916665 52.916666"
   version="1.1"
   id="svg1"
   inkscape:export-filename="orcid.svg"
   inkscape:export-xdpi="96"
   inkscape:export-ydpi="96"
   xmlns:inkscape="http://www.inkscape.org/namespaces/inkscape"
   xmlns:sodipodi="http://sodipodi.sourceforge.net/DTD/sodipodi-0.dtd"
   xmlns="http://www.w3.org/2000/svg"
   xmlns:svg="http://www.w3.org/2000/svg">
  <sodipodi:namedview
     id="namedview1"
     pagecolor="#ffffff"
     bordercolor="#cccccc"
     borderopacity="1"
     inkscape:showpageshadow="0"
     inkscape:pageopacity="1"
     inkscape:pagecheckerboard="0"
     inkscape:deskcolor="#d1d1d1"
     inkscape:document-units="mm"
     inkscape:zoom="3.76"
     inkscape:cx="99.867021"
     inkscape:cy="100"
     inkscape:window-width="1712"
     inkscape:window-height="971"
     inkscape:window-x="0"
     inkscape:window-y="39"
     inkscape:window-maximized="1"
     inkscape:current-layer="layer1">
    <inkscape:page
       x="0"
       y="0"
       width="52.916664"
       height="52.916664"
       id="page2"
       margin="0"
       bleed="0" />
  </sodipodi:namedview>
  <defs
     id="defs1" />
  <g
     inkscape:label="Layer 1"
     inkscape:groupmode="layer"
     id="layer1">
    <path
      
       d="m 26.064099,51.674376 c -0.272226,-0.04578 -0.60544,-0.179173 -0.828226,-0.331599 -0.123197,-0.08426 -3.300909,-2.485862 -6.355337,-4.80306 C 17.551698,45.531608 15.509584,43.991062 14.342514,43.116278 7.1083374,37.693878 5.1973134,36.256255 4.9744708,36.068882 3.6423012,34.948745 2.5431658,33.577395 1.7556781,32.052911 0.94448605,30.482548 0.49183467,28.95242 0.30444345,27.147214 0.25138569,26.636145 0.25129025,25.172566 0.30419534,24.689116 0.42356575,23.599401 0.6318079,22.62152 0.93726218,21.716294 1.0828466,21.284861 8.3281601,2.4083346 8.4125562,2.2406062 8.5441796,1.9789848 8.7687875,1.7168613 9.0083681,1.5452528 9.3788659,1.2798753 9.9078212,1.1582604 10.379176,1.2300754 c 0.60546,0.092269 1.124099,0.4697378 1.388348,1.0105308 0.052,0.106609 0.971978,2.893606 2.515491,7.6211667 l 2.433356,7.4530991 9.745002,-0.0051 9.745003,-0.0051 2.436219,-7.4575749 c 1.97226,-6.0373176 2.454494,-7.4922138 2.532105,-7.6394156 0.112491,-0.21334 0.30472,-0.4504824 0.479008,-0.5908899 0.151836,-0.1223219 0.502771,-0.300469 0.673291,-0.3417796 0.625632,-0.151585 1.263795,-0.010573 1.722134,0.3804737 0.192611,0.1643521 0.32035,0.3227925 0.429653,0.5329317 0.04505,0.086629 1.671997,4.3079712 3.615371,9.3806886 1.943374,5.072718 3.576036,9.331844 3.628139,9.464718 0.144716,0.369122 0.393019,1.128234 0.487912,1.491671 0.4218,1.615471 0.542468,3.263765 0.358369,4.895186 -0.399593,3.540989 -2.207642,6.765659 -5.03125,8.973324 -0.127109,0.09935 -2.575534,1.937146 -5.440939,4.083926 -2.865415,2.146781 -6.722743,5.049091 -8.571834,6.449569 -5.461695,4.136641 -5.88088,4.450781 -6.051619,4.53521 -0.446439,0.220751 -0.926764,0.293028 -1.408836,0.211995 z"
       id="path26" />
  </g>
</svg>
