<?xml version="1.0" encoding="UTF-8" standalone="no"?>
<!-- Created with Inkscape (http://www.inkscape.org/) -->

<svg
   width="200"
   height="200"
   viewBox="0 0 52.916665 52.916666"
   version="1.1"
   id="svg1"
   inkscape:export-filename="python.svg"
   inkscape:export-xdpi="96"
   inkscape:export-ydpi="96"
   xmlns:inkscape="http://www.inkscape.org/namespaces/inkscape"
   xmlns:sodipodi="http://sodipodi.sourceforge.net/DTD/sodipodi-0.dtd"
   xmlns="http://www.w3.org/2000/svg"
   xmlns:svg="http://www.w3.org/2000/svg">
  <sodipodi:namedview
     id="namedview1"
     pagecolor="#ffffff"
     bordercolor="#cccccc"
     borderopacity="1"
     inkscape:showpageshadow="0"
     inkscape:pageopacity="1"
     inkscape:pagecheckerboard="0"
     inkscape:deskcolor="#d1d1d1"
     inkscape:document-units="mm"
     inkscape:zoom="3.76"
     inkscape:cx="99.867021"
     inkscape:cy="100"
     inkscape:window-width="1712"
     inkscape:window-height="971"
     inkscape:window-x="0"
     inkscape:window-y="39"
     inkscape:window-maximized="1"
     inkscape:current-layer="layer1">
    <inkscape:page
       x="0"
       y="0"
       width="52.916664"
       height="52.916664"
       id="page2"
       margin="0"
       bleed="0" />
  </sodipodi:namedview>
  <defs
     id="defs1" />
  <g
     inkscape:label="Layer 1"
     inkscape:groupmode="layer"
     id="layer1">
    <path
      
       d="M 0.26458348,26.458328 V 0.26457851 H 26.458333 52.652083 V 26.458328 52.652088 H 26.458333 0.26458348 Z M 41.235976,48.530153 c 1.326165,-0.05376 2.683376,-0.396851 3.821985,-0.965953 1.342588,-0.671051 2.481168,-1.855161 3.010887,-3.131251 0.358558,-0.863795 0.522869,-1.74047 0.523086,-2.79092 3.57e-4,-2.444538 -0.868497,-4.215994 -2.768159,-5.642812 -0.973051,-0.730858 -2.209641,-1.387317 -4.325855,-2.296454 -1.442579,-0.61974 -2.024847,-0.903157 -2.500849,-1.217294 -0.825957,-0.545094 -1.188109,-1.158003 -1.188109,-2.01076 0,-1.021512 0.59101,-1.763259 1.624303,-2.038578 0.394386,-0.105079 1.173427,-0.09306 1.619383,0.02515 0.839371,0.222274 1.564913,0.83058 2.102107,1.762477 0.06574,0.114048 0.138402,0.207365 0.161459,0.207365 0.02891,0 3.316569,-2.084861 3.827489,-2.427173 0.05009,-0.03356 -0.512702,-0.896247 -0.869686,-1.333421 -1.407592,-1.723798 -3.155853,-2.533846 -5.699163,-2.640657 -3.863545,-0.162271 -6.82719,1.85628 -7.526813,5.126527 -0.114533,0.535343 -0.15934,1.682763 -0.09039,2.313542 0.179022,1.636994 0.762696,2.90265 1.838114,3.985859 1.044133,1.051687 2.241083,1.758002 4.912222,2.89871 2.361368,1.008414 3.108323,1.454558 3.554823,2.123204 0.461944,0.691782 0.481714,1.71771 0.04613,2.396444 -0.455707,0.710177 -1.427026,1.186733 -2.566674,1.25929 -1.326343,0.08445 -2.494642,-0.208019 -3.407096,-0.852905 -0.577892,-0.408424 -1.305424,-1.203761 -1.730421,-1.891702 -0.06673,-0.108049 -0.126076,-0.202158 -0.131828,-0.209138 -0.0089,-0.01119 -3.991087,2.288198 -4.032152,2.328401 -0.0089,0.0089 0.09781,0.21293 0.237234,0.453846 1.613581,2.789514 4.499016,4.427202 8.073609,4.582315 0.360162,0.01564 0.723601,0.02356 0.807642,0.01782 0.08395,-0.0059 0.388536,-0.0201 0.676665,-0.03188 z M 22.726003,48.48293 c 3.072861,-0.354687 5.118627,-2.073436 5.799836,-4.872711 0.282566,-1.161132 0.263806,-0.465864 0.278755,-10.330602 l 0.01356,-8.960432 h -2.488781 -2.488791 l -0.01168,8.873134 -0.01178,8.873134 -0.09524,0.333679 c -0.265508,0.930432 -0.750747,1.437104 -1.568151,1.637431 -0.431729,0.105811 -1.348766,0.105662 -1.69582,-3.27e-4 -0.842956,-0.257301 -1.36129,-0.734521 -2.071437,-1.907146 -0.18022,-0.297575 -0.326532,-0.494515 -0.361103,-0.486061 -0.125591,0.03069 -3.965376,2.380456 -3.965376,2.426649 0,0.02703 0.112959,0.250886 0.251025,0.497356 0.817859,1.460122 1.85325,2.460972 3.263297,3.154527 0.817671,0.402187 1.749014,0.667913 2.72852,0.778496 0.548114,0.06187 1.816096,0.05287 2.423194,-0.01723 z"
       id="path10" />
  </g>
</svg>
