<?xml version="1.0" encoding="UTF-8" standalone="no"?>
<!-- Created with Inkscape (http://www.inkscape.org/) -->

<svg
   width="200"
   height="200"
   viewBox="0 0 52.916665 52.916666"
   version="1.1"
   id="svg1"
   inkscape:export-filename="pin.svg"
   inkscape:export-xdpi="96"
   inkscape:export-ydpi="96"
   xmlns:inkscape="http://www.inkscape.org/namespaces/inkscape"
   xmlns:sodipodi="http://sodipodi.sourceforge.net/DTD/sodipodi-0.dtd"
   xmlns="http://www.w3.org/2000/svg"
   xmlns:svg="http://www.w3.org/2000/svg">
  <sodipodi:namedview
     id="namedview1"
     pagecolor="#ffffff"
     bordercolor="#cccccc"
     borderopacity="1"
     inkscape:showpageshadow="0"
     inkscape:pageopacity="1"
     inkscape:pagecheckerboard="0"
     inkscape:deskcolor="#d1d1d1"
     inkscape:document-units="mm"
     inkscape:zoom="3.76"
     inkscape:cx="99.867021"
     inkscape:cy="100"
     inkscape:window-width="1712"
     inkscape:window-height="971"
     inkscape:window-x="0"
     inkscape:window-y="39"
     inkscape:window-maximized="1"
     inkscape:current-layer="layer1">
    <inkscape:page
       x="0"
       y="0"
       width="52.916664"
       height="52.916664"
       id="page2"
       margin="0"
       bleed="0" />
  </sodipodi:namedview>
  <defs
     id="defs1" />
  <g
     inkscape:label="Layer 1"
     inkscape:groupmode="layer"
     id="layer1">
    <path
      
       d="m 5.2605683,52.88586 c -1.35285,-0.143281 -2.57948,-0.735315 -3.55206,-1.714208 -0.84828997,-0.853788 -1.39308997,-1.897733 -1.62276997,-3.109604 -0.071,-0.374193 -0.0758,-1.749556 -0.0758,-21.598014 0,-19.8484565 0.004,-21.2238355 0.0758,-21.5980125 0.22964,-1.211601 0.77405,-2.254948 1.62276997,-3.110038 1.00326,-1.01076803 2.19905,-1.57541903 3.63969,-1.71867003 0.34613,-0.03444 6.4938797,-0.04387 21.4410197,-0.03309 19.75557,0.01497 20.97716,0.01961 21.32985,0.09238 0.80706,0.166637 1.625,0.512578 2.28959,0.96838303 0.42805,0.293569 1.11425,0.972769 1.41363,1.399184 0.47782,0.680577 0.85069,1.568486 1.00864,2.401822 0.071,0.374177 0.0758,1.749541 0.0758,21.5980125 0,20.152762 -0.004,21.218521 -0.0786,21.606833 -0.1623,0.843112 -0.52849,1.713983 -1.00625,2.392988 -0.2983,0.423945 -0.93969,1.065341 -1.36364,1.363626 -0.65548,0.461209 -1.53182,0.837319 -2.33909,1.003911 -0.35294,0.07276 -1.56615,0.07755 -21.44015,0.08444 -11.5863,0.0045 -21.2245697,-0.009 -21.4183497,-0.03009 z M 16.002528,32.838755 V 20.066556 l -3.95953,0.01198 -3.9595397,0.01198 -0.012,12.705798 c -0.006,6.988179 -0.002,12.730606 0.009,12.760939 0.0165,0.04357 0.8515,0.0551 3.9708397,0.0551 h 3.94988 z m 12.62887,5.592109 c 0.0135,-6.600946 0.0205,-7.217458 0.0918,-7.643334 0.23713,-1.418064 0.70787,-2.417363 1.47831,-3.138155 0.54495,-0.509838 1.17236,-0.836795 1.95395,-1.018269 0.60746,-0.141035 1.87703,-0.142233 2.42972,-0.003 1.85653,0.470253 2.86155,1.979211 3.07828,4.621856 0.026,0.317045 0.0437,3.303475 0.0442,7.444792 l 7.5e-4,6.915401 h 3.94851 3.94849 l -3.7e-4,-8.283024 c -2.6e-4,-5.032819 -0.0177,-8.534058 -0.0443,-8.922743 -0.24097,-3.510731 -1.51888,-6.072289 -3.78894,-7.594901 -1.02378,-0.686671 -2.12843,-1.110855 -3.55594,-1.365467 -0.75445,-0.134598 -2.47573,-0.169287 -3.19851,-0.06453 -2.64756,0.38373 -4.81043,1.736621 -6.31748,3.951623 -0.0711,0.104504 -0.075,0.0241 -0.0773,-1.577409 l -0.001,-1.687483 h -3.79409 -3.7941 V 32.83818 45.610154 h 3.79259 3.79258 z M 12.841108,16.69204 c 2.88839,-0.5037 4.61215,-3.638591 3.51581,-6.39396 -0.25504,-0.6409165 -0.53371,-1.0611475 -1.04874,-1.5813915 -0.67923,-0.686117 -1.50448,-1.127518 -2.46005,-1.315775 -0.41182,-0.08115 -1.36653,-0.07097 -1.76879,0.01872 -1.7414297,0.388566 -3.0801297,1.635126 -3.5703497,3.3246295 -0.46229,1.59319 -0.0352,3.344079 1.11242,4.56065 0.66265,0.702437 1.6013497,1.217785 2.5215597,1.384317 0.4549,0.08235 1.23479,0.08369 1.69814,0.003 z"
       id="path8"
       inkscape:export-filename="linkedin.svg"
       inkscape:export-xdpi="96"
       inkscape:export-ydpi="96" />
  </g>
</svg>
