<?xml version="1.0" encoding="UTF-8" standalone="no"?>
<!-- Created with Inkscape (http://www.inkscape.org/) -->

<svg
   width="200"
   height="200"
   viewBox="0 0 52.916665 52.916666"
   version="1.1"
   id="svg1"
   inkscape:export-filename="react.svg"
   inkscape:export-xdpi="96"
   inkscape:export-ydpi="96"
   sodipodi:docname="matlab.svg"
   xml:space="preserve"
   inkscape:version="1.4.3 (0d15f75, 2025-12-25)"
   xmlns:inkscape="http://www.inkscape.org/namespaces/inkscape"
   xmlns:sodipodi="http://sodipodi.sourceforge.net/DTD/sodipodi-0.dtd"
   xmlns="http://www.w3.org/2000/svg"
   xmlns:svg="http://www.w3.org/2000/svg"><sodipodi:namedview
     id="namedview1"
     pagecolor="#ffffff"
     bordercolor="#cccccc"
     borderopacity="1"
     inkscape:showpageshadow="0"
     inkscape:pageopacity="1"
     inkscape:pagecheckerboard="0"
     inkscape:deskcolor="#d1d1d1"
     inkscape:document-units="mm"
     inkscape:zoom="3.7600001"
     inkscape:cx="100.13298"
     inkscape:cy="99.999996"
     inkscape:window-width="1710"
     inkscape:window-height="971"
     inkscape:window-x="0"
     inkscape:window-y="39"
     inkscape:window-maximized="1"
     inkscape:current-layer="layer1"><inkscape:page
       x="0"
       y="0"
       width="52.916664"
       height="52.916664"
       id="page2"
       margin="0"
       bleed="0" /></sodipodi:namedview><defs
     id="defs1" /><g
     inkscape:label="Layer 1"
     inkscape:groupmode="layer"
     id="layer1"><path
       style="fill:#000000"
       d="m 23.149107,48.834665 c -0.423778,-0.999974 -0.827972,-1.958424 -0.987073,-2.340605 -2.142121,-5.145671 -3.195874,-7.239752 -4.400399,-8.744742 -0.270721,-0.338251 -0.844441,-0.9119 -1.10322,-1.103082 -0.764897,-0.565097 -1.497749,-0.768954 -2.361831,-0.656989 -0.439818,0.05699 -0.810339,0.163627 -1.560425,0.449096 -0.226307,0.08613 -0.427569,0.15645 -0.44725,0.156271 -0.01968,-1.79e-4 -0.125232,-0.06445 -0.23456,-0.142832 C 10.613919,35.419107 3.495291,30.282927 1.922578,29.14158 1.6306283,28.929707 1.3958462,28.749745 1.4008399,28.741665 c 0.010004,-0.01619 3.1072916,-1.34298 9.7788881,-4.189007 l 4.373106,-1.865516 0.354452,-0.455534 c 1.282566,-1.64832 1.995297,-2.488699 2.755658,-3.249187 1.250583,-1.250792 2.205578,-1.841577 3.419731,-2.115535 0.450987,-0.10176 0.724931,-0.197447 1.093276,-0.381876 1.468561,-0.735303 3.035332,-2.218428 4.777059,-4.522025 0.764009,-1.010473 1.421072,-1.9698445 2.578864,-3.7653744 0.7501,-1.1632711 1.191577,-1.8313931 1.430386,-2.1647157 0.781307,-1.090526 1.456073,-1.7019086 2.136515,-1.9358235 0.179761,-0.061796 0.225165,-0.069199 0.474594,-0.077375 0.320969,-0.010522 0.504209,0.013778 0.74754,0.099132 1.562413,0.5480566 3.190122,3.0731206 5.170296,8.0206776 0.857847,2.143371 1.665283,4.385354 3.288,9.129685 2.061693,6.027768 2.780879,7.999383 4.035072,11.061969 0.138793,0.338916 0.502944,1.237887 0.809225,1.997714 1.540066,3.820622 1.95465,4.810773 2.501057,5.973265 0.332198,0.706757 0.402729,0.865643 0.389946,0.878426 -0.01577,0.01577 -0.158548,-0.07027 -0.509703,-0.307115 -0.785831,-0.530032 -1.319434,-0.97826 -2.771656,-2.328198 -1.427115,-1.3266 -1.773586,-1.635514 -2.376681,-2.119057 -1.224478,-0.981747 -2.22375,-1.520523 -3.240609,-1.747236 -0.38028,-0.08479 -0.524361,-0.09902 -1.003291,-0.09913 -0.388002,-8.8e-5 -0.496294,0.0068 -0.715599,0.04535 -0.493244,0.08675 -0.922385,0.230784 -1.451076,0.487016 -0.924039,0.447841 -1.754381,1.068615 -2.837515,2.121361 -1.013156,0.984732 -1.53979,1.572741 -3.843959,4.291946 -1.437379,1.696285 -2.095126,2.425906 -3.038002,3.369974 -0.89268,0.893809 -1.473311,1.409575 -2.205515,1.959128 -0.67949,0.509988 -1.225341,0.844686 -2.019251,1.238141 -0.52847,0.261905 -0.829727,0.386756 -1.32187,0.547827 -0.311736,0.102026 -0.897896,0.258697 -0.967876,0.258697 -0.02109,0 -0.04649,-0.02613 -0.0628,-0.0646 z"
       id="path2" /></g></svg>
