<?xml version="1.0" encoding="UTF-8" standalone="no"?>
<!-- Created with Inkscape (http://www.inkscape.org/) -->

<svg
   width="200"
   height="200"
   viewBox="0 0 52.916665 52.916666"
   version="1.1"
   id="svg1"
   inkscape:export-filename="numpy.svg"
   inkscape:export-xdpi="96"
   inkscape:export-ydpi="96"
   xmlns:inkscape="http://www.inkscape.org/namespaces/inkscape"
   xmlns:sodipodi="http://sodipodi.sourceforge.net/DTD/sodipodi-0.dtd"
   xmlns="http://www.w3.org/2000/svg"
   xmlns:svg="http://www.w3.org/2000/svg">
  <sodipodi:namedview
     id="namedview1"
     pagecolor="#ffffff"
     bordercolor="#cccccc"
     borderopacity="1"
     inkscape:showpageshadow="0"
     inkscape:pageopacity="1"
     inkscape:pagecheckerboard="0"
     inkscape:deskcolor="#d1d1d1"
     inkscape:document-units="mm"
     inkscape:zoom="3.76"
     inkscape:cx="99.867021"
     inkscape:cy="100"
     inkscape:window-width="1712"
     inkscape:window-height="971"
     inkscape:window-x="0"
     inkscape:window-y="39"
     inkscape:window-maximized="1"
     inkscape:current-layer="layer1">
    <inkscape:page
       x="0"
       y="0"
       width="52.916664"
       height="52.916664"
       id="page2"
       margin="0"
       bleed="0" />
  </sodipodi:namedview>
  <defs
     id="defs1" />
  <g
     inkscape:label="Layer 1"
     inkscape:groupmode="layer"
     id="layer1">
    <path
      
       d="m 25.465734,52.642644 c -1.081252,-0.05454 -1.868627,-0.127334 -2.76156,-0.255342 -4.341775,-0.622397 -8.446372,-2.329797 -11.98628,-4.985909 -0.7275893,-0.545921 -1.5837593,-1.269927 -2.2478293,-1.900827 -0.238118,-0.22624 -0.398394,-0.360641 -0.409183,-0.34318 -0.01109,0.01782 -0.07513,-0.02801 -0.169096,-0.121118 -0.09562,-0.09463 -0.142321,-0.158782 -0.12678,-0.174263 0.01544,-0.01544 -0.0781,-0.131056 -0.253827,-0.314 C 5.2602227,42.206527 3.3997907,39.326511 2.1546005,36.255802 1.2921153,34.128864 0.69784964,31.787455 0.43137234,29.46617 0.21332834,27.566847 0.20893344,25.447353 0.41899924,23.561908 1.0528886,17.875532 3.5078627,12.589857 7.4410577,8.4430727 c 0.180073,-0.189853 0.321948,-0.359425 0.315287,-0.376796 -0.01524,-0.03959 0.269466,-0.320177 0.309585,-0.305072 0.01623,0.0049 0.167067,-0.120019 0.335183,-0.280187 4.2994583,-4.097559 9.8999553,-6.62415797 15.7883203,-7.12267597 1.60404,-0.135738 3.511271,-0.116575 5.079242,0.05137 5.716526,0.61216197 11.079212,3.09927697 15.246892,7.07126397 0.168126,0.160217 0.318959,0.286314 0.335183,0.280187 0.04048,-0.01524 0.32473,0.265576 0.309397,0.305576 -0.0069,0.01772 0.11891,0.169898 0.279315,0.33831 1.827163,1.9184173 3.366665,4.1275233 4.543388,6.5195133 1.429619,2.906137 2.304626,6.059271 2.579309,9.294761 0.138935,1.636597 0.116287,3.452307 -0.06384,5.117906 -0.401701,3.712775 -1.620413,7.336078 -3.555627,10.571024 -0.96734,1.617086 -2.155209,3.182562 -3.446655,4.542437 -0.22716,0.239197 -0.360473,0.398295 -0.342864,0.409183 0.01792,0.01109 -0.02742,0.07483 -0.120979,0.169166 -0.09265,0.09364 -0.15895,0.142182 -0.173817,0.127334 -0.01495,-0.01485 -0.172472,0.11697 -0.413589,0.345982 -2.76348,2.625386 -6.157247,4.650716 -9.800288,5.848632 -2.094263,0.688648 -4.132412,1.082667 -6.497309,1.256069 -0.360939,0.02643 -2.340825,0.05266 -2.681432,0.03553 z m 0.786395,-3.078569 v -2.681432 l -0.122503,-2.48e-4 c -0.200326,-2.87e-4 -1.104395,-0.04939 -1.4374,-0.0778 -3.297989,-0.282186 -6.510712,-1.381532 -9.294752,-3.180523 -1.052961,-0.680373 -2.132293,-1.527862 -2.970368,-2.332253 l -0.255787,-0.245512 -1.894561,1.893324 -1.8945813,1.893343 0.291342,0.283612 c 2.0249343,1.971314 4.7330523,3.77667 7.4458723,4.963776 3.113283,1.362349 6.471376,2.093026 9.932888,2.161276 l 0.199811,0.004 z m 1.753231,2.62792 c 5.866232,-0.330213 11.513726,-2.727202 15.882316,-6.740941 0.205602,-0.188923 0.434613,-0.405492 0.508891,-0.481304 l 0.135045,-0.137807 -0.786088,-0.785782 -0.786089,-0.785762 -1.249407,1.249229 c -0.687193,0.687064 -1.253822,1.243914 -1.259177,1.23745 -0.0049,-0.0069 -0.454222,-0.615102 -0.997461,-1.35249 -0.543259,-0.737388 -0.99663,-1.350748 -1.007508,-1.363002 -0.01109,-0.01237 -0.16871,0.08097 -0.350713,0.207145 -2.339469,1.622026 -4.888984,2.70212 -7.686574,3.256386 -1.063197,0.21065 -2.074031,0.325017 -3.324963,0.376252 l -0.418973,0.01702 v 2.681046 2.681026 l 0.444769,-0.01653 c 0.244601,-0.0089 0.647787,-0.02801 0.895942,-0.04187 z M 26.252129,43.788692 V 41.10727 h -1.260661 -1.260642 l 0.02247,-0.09671 c 0.01237,-0.05325 0.02277,-0.109398 0.02306,-0.124849 2.87e-4,-0.01544 -0.100856,-0.04801 -0.224993,-0.07236 -2.083316,-0.407293 -4.188576,-1.359875 -5.939362,-2.68747 -0.378716,-0.287175 -1.022019,-0.833176 -1.207893,-1.025197 -0.06325,-0.06523 -0.127047,-0.118772 -0.141865,-0.118772 -0.01475,0 -0.873611,0.846737 -1.908458,1.881644 l -1.881506,1.881644 0.115466,0.119742 c 0.228853,0.237267 0.918689,0.84634 1.35056,1.192451 3.478825,2.788058 7.622026,4.289551 12.165592,4.408798 l 0.148249,0.004 z m 1.521181,2.627722 c 3.127804,-0.19009 6.1774,-1.140068 8.959589,-2.791018 0.36659,-0.217529 1.356132,-0.873403 1.403061,-0.929943 0.02781,-0.03366 -0.201682,-0.357088 -1.533721,-2.161019 -0.861595,-1.166824 -1.575692,-2.131976 -1.586926,-2.144805 -0.01109,-0.01237 -0.199237,0.09562 -0.427675,0.247601 -1.431816,0.952522 -2.929784,1.617156 -4.571212,2.028191 -0.219796,0.05503 -0.506951,0.120702 -0.638116,0.145824 -0.131194,0.02514 -0.238217,0.0585 -0.23789,0.07414 2.97e-4,0.01564 0.01109,0.07196 0.02306,0.125117 l 0.02247,0.09671 h -1.260662 -1.260642 v 2.683768 2.683768 l 0.341627,-0.01623 c 0.187893,-0.0079 0.533063,-0.02781 0.767034,-0.04207 z M 11.595068,40.458503 c -1.9881023,-2.074754 -3.6130773,-4.80058 -4.5394183,-7.614671 -0.08236,-0.250086 -0.120702,-0.334292 -0.151318,-0.33161 -0.03296,0.003 -0.04098,-0.02475 -0.04128,-0.141815 -1.68e-4,-0.08572 -0.03593,-0.27209 -0.08701,-0.454767 -0.401972,-1.432638 -0.642971,-2.968508 -0.71709,-4.570034 L 6.0275727,26.668797 H 3.3480717 0.66858964 l 0.017322,0.483452 c 0.108428,3.023801 0.61443886,5.630836 1.61531476,8.323324 1.1977873,3.222147 3.1744463,6.371054 5.5145283,8.784851 l 0.269853,0.278355 1.894393,-1.894402 1.8943933,-1.894403 z m 34.20563,3.041865 c 1.877229,-2.132451 3.379137,-4.536735 4.474573,-7.162943 1.200142,-2.877234 1.839991,-5.879654 1.954734,-9.172298 l 0.01722,-0.49633 h -2.680471 -2.680492 l -0.01752,0.470544 c -0.139539,3.755062 -1.228422,7.241508 -3.240785,10.376459 -0.279405,0.435286 -0.706634,1.03859 -1.025633,1.448318 l -0.208303,0.267546 0.239395,0.196535 c 0.131739,0.108151 0.700051,0.573271 1.263057,1.033699 l 1.023652,0.837175 -0.831988,0.832275 -0.831968,0.832285 0.786218,0.787989 0.786247,0.787999 0.312139,-0.322147 c 0.171689,-0.177193 0.468584,-0.499883 0.659793,-0.717106 z m -31.73754,-4.939099 c 1.03167,-1.031621 1.875784,-1.884415 1.875784,-1.895135 0,-0.01109 -0.105677,-0.132571 -0.234822,-0.270793 -1.387323,-1.484655 -2.516879,-3.395895 -3.154778,-5.337949 -0.05593,-0.17066 -0.07879,-0.210977 -0.112852,-0.200207 -0.02346,0.0069 -1.172843,0.35 -2.5541483,0.761322 -1.381294,0.411322 -2.516839,0.753256 -2.523442,0.759858 -0.01871,0.01871 0.309655,0.973843 0.499231,1.451831 0.777437,1.960337 1.885464,3.822134 3.2336193,5.43342 0.448797,0.53639 1.034996,1.173298 1.079866,1.173298 0.0079,0 0.859892,-0.844044 1.891562,-1.875645 z m 9.791151,1.863995 c 0,-0.01663 0.874195,-5.119123 0.890498,-5.197569 0.01376,-0.06404 0.0079,-0.06691 -0.251501,-0.125127 -1.459512,-0.328362 -2.939297,-1.097594 -3.974709,-2.066181 l -0.174322,-0.163058 -1.893294,1.893176 c -1.041292,1.041232 -1.890374,1.900886 -1.886821,1.910349 0.01109,0.03059 0.488669,0.461933 0.779942,0.705 1.427501,1.191214 3.091971,2.10039 4.86293,2.65627 0.673761,0.211471 1.647277,0.440304 1.647277,0.387199 z m 5.588896,-0.05335 c 1.382225,-0.29746 2.797967,-0.83475 4.002365,-1.518914 0.394752,-0.22424 1.28915,-0.798095 1.28915,-0.827127 0,-0.0079 -0.714899,-0.982069 -1.588648,-2.164078 l -1.588629,-2.149074 -0.287076,0.188071 c -0.860535,0.563759 -1.830082,0.973042 -2.846895,1.201826 -0.259122,0.0583 -0.264834,0.06117 -0.25153,0.125117 0.01623,0.07849 0.890517,5.18083 0.890517,5.197578 0,0.02247 0.08067,0.01109 0.380746,-0.05335 z m 12.980168,-1.862186 c 1.304492,-1.732484 2.294707,-3.599171 2.973674,-5.605803 0.510743,-1.50944 0.829593,-3.005558 0.97712,-4.584911 0.03603,-0.385398 0.09047,-1.312184 0.09146,-1.55343 l 2.77e-4,-0.09671 h -2.677809 -2.677819 l -0.01811,0.393198 c -0.06276,1.362824 -0.293609,2.651301 -0.701694,3.916724 -0.477562,1.480923 -1.272253,3.011447 -2.212065,4.260221 -0.205176,0.272644 -0.244077,0.33834 -0.216193,0.365086 0.039,0.03732 4.105409,3.36325 4.11212,3.36325 0.003,0 0.159475,-0.205948 0.349011,-0.457647 z m -24.269426,-4.039139 1.892581,-1.89273 -0.140558,-0.150576 c -0.115466,-0.123741 -0.22819,-0.254678 -0.436098,-0.506644 -0.0089,-0.01109 -0.583625,0.397919 -1.275896,0.90979 -1.006359,0.744099 -1.264849,0.924014 -1.289496,0.897506 -0.01693,-0.01821 -0.347209,-0.456657 -0.733933,-0.974259 -0.386715,-0.517582 -0.714068,-0.955085 -0.72745,-0.97221 -0.01792,-0.02287 0.373489,-0.230001 1.482625,-0.784475 L 18.432649,30.243657 18.3223,29.991314 c -0.06078,-0.138796 -0.153565,-0.374846 -0.206373,-0.52457 -0.07563,-0.214293 -0.104845,-0.269526 -0.137401,-0.259519 -0.02277,0.0069 -1.171328,0.349179 -2.552336,0.760392 -1.381018,0.411243 -2.518008,0.75477 -2.526629,0.763382 -0.0079,0.0079 0.03474,0.162691 0.09641,0.342379 0.538191,1.568732 1.387828,3.095287 2.43296,4.371302 0.259914,0.317345 0.795769,0.917857 0.819466,0.918352 0.0069,1.49e-4 0.864623,-0.851448 1.905539,-1.892443 z m 19.691176,0.519097 c 1.0346,-1.383928 1.820896,-2.963549 2.287353,-4.595157 0.296499,-1.037084 0.466377,-2.04484 0.5324,-3.1584 0.01396,-0.233981 0.02534,-0.45733 0.02534,-0.49633 l 2.38e-4,-0.07087 h -2.678611 -2.678621 l -0.01782,0.290055 c -0.10623,1.726594 -0.712543,3.408021 -1.713003,4.750523 l -0.153714,0.206255 0.05642,0.04375 c 0.03108,0.02396 0.961381,0.786148 2.067468,1.693523 1.106097,0.907375 2.016877,1.650237 2.023964,1.650811 0.0069,5.74e-4 0.118911,-0.140806 0.248502,-0.314138 z M 24.856215,34.577829 c 0.01495,-0.08879 0.212936,-1.245962 0.439651,-2.571845 0.226735,-1.325893 0.415707,-2.44374 0.419973,-2.484086 0.0069,-0.07087 1.39e-4,-0.07582 -0.215064,-0.146517 -0.342844,-0.112566 -0.730232,-0.322206 -0.986929,-0.534153 l -0.07533,-0.06216 -1.902312,1.902183 -1.902311,1.902163 0.157376,0.143142 c 0.425833,0.387328 1.087488,0.857368 1.606248,1.141059 0.621862,0.340082 1.277172,0.597116 1.998158,0.783713 0.44961,0.116426 0.427536,0.11988 0.460468,-0.07355 z m 3.665223,0.07295 c 0.89899,-0.227922 1.757744,-0.600759 2.513424,-1.091249 0.141796,-0.09206 0.261637,-0.170769 0.26628,-0.174946 0.0069,-0.0069 -3.110433,-4.240345 -3.168002,-4.302062 -0.01237,-0.01237 -0.12194,0.0291 -0.252956,0.09681 -0.127473,0.06583 -0.334124,0.153288 -0.45932,0.194387 -0.220231,0.07226 -0.227418,0.07711 -0.219935,0.148101 0.004,0.04029 0.193249,1.158183 0.419974,2.484086 0.226725,1.325883 0.424576,2.483214 0.439661,2.571845 0.02079,0.122088 0.03771,0.161138 0.07038,0.161138 0.02356,0 0.199346,-0.03969 0.390555,-0.0881 z m -4.406482,-6.171887 c -0.02851,-0.0089 -4.305813,3.144384 -4.307417,3.176178 -9.9e-4,0.02346 0.130363,0.185211 0.385002,0.473277 l 0.14237,0.161078 1.901559,-1.901421 c 1.045855,-1.045775 1.891186,-1.904885 1.878486,-1.909112 z m 9.209635,2.901802 c 0.932933,-1.285883 1.458424,-2.775834 1.57772,-4.473355 l 0.01683,-0.238495 h -2.68162 c -2.531965,0 -2.682313,0.003 -2.694141,0.04514 -0.0069,0.02485 -0.02039,0.114625 -0.03019,0.199554 -0.03841,0.335539 -0.249293,0.891874 -0.452321,1.192729 -0.05335,0.07929 -0.07374,0.132154 -0.05919,0.154406 0.0191,0.0293 4.108626,3.384294 4.125107,3.384294 0.003,0 0.09235,-0.118911 0.19789,-0.26426 z M 6.8633417,28.551005 v -1.882159 h -0.206264 -0.206275 l 2.87e-4,0.109527 c 9.9e-4,0.479691 0.07355,1.465294 0.157762,2.159326 0.04355,0.359167 0.08285,0.610886 0.220954,1.411614 0.0079,0.04603 0.01871,0.08374 0.02395,0.08374 0.0049,0 0.0089,-0.846964 0.0089,-1.882158 z m 14.3489813,0.302943 c 2.052996,-1.026117 2.384764,-1.199648 2.378508,-1.244013 -0.004,-0.03316 -0.02494,-0.04999 -0.05721,-0.04712 -0.02742,0.003 -1.189254,0.343665 -2.581784,0.758343 l -2.531846,0.753948 0.0585,0.169858 c 0.104003,0.301924 0.313613,0.80153 0.33641,0.80153 0.0069,0 1.08524,-0.536607 2.397414,-1.192471 z m 4.601482,0.143845 c 0,-0.02227 0.305744,-1.811038 0.31981,-1.87129 0.0049,-0.02484 0.0079,-0.04514 0.0069,-0.04514 -0.003,0 -0.321107,0.317039 -0.708435,0.704545 l -0.704218,0.704564 0.188744,0.130086 c 0.222914,0.153595 0.410055,0.250947 0.639937,0.332887 0.170047,0.06048 0.257826,0.07572 0.257826,0.04434 z m 1.527535,-0.03771 c 0.215272,-0.07364 0.51484,-0.224934 0.504635,-0.254807 -0.01237,-0.03464 -1.012438,-1.388363 -1.020426,-1.380582 -0.004,0.004 0.05711,0.376746 0.135194,0.829216 0.0781,0.45248 0.141944,0.831374 0.142043,0.842015 2.87e-4,0.03237 0.06968,0.02197 0.238554,-0.03593 z m 1.515716,-1.3506 c 0.128294,-0.258865 0.256965,-0.686322 0.256965,-0.853547 v -0.08691 l -1.037758,2.87e-4 -1.037758,2.87e-4 0.07741,0.06206 c 0.04246,0.03425 0.402216,0.328848 0.799274,0.654884 l 0.721907,0.592811 0.04593,-0.05573 c 0.02524,-0.03059 0.103607,-0.171987 0.174045,-0.314139 z m -4.702387,-0.236191 c -0.01604,-0.01604 -0.171442,0.0485 -0.171442,0.07127 0,0.01237 0.04049,0.004 0.08988,-0.02 0.0493,-0.02356 0.08612,-0.04662 0.08146,-0.05127 z M 6.0386497,26.043777 c 5.74e-4,-0.296223 0.04425,-1.034165 0.09146,-1.540542 0.10429,-1.120529 0.329907,-2.356059 0.627901,-3.437687 0.06206,-0.225101 0.105389,-0.438691 0.105389,-0.519235 0,-0.106082 0.0079,-0.136015 0.0386,-0.133253 0.02801,0.003 0.08057,-0.121128 0.190388,-0.44763 0.937881,-2.789137 2.428683,-5.281458 4.4724943,-7.477052 L 11.864875,12.166093 9.9714527,10.272512 8.0780197,8.3789297 7.8100177,8.6610767 C 4.2272097,12.433035 1.8899683,17.090453 1.0358869,22.159916 0.83663034,23.342607 0.67720524,25.084395 0.67566104,26.095338 l -2.375e-4,0.161137 h 2.68143216 2.681421 z m 0.821614,-1.688802 c -0.003,-2.08092 0.004,-2.012175 -0.136431,-1.179553 -0.130363,0.769597 -0.224399,1.722951 -0.26129,2.649192 l -0.01732,0.431861 h 0.209017 0.209006 z M 34.902925,26.005093 C 34.776284,24.143039 34.161023,22.544838 33.029299,21.13857 32.892314,20.968395 32.735393,20.785886 32.680506,20.732979 l -0.09973,-0.09611 -1.886751,1.888087 -1.886762,1.888108 0.115189,0.151051 c 0.06335,0.08305 0.156772,0.22232 0.207621,0.309407 0.05088,0.08701 0.09552,0.161513 0.0991,0.165403 0.004,0.004 0.71182,-0.295143 1.57379,-0.664535 0.861951,-0.369392 1.569584,-0.668445 1.572514,-0.664555 0.01109,0.01455 0.525184,2.094818 0.519275,2.100717 -0.003,0.003 -0.730677,0.104014 -1.616206,0.223478 l -1.610049,0.217322 2.625822,0.003 2.625832,0.003 z m 5.787539,0.167592 c -7e-5,-0.04603 -0.01109,-0.275238 -0.02593,-0.509218 -0.122504,-2.02047 -0.603818,-3.81964 -1.500196,-5.607169 -0.588188,-1.172901 -1.421958,-2.37241 -2.285442,-3.287952 l -0.206691,-0.219162 -1.894838,1.892869 -1.894829,1.892868 0.177154,0.195555 c 0.808261,0.89226 1.466174,2.03311 1.837486,3.186383 0.232436,0.721897 0.373599,1.475944 0.418726,2.236673 l 0.01792,0.302943 h 2.678344 2.678333 z M 46.454929,25.8504 c -0.06909,-1.622403 -0.250185,-2.909711 -0.60852,-4.325086 -0.838372,-3.311719 -2.481175,-6.285136 -4.890349,-8.851439 l -0.201028,-0.214134 -1.892641,1.894146 -1.892661,1.894145 0.298875,0.331055 c 1.436301,1.590955 2.453915,3.326705 3.096337,5.281389 0.423596,1.288922 0.640957,2.450807 0.717512,3.83522 l 0.03108,0.560779 h 2.679383 2.679353 z m 5.786153,0.257816 c -5.84e-4,-0.289304 -0.05266,-1.315431 -0.09097,-1.78547 -0.349862,-4.313584 -1.80976,-8.51293 -4.212787,-12.11799 -0.867306,-1.301127 -1.720853,-2.3701143 -2.830088,-3.5444023 l -0.26718,-0.282859 -1.894145,1.8943043 -1.894146,1.894294 0.30038,0.322285 c 3.412722,3.66162 5.33691,8.291163 5.516191,13.271777 l 0.01782,0.49632 h 2.677512 2.677521 z m -27.17497,-0.741249 c -0.361394,-0.361602 -0.659487,-0.657458 -0.662437,-0.657458 -0.04276,0 -0.446233,0.693281 -0.446233,0.766648 0,0.01722 1.65669,0.533707 1.753042,0.546575 0.0069,8.61e-4 -0.282968,-0.294163 -0.644372,-0.655765 z m 3.751528,-0.190566 c -0.02574,-0.06909 -0.166691,-0.293985 -0.240296,-0.383596 l -0.06919,-0.08434 -0.567223,0.568025 -0.567233,0.568015 0.729736,-0.313327 c 0.591257,-0.253896 0.726787,-0.321226 0.714226,-0.354831 z m -5.180583,-0.01445 c 0.07473,-0.171551 0.279019,-0.504922 0.420597,-0.685916 l 0.05157,-0.06592 -1.889097,-1.888959 -1.889078,-1.888958 -0.15112,0.163018 c -0.532519,0.574528 -1.06772,1.387006 -1.406605,2.135401 -0.141974,0.313515 -0.369342,0.901604 -0.35398,0.915581 0.01871,0.01703 5.113828,1.526525 5.12338,1.517834 0.0049,-0.0049 0.0483,-0.09631 0.09433,-0.202028 z m 3.420681,-1.263632 c 0.0049,-0.06612 -0.004,-0.07869 -0.07077,-0.09364 -0.04246,-0.0089 -0.132432,-0.01861 -0.199811,-0.02029 l -0.122504,-0.003 9.9e-4,0.676809 9.9e-4,0.6768 0.191981,-0.580121 c 0.105528,-0.319058 0.194911,-0.614518 0.198504,-0.656557 z m 1.122786,0.482571 c -0.01604,-0.0193 -0.0488,-0.04563 -0.07315,-0.0587 -0.04712,-0.02514 -0.02871,-0.04929 -0.332203,0.43885 l -0.136154,0.219153 0.285284,-0.282167 c 0.226042,-0.223597 0.279237,-0.289471 0.256183,-0.317266 z m -1.928395,-0.122503 v -0.476989 h -0.11602 c -0.07533,0 -0.116149,0.01109 -0.116564,0.03227 -5.74e-4,0.0389 0.215203,0.921738 0.225418,0.921738 0.004,0 0.0069,-0.214639 0.0069,-0.476989 z m -1.877496,-0.266191 c -0.04068,-0.05217 -0.750246,-1.011349 -1.576809,-2.131621 -0.826584,-1.120271 -1.511371,-2.046315 -1.521765,-2.057896 -0.01999,-0.02227 -0.28272,0.186498 -0.509673,0.405027 l -0.135738,0.130779 1.887444,1.887562 c 1.679249,1.679359 2.104786,2.084197 1.856571,1.766188 z m 7.712478,-3.842852 c -0.227942,-0.215094 -0.90487,-0.731409 -0.942474,-0.718878 -0.01376,0.004 -0.660259,1.017229 -1.437063,2.250491 l -1.412376,2.242256 0.106498,0.09562 0.106497,0.09562 1.890196,-1.887454 1.890206,-1.887435 z M 18.051438,23.62026 c 0.0584,-0.19895 0.23886,-0.646144 0.387407,-0.960738 0.354673,-0.751167 0.897674,-1.563466 1.44024,-2.154476 l 0.155624,-0.169501 -1.895085,-1.893126 -1.895096,-1.893126 -0.206384,0.219162 c -1.317855,1.39938 -2.40557,3.2121 -3.034392,5.056931 l -0.127324,0.37351 2.556127,0.763471 c 1.405863,0.419923 2.562986,0.764381 2.57137,0.765479 0.0079,9.9e-4 0.0298,-0.04731 0.04751,-0.107596 z m 9.254366,-0.438315 c 0.04306,-0.131185 0.386675,-1.189878 0.763728,-2.352683 0.377053,-1.162816 0.712869,-2.197 0.746247,-2.298202 l 0.06068,-0.184003 -0.24865,-0.06622 C 28.101583,18.140733 27.509772,18.04639 26.960327,18.015012 l -0.295708,-0.01683 v 2.685362 2.685361 l 0.14825,0.003 c 0.08147,9.9e-4 0.183053,0.01237 0.225606,0.02277 0.181608,0.04623 0.182717,0.04543 0.267299,-0.212718 z m -1.053675,-2.496697 v -2.679224 l -0.148249,2.77e-4 c -0.298519,5.74e-4 -1.39936,0.145666 -1.479151,0.194991 -0.01396,0.0079 1.250931,5.121439 1.277905,5.165408 0.0049,0.0079 0.08582,0.01109 0.17937,0.0069 l 0.170125,-0.0079 z m -13.667934,1.065563 c 0.663466,-1.92782 1.676547,-3.642199 3.043023,-5.149591 l 0.319979,-0.35295 -1.89273,-1.894403 -1.89274,-1.894403 -0.201583,0.214322 c -1.89955,2.019481 -3.3100843,4.278979 -4.2559843,6.817606 -0.211571,0.567826 -0.364967,1.035936 -0.345754,1.055149 0.0089,0.0089 5.0497843,1.522586 5.0998313,1.530722 0.0069,9.9e-4 0.06375,-0.145755 0.125948,-0.326452 z m 8.322651,-2.218103 0.107735,-0.08443 -1.57481,-2.132769 c -0.866128,-1.17302 -1.583284,-2.142379 -1.593677,-2.154149 -0.03365,-0.03811 -1.288437,1.019545 -1.288437,1.085964 0,0.0089 0.848795,0.867048 1.886226,1.904529 l 1.886227,1.886365 0.234426,-0.210591 c 0.128977,-0.115871 0.282938,-0.248551 0.34224,-0.294955 z m 15.452206,-3.28522 c 0,-0.03385 -0.628098,-0.591663 -1.021237,-0.906979 -0.329293,-0.264102 -1.050596,-0.788157 -1.112778,-0.808459 -0.01435,-0.004 -1.666282,2.603818 -2.756185,4.352228 l -0.107458,0.172352 0.194366,0.135738 c 0.269249,0.187982 0.665733,0.506446 0.861773,0.692162 l 0.164275,0.155634 1.888613,-1.887177 c 1.038727,-1.037936 1.888602,-1.895403 1.888602,-1.905489 z m -7.235786,1.339563 c 0.06513,-0.202068 0.437117,-1.347472 0.826652,-2.545328 0.389546,-1.197866 0.705486,-2.180697 0.702091,-2.184092 -0.0198,-0.0198 -0.709178,-0.203067 -1.051468,-0.279583 -0.889349,-0.198811 -2.065983,-0.346031 -2.774745,-0.34716 l -0.161147,-2.47e-4 v 2.681432 2.681412 h 0.177747 c 0.428991,0 1.277569,0.125809 1.807534,0.267833 0.177272,0.04761 0.329639,0.0878 0.338617,0.08978 0.0089,9.9e-4 0.06959,-0.161959 0.134778,-0.364046 z m -4.327878,0.150724 c 0.35014,-0.06711 0.784357,-0.119742 1.128003,-0.136292 l 0.328738,-0.01584 V 14.908202 12.23076 l -0.161157,2.47e-4 c -0.389792,5.74e-4 -1.156411,0.06899 -1.759684,0.15701 -0.324879,0.04731 -1.096882,0.196218 -1.115768,0.215084 -0.004,0.004 0.284433,1.175416 0.641294,2.602818 0.550356,2.201345 0.655171,2.593474 0.690568,2.583417 0.02286,-0.0069 0.1345,-0.02969 0.248006,-0.05137 z m -8.255172,-2.056837 c 0.27492,-0.250303 0.804539,-0.698735 0.961994,-0.814497 0.06137,-0.04514 0.06909,-0.06236 0.04543,-0.101064 -0.05662,-0.09255 -3.135376,-4.249462 -3.151758,-4.255411 -0.04336,-0.01574 -1.028097,0.807183 -1.609366,1.34473 l -0.332292,0.307309 1.890542,1.890681 c 1.039807,1.039886 1.894314,1.8907 1.898907,1.8907 0.004,0 0.138054,-0.118089 0.296558,-0.262448 z M 38.571474,14.05324 40.461492,12.163103 40.182849,11.904288 C 39.300666,11.08491 38.531217,10.47065 37.617062,9.8559237 34.488456,7.7521077 30.960248,6.6121387 27.122296,6.4650767 l -0.457647,-0.01752 v 2.685302 2.6852823 l 0.225606,6.9e-5 c 0.954423,2.68e-4 2.501488,0.238039 3.577374,0.549822 0.170175,0.04929 0.315772,0.07939 0.323542,0.06691 0.0079,-0.01237 0.215847,-0.64361 0.462359,-1.402349 l 0.448223,-1.3795233 0.104835,0.06048 c 0.05761,0.03346 0.969241,0.5396163 2.025697,1.1250823 1.056456,0.585476 1.935541,1.077886 1.953526,1.094278 0.02574,0.02346 -0.110903,0.25838 -0.651014,1.117649 -0.376053,0.598314 -0.683718,1.097396 -0.683718,1.109026 0,0.01109 0.116297,0.09982 0.25841,0.195971 0.545615,0.369085 1.113669,0.821159 1.649534,1.312747 0.163068,0.149606 0.302329,0.272694 0.309456,0.273535 0.0069,8.52e-4 0.863465,-0.849053 1.902965,-1.888632 z M 23.815636,12.052399 c 0.720798,-0.132432 1.679061,-0.233941 2.210897,-0.234189 l 0.225596,-8.9e-5 V 9.1329177 6.4477147 l -0.470554,0.01811 c -0.930527,0.03593 -1.825559,0.126919 -2.687866,0.273565 -0.517681,0.088 -1.206418,0.23007 -1.251882,0.258172 -0.02435,0.01505 0.120287,0.62996 0.591752,2.51687 0.343111,1.3733863 0.634939,2.5390323 0.648509,2.5903363 l 0.02475,0.09334 0.14818,-0.03484 c 0.08156,-0.0191 0.333817,-0.06899 0.56069,-0.110764 z M 12.895374,11.197773 c 0.204978,-0.184547 0.566599,-0.488847 0.803638,-0.676225 0.23701,-0.187359 0.431871,-0.349952 0.43303,-0.361295 9.89e-4,-0.01475 -1.742679,-2.3973853 -1.989458,-2.7176803 -0.01772,-0.02277 1.127744,-0.606956 4.309763,-2.19799 2.383546,-1.191788 4.342527,-2.166898 4.353287,-2.166898 0.01109,0 0.215529,0.786059 0.455053,1.746806 0.239534,0.960728 0.439592,1.751627 0.444581,1.757547 0.0049,0.0049 0.145409,-0.02029 0.31202,-0.0583 1.142563,-0.260736 2.484689,-0.430495 3.734255,-0.472346 l 0.500586,-0.01663 V 3.3535357 0.67231173 l -0.547901,0.01782 C 19.267012,0.89812873 13.352357,3.3673277 8.6690937,7.8018217 l -0.295529,0.27986 1.8927503,1.892888 1.892769,1.8928883 0.181806,-0.166908 c 0.100024,-0.09176 0.349506,-0.31791 0.554484,-0.502467 z M 44.246932,7.8000467 C 42.701688,6.3327937 40.969274,5.0450787 39.169382,4.0258707 35.503942,1.9502957 31.484699,0.82894573 27.21254,0.68993073 l -0.547891,-0.01782 v 2.68531197 2.685302 l 0.251382,1.19e-4 c 0.887885,2.87e-4 2.434237,0.167166 3.487149,0.376014 3.78253,0.750315 7.165785,2.485887 10.016679,5.1384453 l 0.335173,0.311852 1.894125,-1.8938783 1.894096,-1.893869 z"
       id="path22" />
  </g>
</svg>
