<?xml version="1.0" encoding="UTF-8" standalone="no"?>
<!-- Created with Inkscape (http://www.inkscape.org/) -->

<svg
   width="200"
   height="200"
   viewBox="0 0 52.916665 52.916666"
   version="1.1"
   id="svg1"
   inkscape:export-filename="react.svg"
   inkscape:export-xdpi="96"
   inkscape:export-ydpi="96"
   xmlns:inkscape="http://www.inkscape.org/namespaces/inkscape"
   xmlns:sodipodi="http://sodipodi.sourceforge.net/DTD/sodipodi-0.dtd"
   xmlns="http://www.w3.org/2000/svg"
   xmlns:svg="http://www.w3.org/2000/svg">
  <sodipodi:namedview
     id="namedview1"
     pagecolor="#ffffff"
     bordercolor="#cccccc"
     borderopacity="1"
     inkscape:showpageshadow="0"
     inkscape:pageopacity="1"
     inkscape:pagecheckerboard="0"
     inkscape:deskcolor="#d1d1d1"
     inkscape:document-units="mm"
     inkscape:zoom="3.76"
     inkscape:cx="99.867021"
     inkscape:cy="100"
     inkscape:window-width="1712"
     inkscape:window-height="971"
     inkscape:window-x="0"
     inkscape:window-y="39"
     inkscape:window-maximized="1"
     inkscape:current-layer="layer1">
    <inkscape:page
       x="0"
       y="0"
       width="52.916664"
       height="52.916664"
       id="page2"
       margin="0"
       bleed="0" />
  </sodipodi:namedview>
  <defs
     id="defs1" />
  <g
     inkscape:label="Layer 1"
     inkscape:groupmode="layer"
     id="layer1">
    <path
      
       d="M 28.328824,46.849264 V 41.04636 l 1.283124,-0.639933 c 0.705728,-0.351949 1.269483,-0.661991 1.252812,-0.688958 -0.01663,-0.02693 -0.004,-0.03336 0.02623,-0.01416 0.07445,0.04594 1.659783,-0.745713 1.62051,-0.80926 -0.01663,-0.02693 -0.005,-0.03336 0.02614,-0.01406 0.07445,0.04594 1.659773,-0.745713 1.6205,-0.80926 -0.01663,-0.02693 -0.005,-0.03336 0.02614,-0.01406 0.07445,0.04594 1.659773,-0.745713 1.62049,-0.80926 -0.01663,-0.02693 -0.004,-0.03336 0.02614,-0.01406 0.07445,0.04594 1.659772,-0.745713 1.62049,-0.80926 -0.01663,-0.02693 -0.005,-0.03336 0.02594,-0.01425 0.06059,0.03742 0.84098,-0.326872 0.809449,-0.377876 -0.01079,-0.01693 0.0199,-0.03386 0.06742,-0.03792 0.04752,-0.004 0.124501,-0.01475 0.171208,-0.02396 0.07841,-0.01544 0.08652,0.424989 0.106136,5.754256 0.0202,5.502682 0.01188,5.939412 -0.113927,5.915791 -0.01416,-0.002 -2.289084,1.123946 -5.055419,2.503554 -2.766324,1.379618 -5.053072,2.508395 -5.081643,2.508395 -0.03465,0 -0.05197,-1.931097 -0.05197,-5.802904 z m -4.008246,5.468429 c -0.20657,-0.127361 -0.385331,-0.231577 -0.39723,-0.231577 -0.01188,0 -0.147161,-0.08336 -0.300568,-0.185186 -0.163664,-0.10868 -0.304845,-0.169177 -0.341653,-0.146428 -0.03811,0.02346 -0.0495,0.01732 -0.02901,-0.01584 0.0198,-0.03218 -0.373362,-0.298549 -0.956916,-0.648408 -0.544826,-0.326635 -1.218647,-0.734052 -1.497347,-0.905378 -0.278719,-0.171326 -0.531234,-0.296371 -0.561151,-0.277888 -0.03118,0.0193 -0.0393,0.0089 -0.01901,-0.02356 0.04376,-0.07078 -0.256376,-0.234665 -0.337683,-0.184404 -0.03336,0.02059 -0.04376,0.01277 -0.02445,-0.01841 0.0295,-0.04782 -0.406654,-0.373411 -0.500237,-0.373411 -0.0199,0 -0.08652,-0.04683 -0.148072,-0.104185 -0.06148,-0.05732 -0.146675,-0.09078 -0.189254,-0.07445 -0.04267,0.01633 -0.06049,0.01277 -0.0397,-0.0079 0.02079,-0.02079 -0.165208,-0.168564 -0.413247,-0.328485 -0.24804,-0.159922 -0.571715,-0.422415 -0.719271,-0.583337 -0.322061,-0.351216 -0.868174,-1.168514 -1.197927,-1.792806 -0.131955,-0.249812 -0.256712,-0.437404 -0.277244,-0.416872 -0.02059,0.02059 -0.02059,-0.0069 -1.29e-4,-0.0596 0.02792,-0.07257 0.0201,-0.08633 -0.03099,-0.05484 -0.04455,0.02762 -0.05583,0.02217 -0.03257,-0.01535 0.05098,-0.08247 -0.215489,-0.588168 -0.286698,-0.544153 -0.03495,0.02148 -0.04316,0.01237 -0.02099,-0.02346 0.0201,-0.03257 -0.01881,-0.169247 -0.08643,-0.303845 -0.211163,-0.420237 -1.063973,-2.062022 -1.490368,-2.869173 -0.22428,-0.424544 -0.651952,-1.246614 -0.950392,-1.826823 -0.298439,-0.580208 -0.640597,-1.240179 -0.760345,-1.466607 -0.232051,-0.4388 -0.92392,-1.769582 -1.578485,-3.036124 -0.21939,-0.424534 -0.424821,-0.765533 -0.4565,-0.757752 -0.03168,0.0079 -0.04336,-0.0089 -0.02604,-0.03693 0.01732,-0.02812 -0.01129,-0.138657 -0.06356,-0.245713 C 10.454188,34.486764 9.5005786,32.650171 9.0432172,31.785323 8.8336877,31.389073 8.5427124,30.833318 8.396611,30.550282 L 8.1309891,30.03568 8.1179213,36.918426 c -0.00792,4.073169 -0.032174,6.882745 -0.059696,6.882745 -0.02564,0 -0.2050449,-0.089 -0.3986259,-0.197838 C 7.4660187,43.494525 7.1108035,43.300795 6.8702282,43.17281 6.2124054,42.822872 3.607052,41.425325 3.153502,41.179117 2.9335678,41.059725 2.7288298,40.980032 2.6952793,41.000762 c -0.033362,0.02059 -0.047024,0.01544 -0.030491,-0.01139 0.016533,-0.02683 -0.1417158,-0.140439 -0.3518394,-0.252386 L 1.9309346,40.533461 1.9305782,27.218253 c -1.98e-4,-7.323367 0.013068,-13.315218 0.0296,-13.315218 0.016533,0 0.6823149,0.332871 1.4794676,0.739724 0.7971626,0.406833 2.0746245,1.058151 2.8388009,1.447333 1.628232,0.829247 2.0429352,1.063497 2.1710289,1.226339 0.051677,0.06574 0.3128043,0.573644 0.5801092,1.128539 0.2673048,0.554874 0.5041875,0.997634 0.5264225,0.983893 0.022275,-0.01376 0.028511,0.0069 0.013761,0.04445 -0.024552,0.06415 0.1377856,0.425424 0.9598657,2.135805 0.166664,0.346731 0.303024,0.638934 0.303024,0.649329 0,0.01079 0.136488,0.305637 0.30332,0.65608 0.166832,0.350434 0.394507,0.83398 0.50596,1.074556 0.718152,1.550261 0.799063,1.699758 0.884073,1.633469 0.07247,-0.05653 0.07385,-0.05356 0.01178,0.02564 -0.06049,0.07702 -0.05395,0.123728 0.04594,0.334485 0.06395,0.134707 0.311824,0.661753 0.550924,1.171197 0.410624,0.874886 0.812151,1.722667 1.145507,2.418614 0.08138,0.169811 0.216054,0.459272 0.299361,0.64324 0.144715,0.319596 0.306241,0.664178 0.820179,1.749643 0.127312,0.268869 0.318408,0.674118 0.424673,0.900547 0.106244,0.226418 0.565715,1.20543 1.021027,2.175582 0.455312,0.970162 0.851166,1.803816 0.879687,1.852562 0.03495,0.0598 0.05207,-2.335148 0.05257,-7.368064 3.57e-4,-4.101185 0.0089,-7.465181 0.0196,-7.475566 0.01079,-0.01079 1.573427,0.763147 3.473428,1.718934 l 3.45456,1.737803 7.12e-4,13.521045 c 3.57e-4,7.436581 -0.0069,13.521055 -0.01435,13.521055 -0.0089,0 -0.184256,-0.104195 -0.390825,-0.231566 z m 17.850688,-6.689769 c -1.19e-4,-0.07078 -3.56e-4,-2.6808 -3.56e-4,-5.800092 l -1.88e-4,-5.671444 0.360105,-0.186968 c 0.198046,-0.10278 0.342999,-0.205857 0.322081,-0.228943 -0.02089,-0.02317 -0.01079,-0.02633 0.02257,-0.0079 0.07435,0.04247 1.207926,-0.530016 1.170198,-0.591039 -0.01485,-0.02406 0.003,-0.03188 0.04039,-0.01772 0.06455,0.02475 1.99502,-0.923752 2.047915,-1.006247 0.01416,-0.02208 0.04079,-0.03653 0.0591,-0.03208 0.01841,0.004 0.220241,-0.08326 0.448669,-0.194551 0.351869,-0.171544 0.405744,-0.214232 0.352612,-0.279274 -0.05356,-0.06554 -0.04811,-0.06871 0.03722,-0.02148 0.08039,0.04445 0.17289,0.01911 0.472973,-0.129321 0.205204,-0.101483 0.359274,-0.206936 0.342405,-0.23422 -0.01683,-0.02722 -0.005,-0.03386 0.02584,-0.01475 0.07445,0.04594 1.762661,-0.797232 1.723389,-0.860779 -0.01663,-0.02693 -0.004,-0.03277 0.02772,-0.01307 0.03188,0.0197 0.333366,-0.104086 0.669891,-0.275066 0.336514,-0.171029 0.63239,-0.310953 0.657486,-0.310953 0.02643,0 0.04029,2.451906 0.03277,5.802082 -0.0079,3.191155 -0.01287,5.816654 -0.01287,5.834454 -1e-5,0.01782 -0.0692,0.06098 -0.153754,0.09603 -0.08454,0.03505 -0.141231,0.08385 -0.125966,0.108582 0.01525,0.02465 -0.01198,0.0296 -0.06059,0.01099 -0.06475,-0.02475 -0.07702,-0.01564 -0.04623,0.03425 0.02762,0.04455 0.02218,0.05584 -0.01554,0.03257 -0.0593,-0.03673 -2.026809,0.918683 -1.982784,0.962698 0.01356,0.01356 -0.0069,0.02198 -0.04326,0.01881 -0.08959,-0.0079 -0.817507,0.355463 -0.78266,0.39031 0.01485,0.01485 -0.003,0.02445 -0.04069,0.02128 -0.08959,-0.0079 -0.817517,0.355453 -0.782659,0.39031 0.01485,0.01495 -0.003,0.02396 -0.04069,0.02 -0.08692,-0.0089 -1.640309,0.769067 -1.605274,0.804103 0.01445,0.01455 -0.004,0.02326 -0.04148,0.0197 -0.08425,-0.0089 -1.746505,0.816814 -1.713044,0.850275 0.01346,0.01346 -0.004,0.02435 -0.03999,0.02445 -0.03534,6.9e-5 -0.327268,0.131301 -0.648636,0.291599 -0.321368,0.160308 -0.605037,0.29147 -0.63037,0.29147 -0.02534,0 -0.04623,-0.05791 -0.04633,-0.128648 z M 28.328824,31.255921 v -5.752494 l 0.56318,-0.277878 c 0.309746,-0.152823 0.549311,-0.300291 0.532373,-0.327713 -0.01703,-0.02752 -0.004,-0.03336 0.02881,-0.01297 0.0592,0.03653 0.565062,-0.204342 0.63739,-0.303548 0.02079,-0.02841 0.03821,-0.03287 0.03861,-0.0099 3.66e-4,0.02317 0.156338,-0.04059 0.346464,-0.141498 0.190125,-0.100948 0.376737,-0.183552 0.414713,-0.183552 0.03802,0 0.05633,-0.02059 0.04079,-0.04564 -0.01554,-0.02515 3.56e-4,-0.04267 0.03544,-0.03891 0.05574,0.005 1.103215,-0.509276 6.435294,-3.164386 0.617441,-0.307448 1.14426,-0.559012 1.170702,-0.559012 0.0295,0 0.04801,2.225913 0.04801,5.765116 0,5.444986 -0.0049,5.766749 -0.08999,5.794716 -0.206134,0.06781 -7.43171,3.659832 -7.474536,3.715816 -0.01416,0.01851 -0.04891,0.03366 -0.07712,0.03366 -0.02831,0 -0.624114,0.283679 -1.324021,0.630391 -0.699897,0.346701 -1.284609,0.63038 -1.29935,0.63038 -0.01475,0 -0.02683,-2.588633 -0.02683,-5.752504 z m 13.822969,-1.214608 c -0.01703,-0.06762 -0.03079,-2.616738 -0.03079,-5.664702 2e-5,-3.047955 -0.0099,-5.558359 -0.02287,-5.578673 -0.01257,-0.0203 -0.0069,-0.06326 0.01346,-0.09553 0.0199,-0.03227 0.834663,-0.45657 1.810557,-0.942977 0.975894,-0.486408 1.785916,-0.902497 1.800073,-0.924633 0.01416,-0.02218 0.03732,-0.03722 0.05148,-0.03356 0.05633,0.01465 0.360214,-0.134796 0.360214,-0.177108 0,-0.02485 0.02029,-0.0394 0.04534,-0.03237 0.08306,0.02356 1.595671,-0.752406 1.564606,-0.802657 -0.01673,-0.02713 -0.005,-0.03416 0.02435,-0.01544 0.0302,0.01871 0.502713,-0.187839 1.050014,-0.458916 0.547301,-0.271076 1.249821,-0.619075 1.561141,-0.773353 l 0.566061,-0.280492 0.01307,5.716677 c 0.01148,5.031965 0.004,5.725952 -0.06425,5.794093 -0.04267,0.04267 -0.07751,0.06375 -0.07751,0.04683 0,-0.01673 -0.549975,0.250019 -1.222172,0.592899 -0.672187,0.342871 -1.921049,0.977934 -2.775244,1.411248 -0.854195,0.433325 -1.537332,0.8054 -1.518057,0.826833 0.01921,0.02138 0.01089,0.02534 -0.01861,0.0089 -0.07425,-0.04208 -1.425711,0.652051 -1.375994,0.706688 0.02208,0.02425 0.01109,0.02732 -0.02455,0.0069 -0.03762,-0.02178 -0.399131,0.136201 -0.864511,0.377707 -0.439849,0.22824 -0.807646,0.41499 -0.817319,0.41499 -0.0099,0 -0.03148,-0.05524 -0.04851,-0.122945 z m -17.6578,-8.632725 c -2.935661,-1.479933 -2.958114,-1.490724 -3.019542,-1.452758 -0.03148,0.0194 -0.04386,0.01376 -0.02762,-0.01267 0.02871,-0.04633 -0.219509,-0.181236 -1.531779,-0.832792 -0.339632,-0.168643 -1.041945,-0.522077 -1.560685,-0.785431 l -0.943175,-0.478825 0.119817,-0.09217 c 0.06593,-0.05079 0.150131,-0.09276 0.187176,-0.09335 0.03772,-7.13e-4 0.05118,-0.02723 0.03059,-0.06059 -0.02237,-0.03623 -0.01416,-0.04544 0.02099,-0.02366 0.07326,0.04524 0.58893,-0.245317 0.537025,-0.302548 -0.02119,-0.02336 -0.01238,-0.02752 0.0198,-0.0099 0.03217,0.01831 0.356264,-0.120856 0.720439,-0.30928 1.019829,-0.527679 1.25692,-0.665089 1.216825,-0.705183 -0.02039,-0.02039 0.0069,-0.0202 0.05989,1.98e-4 0.07257,0.02792 0.08633,0.0201 0.05475,-0.03099 -0.02752,-0.04445 -0.02218,-0.05583 0.01525,-0.03267 0.08801,0.05445 1.112442,-0.492585 1.050677,-0.560943 -0.02039,-0.02257 -0.01237,-0.02693 0.01822,-0.0099 0.05841,0.03317 1.542529,-0.700154 1.713994,-0.846968 0.05514,-0.04712 0.110967,-0.07514 0.124094,-0.06197 0.01307,0.01307 0.286303,-0.119392 0.607096,-0.29447 0.320784,-0.175068 0.653576,-0.350453 0.739526,-0.389766 0.08603,-0.0393 0.387855,-0.19557 0.670871,-0.347265 0.283035,-0.151705 0.730121,-0.386568 0.993515,-0.521918 l 0.478923,-0.24609 1.347899,0.681434 c 3.066566,1.550301 3.667277,1.849998 3.740793,1.866293 0.04237,0.0099 0.08969,0.03386 0.105047,0.05435 0.01534,0.02049 0.906892,0.479883 1.98121,1.020938 1.074308,0.541044 1.970359,0.999881 1.991208,1.019611 0.02089,0.0198 -1.210133,0.664317 -2.735526,1.432394 -1.525402,0.768077 -2.762453,1.407506 -2.748999,1.42097 0.01346,0.01346 -0.0069,0.02128 -0.04326,0.01742 -0.105809,-0.01099 -1.636013,0.772879 -1.595839,0.817497 0.0197,0.02188 0.01148,0.02594 -0.01802,0.0089 -0.07049,-0.0399 -1.324575,0.599661 -1.274284,0.649942 0.02118,0.02119 -0.005,0.02178 -0.05841,9.9e-4 -0.07257,-0.02792 -0.08633,-0.0201 -0.05475,0.03099 0.02792,0.04514 0.02218,0.05584 -0.01673,0.03178 -0.07959,-0.0492 -0.42787,0.120778 -0.386063,0.188443 0.0196,0.03168 0.0089,0.03841 -0.02732,0.01633 -0.03336,-0.02059 -0.167178,0.02218 -0.29747,0.09504 -0.130281,0.07286 -0.240248,0.13241 -0.244357,0.13241 -0.004,0 -0.886934,-0.443363 -1.961855,-0.985259 z M 10.868485,14.567728 C 9.5155769,13.889225 8.3830977,13.349883 8.3518638,13.369187 c -0.031283,0.01931 -0.042767,0.01247 -0.02564,-0.01525 0.039599,-0.06405 -0.4144953,-0.288015 -0.4896843,-0.241556 -0.030788,0.01901 -0.041678,0.01129 -0.024057,-0.01722 0.036332,-0.0588 -0.2059557,-0.185859 -0.2741555,-0.143706 -0.024452,0.01505 -0.063161,-0.004 -0.086227,-0.04386 -0.049697,-0.08484 -0.3758959,-0.25987 -0.3770245,-0.202352 -3.564e-4,0.02198 -0.01782,0.01416 -0.038609,-0.01723 -0.045143,-0.06811 -0.3723022,-0.241971 -0.3723022,-0.197798 0,0.01683 -0.037718,-0.0069 -0.083851,-0.05316 -0.046133,-0.04613 -0.1206688,-0.06969 -0.1656734,-0.05237 -0.045044,0.01732 -0.06524,0.01475 -0.044945,-0.0049 0.046628,-0.04663 -0.4647368,-0.342662 -0.5262444,-0.304647 -0.024947,0.01544 -0.053162,0.0069 -0.062666,-0.0197 -0.0099,-0.02633 -0.3398704,-0.207965 -0.7341602,-0.403704 L 4.3297284,11.2958 8.8643771,9.0390192 C 11.358427,7.7977807 13.385275,6.7599933 13.368475,6.7328084 c -0.01673,-0.027126 -0.005,-0.033758 0.02564,-0.014751 0.03099,0.019107 0.185147,-0.028511 0.342771,-0.1058092 l 0.2866,-0.1405674 0.324347,0.1599413 c 0.258801,0.1276284 0.344504,0.1487744 0.424198,0.1047401 0.08494,-0.047024 0.09068,-0.043955 0.03772,0.02079 -0.05277,0.064745 0.326783,0.2720072 2.547261,1.3909335 4.83785,2.4378483 5.41393,2.7327343 5.41393,2.7713833 0,0.02119 -0.0691,0.06722 -0.153734,0.102245 -0.08454,0.03505 -0.138864,0.08771 -0.120698,0.117115 0.01841,0.0298 0.0089,0.03821 -0.02287,0.01891 -0.07553,-0.04663 -0.426949,0.125242 -0.387281,0.189433 0.01732,0.02802 0.0069,0.03534 -0.02445,0.01633 -0.05554,-0.03425 -0.741763,0.310597 -0.7747,0.38935 -0.0099,0.02247 -0.0592,0.04099 -0.110621,0.04099 -0.05138,0 -0.211568,0.0795 -0.355918,0.176633 -0.144369,0.09712 -0.262483,0.164505 -0.262483,0.149705 0,-0.01485 -0.191037,0.07623 -0.424534,0.202481 -0.233507,0.126173 -0.930661,0.490218 -1.549231,0.809012 -0.61858,0.318774 -1.243823,0.644696 -1.389419,0.724251 -0.145597,0.07949 -0.593276,0.312646 -0.994823,0.517978 -0.401566,0.205322 -0.71639,0.395517 -0.699629,0.422642 0.01683,0.02742 0.003,0.03257 -0.03039,0.01168 -0.06267,-0.03871 -0.722824,0.295807 -0.79048,0.400566 -0.02079,0.03218 -0.03821,0.04059 -0.03861,0.01861 -3.56e-4,-0.02198 -0.265988,0.09965 -0.590148,0.270166 -0.324149,0.170524 -0.619391,0.308775 -0.6561,0.307231 -0.03663,-9.9e-4 -1.173682,-0.557954 -2.52658,-1.236457 z m 29.000283,0.897151 c -0.124263,-0.06128 -0.18477,-0.06772 -0.235853,-0.02534 -0.05197,0.04306 -0.0687,0.03881 -0.0687,-0.01713 0,-0.04079 0.02505,-0.05979 0.05574,-0.04237 0.03059,0.01742 0.04326,0.01752 0.02811,1.49e-4 -0.07732,-0.0884 -3.311675,-1.676741 -3.357165,-1.648636 -0.0292,0.01812 -0.0394,0.01079 -0.02247,-0.01673 0.04019,-0.06514 -0.723043,-0.442185 -0.802637,-0.396547 -0.03366,0.0193 -0.04406,0.01614 -0.02317,-0.0069 0.05158,-0.05702 -0.719469,-0.451887 -0.793242,-0.406288 -0.03218,0.0198 -0.04524,0.01475 -0.02901,-0.01148 0.03188,-0.05158 -2.563398,-1.388003 -2.673048,-1.376401 -0.03663,0.004 -0.05653,-0.0099 -0.04395,-0.0298 0.01257,-0.0202 -0.233081,-0.159011 -0.545767,-0.30837 -0.312676,-0.149348 -0.548935,-0.289747 -0.525036,-0.311982 0.02396,-0.02227 0.251168,-0.14824 0.505038,-0.279977 0.253851,-0.131737 0.473835,-0.255831 0.488863,-0.275769 0.01505,-0.0199 0.06168,-0.04386 0.103542,-0.05316 0.185414,-0.04089 1.845909,-0.9572625 1.817626,-1.0030195 -0.01742,-0.028214 -0.005,-0.034946 0.02673,-0.014949 0.07316,0.045242 0.638182,-0.2472577 0.587019,-0.3038153 -0.02069,-0.022869 -0.0099,-0.025839 0.02327,-0.00693 0.03346,0.019107 0.311319,-0.1008395 0.617511,-0.2667207 0.306181,-0.1658714 0.846166,-0.4529561 1.199946,-0.6379836 1.560775,-0.8162593 2.241119,-1.1874824 2.276313,-1.2420502 0.02079,-0.032273 0.03821,-0.039302 0.03861,-0.015543 3.56e-4,0.023561 0.107868,-0.01683 0.238833,-0.089989 0.130925,-0.07316 0.261454,-0.1330436 0.290044,-0.1330436 0.02861,0 0.483032,0.2174593 1.00986,0.4832395 0.526809,0.2657704 2.625143,1.3212191 4.662951,2.3454339 2.037807,1.0242255 3.722101,1.8785695 3.742881,1.8985565 0.02079,0.02 -1.270205,0.693255 -2.868877,1.496169 -1.598671,0.802914 -2.906674,1.480834 -2.906674,1.506474 0,0.02564 -0.02138,0.03336 -0.04772,0.01723 -0.04306,-0.02663 -1.53744,0.710183 -1.599007,0.788352 -0.01416,0.01792 -0.06049,0.04039 -0.102889,0.0498 -0.04237,0.0099 -0.250743,0.102027 -0.462866,0.205837 -0.212103,0.10375 -0.397368,0.193937 -0.411674,0.200322 -0.01425,0.0069 -0.101265,-0.02544 -0.193155,-0.07078 z M 25.318419,8.1345031 C 24.554253,7.7410152 23.877056,7.3965216 23.813529,7.3689902 23.750071,7.3413697 23.391094,7.1638463 23.015911,6.9743243 22.640728,6.7848121 22.148509,6.5383365 21.922081,6.426627 21.695662,6.3149076 21.420418,6.1786169 21.310431,6.1237522 c -0.109977,-0.054845 -0.231279,-0.087712 -0.269542,-0.073061 -0.03831,0.014751 -0.06405,-9.9e-4 -0.05732,-0.035837 0.01525,-0.078011 -1.709421,-0.9627171 -1.813002,-0.9300081 -0.04158,0.013068 -0.05801,0.00693 -0.03633,-0.015345 0.02168,-0.02168 -0.19467,-0.1559814 -0.480626,-0.2986179 -0.285936,-0.1426266 -0.524323,-0.2802835 -0.529719,-0.3059042 -0.0049,-0.02564 0.414129,-0.2577911 0.932285,-0.5159188 0.522978,-0.2605235 0.923613,-0.4895853 0.900547,-0.5148596 -0.02317,-0.025343 -0.01436,-0.029996 0.0196,-0.010791 0.07316,0.041975 0.741843,-0.2770066 0.705164,-0.3363362 -0.01406,-0.022572 0.01426,-0.025937 0.06286,-0.00792 0.06465,0.024749 0.07702,0.015741 0.04623,-0.034253 -0.02713,-0.044054 -0.02218,-0.055835 0.01416,-0.033362 0.07474,0.046232 0.837128,-0.333089 0.797717,-0.3968636 -0.01693,-0.027224 -0.005,-0.033857 0.02584,-0.014751 0.06801,0.041975 1.558686,-0.6913336 1.522908,-0.7492277 -0.01376,-0.022274 0.01475,-0.025244 0.06326,-0.00693 0.06455,0.024749 0.07702,0.015543 0.04623,-0.034253 -0.02722,-0.044153 -0.02218,-0.055835 0.01435,-0.033164 0.07445,0.045935 1.659773,-0.7457232 1.6205,-0.80927007 -0.01663,-0.0269275 -0.0049,-0.0333624 0.02594,-0.0141567 0.06861,0.0422722 0.73612,-0.27859062 0.700243,-0.33664312 -0.01406,-0.0226706 0.01416,-0.0259375 0.06286,-0.00792 0.06465,0.0247495 0.07702,0.0155427 0.04623,-0.0342534 -0.02752,-0.0444501 -0.02218,-0.0558349 0.01525,-0.0326694 0.03158,0.0195026 0.19657,-0.0348473 0.366699,-0.12069851 0.170148,-0.0859304 0.335405,-0.15614974 0.367253,-0.15614974 0.03178,0 0.404585,0.1740783 0.828307,0.38683517 0.423712,0.21276677 0.797757,0.37114397 0.831238,0.35196807 0.03346,-0.0191066 0.04296,-0.0151467 0.02109,0.00891 -0.03287,0.036233 0.85079,0.5168295 1.017473,0.5533202 0.02821,0.00693 0.06306,0.025344 0.07712,0.042569 0.0596,0.072467 5.29149,2.6620497 5.320258,2.6332808 0.01732,-0.017325 0.03158,-0.00792 0.03158,0.022275 0,0.054548 0.303657,0.2034115 0.371233,0.1820477 0.0202,-0.00693 0.02435,0.020691 0.0089,0.060191 -0.01515,0.0395 -0.159041,0.1391815 -0.319774,0.2215875 -0.160724,0.082465 -0.500644,0.2613749 -0.755376,0.3977052 -0.576139,0.3083791 -1.001098,0.5338969 -1.839682,0.9762799 -0.360858,0.1903734 -0.6561,0.3714014 -0.6561,0.4022888 0,0.030986 -0.01495,0.041183 -0.03316,0.022968 -0.02802,-0.028016 -0.915337,0.4102681 -1.073189,0.5300558 -0.02821,0.021483 -0.311983,0.1710489 -0.630381,0.3323763 -0.318418,0.1613372 -0.578931,0.3161406 -0.578931,0.3440185 0,0.027917 -0.01792,0.039599 -0.0398,0.026037 -0.06177,-0.038213 -0.840583,0.4069813 -0.796698,0.4553319 0.02138,0.023562 0.01079,0.02673 -0.02366,0.00693 -0.07761,-0.044549 -1.176573,0.5352532 -1.101968,0.5813665 0.0297,0.018414 -0.05504,0.036134 -0.188384,0.0395 -0.216152,0.00495 -0.392765,-0.071279 -1.631786,-0.7093315 z"
       id="path21" />
  </g>
</svg>
