<?xml version="1.0" encoding="UTF-8" standalone="no"?>
<!-- Created with Inkscape (http://www.inkscape.org/) -->

<svg
   width="200"
   height="200"
   viewBox="0 0 52.916665 52.916666"
   version="1.1"
   id="svg1"
   inkscape:export-filename="calendar.svg"
   inkscape:export-xdpi="96"
   inkscape:export-ydpi="96"
   xmlns:inkscape="http://www.inkscape.org/namespaces/inkscape"
   xmlns:sodipodi="http://sodipodi.sourceforge.net/DTD/sodipodi-0.dtd"
   xmlns="http://www.w3.org/2000/svg"
   xmlns:svg="http://www.w3.org/2000/svg">
  <sodipodi:namedview
     id="namedview1"
     pagecolor="#ffffff"
     bordercolor="#cccccc"
     borderopacity="1"
     inkscape:showpageshadow="0"
     inkscape:pageopacity="1"
     inkscape:pagecheckerboard="0"
     inkscape:deskcolor="#d1d1d1"
     inkscape:document-units="mm"
     inkscape:zoom="3.76"
     inkscape:cx="99.867021"
     inkscape:cy="100"
     inkscape:window-width="1712"
     inkscape:window-height="971"
     inkscape:window-x="0"
     inkscape:window-y="39"
     inkscape:window-maximized="1"
     inkscape:current-layer="layer1">
    <inkscape:page
       x="0"
       y="0"
       width="52.916664"
       height="52.916664"
       id="page2"
       margin="0"
       bleed="0" />
  </sodipodi:namedview>
  <defs
     id="defs1" />
  <g
     inkscape:label="Layer 1"
     inkscape:groupmode="layer"
     id="layer1">
    <path
      
       d="M 24.828859,52.63406 C 20.866602,52.29058 17.9325,51.498343 14.778062,49.920233 12.169461,48.615189 9.9938189,47.047459 7.9371135,44.990744 3.644642,40.69828 1.0615143,35.286568 0.38731447,29.173783 0.27646418,28.168758 0.23397338,25.730346 0.30930247,24.695475 0.778503,18.24792 3.4154075,12.451926 7.9363908,7.9309376 12.214656,3.6526797 17.693275,1.0382363 23.754084,0.38262265 24.814978,0.26786186 27.152725,0.2268333 28.21645,0.30428395 34.69006,0.77572388 40.467581,3.4015731 44.996938,7.9309317 c 4.296343,4.2963503 6.879431,9.7216383 7.555492,15.8688713 0.07217,0.655661 0.09286,1.250732 0.09286,2.661401 0,1.994106 -0.05644,2.734831 -0.335857,4.40154 -1.100376,6.565577 -4.73906,12.527617 -10.104692,16.556736 -3.83319,2.878365 -8.158648,4.579249 -13.025509,5.12195 -0.702365,0.07834 -3.763514,0.143496 -4.350375,0.09267 z M 17.91946,27.408047 V 16.429786 h -1.561012 -1.561011 v 10.978261 10.97827 h 1.561011 1.561012 z m 15.149505,10.857872 c 2.301621,-0.382565 4.240239,-1.234394 5.813487,-2.554399 2.700046,-2.265438 4.147447,-5.814641 3.805262,-9.33099 -0.377863,-3.883059 -2.525004,-7.071758 -5.859562,-8.701945 -1.052715,-0.514655 -2.238895,-0.872077 -3.545318,-1.068301 -0.978002,-0.14689 -2.161744,-0.180139 -6.419535,-0.180319 l -4.286394,-1.79e-4 v 10.980618 10.980619 l 4.977324,-0.01791 c 4.441545,-0.01593 5.03518,-0.02753 5.514736,-0.107209 z M 25.69894,27.434812 v -8.146563 l 3.109223,0.02112 c 3.291314,0.02225 3.496036,0.03554 4.593471,0.296109 2.466199,0.585699 4.286799,1.972242 5.272314,4.015268 1.13461,2.352132 1.104483,5.169879 -0.08098,7.574758 -1.063033,2.156468 -3.001571,3.619147 -5.454554,4.115626 -1.013056,0.205037 -1.280692,0.220028 -4.381413,0.245349 l -3.05804,0.02498 z M 16.921431,13.860964 c 0.95047,-0.235584 1.631601,-1.291573 1.468398,-2.276498 -0.164211,-0.990977 -0.941737,-1.6957653 -1.926708,-1.7464563 -1.572189,-0.08089 -2.636667,1.5085263 -1.965932,2.9354683 0.171141,0.364097 0.568587,0.764697 0.940134,0.94761 0.48306,0.237807 0.922076,0.279185 1.484108,0.139876 z"
       id="path25" />
  </g>
</svg>
