<?xml version="1.0" encoding="UTF-8" standalone="no"?>
<!-- Created with Inkscape (http://www.inkscape.org/) -->

<svg
   width="200"
   height="200"
   viewBox="0 0 52.916665 52.916666"
   version="1.1"
   id="svg1"
   inkscape:export-filename="react.svg"
   inkscape:export-xdpi="96"
   inkscape:export-ydpi="96"
   sodipodi:docname="pandas.svg"
   xml:space="preserve"
   inkscape:version="1.4.3 (0d15f75, 2025-12-25)"
   xmlns:inkscape="http://www.inkscape.org/namespaces/inkscape"
   xmlns:sodipodi="http://sodipodi.sourceforge.net/DTD/sodipodi-0.dtd"
   xmlns="http://www.w3.org/2000/svg"
   xmlns:svg="http://www.w3.org/2000/svg"><sodipodi:namedview
     id="namedview1"
     pagecolor="#ffffff"
     bordercolor="#cccccc"
     borderopacity="1"
     inkscape:showpageshadow="0"
     inkscape:pageopacity="1"
     inkscape:pagecheckerboard="0"
     inkscape:deskcolor="#d1d1d1"
     inkscape:document-units="mm"
     inkscape:zoom="3.7600001"
     inkscape:cx="100.13298"
     inkscape:cy="99.999996"
     inkscape:window-width="1710"
     inkscape:window-height="971"
     inkscape:window-x="0"
     inkscape:window-y="39"
     inkscape:window-maximized="1"
     inkscape:current-layer="layer1"><inkscape:page
       x="0"
       y="0"
       width="52.916664"
       height="52.916664"
       id="page2"
       margin="0"
       bleed="0" /></sodipodi:namedview><defs
     id="defs1" /><g
     inkscape:label="Layer 1"
     inkscape:groupmode="layer"
     id="layer1"><path
       style="fill:#000000"
       d="M 10.872721,32.370116 V 14.634765 h 2.687174 2.687175 v 17.735351 17.735352 h -2.687175 -2.687174 z m 17.197916,9.136394 v -5.374349 h 2.687175 2.687174 v 5.374349 5.374348 h -2.687174 -2.687175 z m -8.598958,-8.598959 v -5.374349 h 2.687175 2.687174 V 32.907551 38.2819 H 22.158854 19.471679 Z M 36.669596,20.546549 V 2.8111969 h 2.687174 2.687175 V 20.546549 38.2819 H 39.35677 36.669596 Z m -8.598959,9.673828 v -2.687175 h 2.687175 2.687174 v 2.687175 2.687174 h -2.687174 -2.687175 z m -8.598958,-8.597739 v -2.685954 l 2.617721,-0.0018 c 1.439746,-9.76e-4 2.648975,0.01022 2.687174,0.02488 0.06291,0.02414 0.06945,0.2775 0.06945,2.687729 V 24.30857 H 22.15885 19.471675 Z m 8.598958,-2.688394 v -5.374349 h 2.687175 2.687174 v 5.374349 5.374349 H 30.757812 28.070637 Z M 19.471679,10.335286 V 4.9609365 h 2.687175 2.687174 v 5.3743495 5.374349 h -2.687174 -2.687175 z"
       id="path1" /></g></svg>
