<?xml version="1.0" encoding="UTF-8" standalone="no"?>
<!-- Created with Inkscape (http://www.inkscape.org/) -->

<svg
   width="200"
   height="200"
   viewBox="0 0 52.916665 52.916666"
   version="1.1"
   id="svg1"
   inkscape:export-filename="email.svg"
   inkscape:export-xdpi="96"
   inkscape:export-ydpi="96"
   xmlns:inkscape="http://www.inkscape.org/namespaces/inkscape"
   xmlns:sodipodi="http://sodipodi.sourceforge.net/DTD/sodipodi-0.dtd"
   xmlns="http://www.w3.org/2000/svg"
   xmlns:svg="http://www.w3.org/2000/svg">
  <sodipodi:namedview
     id="namedview1"
     pagecolor="#ffffff"
     bordercolor="#cccccc"
     borderopacity="1"
     inkscape:showpageshadow="0"
     inkscape:pageopacity="1"
     inkscape:pagecheckerboard="0"
     inkscape:deskcolor="#d1d1d1"
     inkscape:document-units="mm"
     inkscape:zoom="3.76"
     inkscape:cx="99.867021"
     inkscape:cy="100"
     inkscape:window-width="1712"
     inkscape:window-height="971"
     inkscape:window-x="0"
     inkscape:window-y="39"
     inkscape:window-maximized="1"
     inkscape:current-layer="layer1">
    <inkscape:page
       x="0"
       y="0"
       width="52.916664"
       height="52.916664"
       id="page2"
       margin="0"
       bleed="0" />
  </sodipodi:namedview>
  <defs
     id="defs1" />
  <g
     inkscape:label="Layer 1"
     inkscape:groupmode="layer"
     id="layer1">
    <path
      
       d="M 25.400312,52.218713 C 23.615573,50.498295 20.324868,46.824745 18.154188,44.129552 11.693193,36.107349 7.8529225,28.861443 6.8633175,22.825666 c -0.740242,-4.514863 0.266555,-9.474624 2.727536,-13.4365883 1.9839505,-3.193988 4.9977755,-5.885277 8.3891135,-7.491321 7.549295,-3.575138 16.569224,-2.00463 22.489647,3.915792 4.471117,4.4711213 6.578501,10.9001743 5.576414,17.0121173 -1.229972,7.501773 -6.879375,16.894979 -16.232126,26.988982 -2.36452,2.551924 -2.960233,3.102019 -3.359229,3.102019 -0.267346,0 -0.468334,-0.133045 -1.054361,-0.697954 z M 28.26418,28.73199 c 1.792416,-0.371796 3.306767,-1.190146 4.605307,-2.488682 3.562862,-3.562871 3.565852,-9.277213 0.0067,-12.83635 -3.559172,-3.5591733 -9.273442,-3.5561833 -12.836344,0.0067 -2.178429,2.178425 -3.106556,5.245601 -2.488683,8.224327 1.02091,4.921753 5.830695,8.106713 10.713006,7.093983 z"
       id="path1"
       inkscape:export-filename="pin.svg"
       inkscape:export-xdpi="96"
       inkscape:export-ydpi="96" />
  </g>
</svg>
