<?xml version="1.0" encoding="UTF-8" standalone="no"?>
<!-- Created with Inkscape (http://www.inkscape.org/) -->

<svg
   width="200"
   height="200"
   viewBox="0 0 52.916665 52.916666"
   version="1.1"
   id="svg1"
   inkscape:export-filename="aws.svg"
   inkscape:export-xdpi="96"
   inkscape:export-ydpi="96"
   xmlns:inkscape="http://www.inkscape.org/namespaces/inkscape"
   xmlns:sodipodi="http://sodipodi.sourceforge.net/DTD/sodipodi-0.dtd"
   xmlns="http://www.w3.org/2000/svg"
   xmlns:svg="http://www.w3.org/2000/svg">
  <sodipodi:namedview
     id="namedview1"
     pagecolor="#ffffff"
     bordercolor="#cccccc"
     borderopacity="1"
     inkscape:showpageshadow="0"
     inkscape:pageopacity="1"
     inkscape:pagecheckerboard="0"
     inkscape:deskcolor="#d1d1d1"
     inkscape:document-units="mm"
     inkscape:zoom="3.76"
     inkscape:cx="99.867021"
     inkscape:cy="100"
     inkscape:window-width="1712"
     inkscape:window-height="971"
     inkscape:window-x="0"
     inkscape:window-y="39"
     inkscape:window-maximized="1"
     inkscape:current-layer="layer1">
    <inkscape:page
       x="0"
       y="0"
       width="52.916664"
       height="52.916664"
       id="page2"
       margin="0"
       bleed="0" />
  </sodipodi:namedview>
  <defs
     id="defs1" />
  <g
     inkscape:label="Layer 1"
     inkscape:groupmode="layer"
     id="layer1">
    <path
      
       d="m 7.1307259,36.963362 c -0.023958,-0.06251 -0.032383,-0.454223 -0.018741,-0.870439 l 0.024918,-0.756788 0.5569621,0.02034 c 0.6636293,0.02437 1.0344001,-0.174262 1.3432177,-0.719369 0.3518658,-0.621107 0.340068,-0.76884 -0.1719115,-2.151089 C 8.6070188,31.78904 8.2152194,30.718494 7.9945127,30.107019 7.7737972,29.495544 7.3864003,28.440432 7.1336375,27.762329 c -0.2527757,-0.678113 -0.439764,-1.265 -0.4155377,-1.3042 0.024235,-0.0392 0.5213499,-0.07122 1.1047173,-0.07122 h 1.0606701 l 0.093862,0.363455 c 0.1021492,0.39544 0.7370926,2.457165 1.0732548,3.48498 0.115384,0.352772 0.211938,0.718379 0.214579,0.812453 l 0.0048,0.171041 0.07396,-0.171041 c 0.04073,-0.09404 0.174961,-0.517405 0.298395,-0.940735 0.21002,-0.72033 0.571482,-1.922206 0.874476,-2.907712 0.274345,-0.892298 0.146048,-0.812441 1.305375,-0.812441 0.922255,0 1.028051,0.01545 1.027722,0.149655 -2e-4,0.0823 -0.285409,0.977081 -0.633787,1.988362 -0.348391,1.011293 -0.998886,2.90118 -1.445564,4.199764 -0.446666,1.298572 -0.897297,2.530074 -1.001409,2.73667 -0.296284,0.587903 -0.744038,1.085684 -1.2244027,1.361193 -0.4166236,0.238958 -0.4939723,0.252907 -1.4056762,0.253666 -0.7241662,8.03e-4 -0.9756737,-0.02757 -1.008412,-0.112863 z m 12.3316691,-1.15228 c -0.02536,-0.04111 -0.011,-0.321455 0.03203,-0.62305 0.043,-0.301593 0.139626,-1.010161 0.214719,-1.574595 0.0751,-0.564445 0.195797,-1.430341 0.26823,-1.924229 0.07245,-0.493876 0.161798,-1.128868 0.198582,-1.411095 0.144531,-1.108998 0.58279,-1.925353 1.459549,-2.718781 0.55735,-0.504361 1.143009,-0.832824 1.802766,-1.011072 0.526883,-0.142343 1.785015,-0.196925 1.899525,-0.0824 0.05067,0.05067 0.163845,0.09215 0.251522,0.09215 0.301831,0 1.055787,0.410392 1.436811,0.782098 0.209984,0.204831 0.496681,0.600488 0.63711,0.879223 0.237538,0.471488 0.255324,0.572766 0.255324,1.453855 0,0.918582 -0.0096,0.966543 -0.316616,1.594684 -0.213318,0.436317 -0.489974,0.821499 -0.84792,1.18056 -0.903486,0.906292 -1.72055,1.280646 -2.956507,1.354595 -0.672473,0.04025 -0.872782,0.01846 -1.389708,-0.151 -0.332207,-0.108914 -0.603995,-0.229487 -0.603995,-0.267936 0,-0.03844 -0.05598,-0.06989 -0.124406,-0.06989 -0.07766,0 -0.143519,0.120413 -0.175314,0.320697 -0.02801,0.176394 -0.0859,0.551612 -0.128675,0.83383 -0.04281,0.282227 -0.108204,0.705546 -0.145398,0.940732 l -0.06762,0.427604 -0.826912,0.02444 c -0.454813,0.01344 -0.847696,-0.0095 -0.873087,-0.05029 z m 5.352742,-3.960067 c 0.512649,-0.261532 0.899922,-0.653203 1.132977,-1.145819 0.512793,-1.083961 0.08429,-2.088733 -1.065566,-2.4986 -0.392891,-0.14004 -0.646886,-0.134655 -1.100676,0.02339 -1.019965,0.355208 -1.62802,1.020915 -1.778282,1.94689 -0.06686,0.412251 0.17985,1.103072 0.508925,1.4248 0.527105,0.515342 1.561645,0.627371 2.302622,0.249347 z M 0.39620946,33.891383 c -0.1345707,-0.09882 -0.14388857,-0.47221 -0.12325401,-4.938846 l 0.0223542,-4.831929 1.70245935,-0.0232 c 1.8535028,-0.02528 2.4332507,0.04272 3.0872882,0.362199 1.0879833,0.531426 1.5443287,1.434676 1.4803322,2.930061 -0.060608,1.415934 -0.5864047,2.254718 -1.7621168,2.810921 -0.3848774,0.182076 -0.6508924,0.234287 -1.4217014,0.279057 l -0.9482358,0.05512 -0.023315,1.618474 c -0.014692,1.01718 -0.058242,1.660571 -0.1173695,1.731803 -0.1267368,0.152693 -1.69001902,0.15799 -1.89641125,0.0066 z M 3.8103461,28.444198 C 4.441381,28.165381 4.6957605,27.319203 4.3664925,26.59423 4.1550602,26.128718 3.7898314,25.959307 2.9976472,25.959307 H 2.3905387 v 1.318452 c 0,0.972487 0.028007,1.33087 0.1069041,1.365787 0.1805196,0.07993 0.9427136,-0.0358 1.3129033,-0.199348 z m 11.4289629,5.373633 c -0.432717,-0.07207 -1.030528,-0.376041 -1.307727,-0.664897 -0.07292,-0.07595 -0.207604,-0.27284 -0.299318,-0.437472 -0.09167,-0.164628 -0.192086,-0.31865 -0.223054,-0.342279 -0.03098,-0.02359 -0.0824,-0.181912 -0.114217,-0.351762 l -0.05796,-0.308801 0.871329,-0.439306 c 0.479229,-0.241627 0.900003,-0.439311 0.935061,-0.439311 0.03504,0 0.134598,0.157148 0.221208,0.349213 0.232754,0.516165 0.675905,0.848085 1.132287,0.848085 0.812244,0 1.387402,-0.580942 1.210273,-1.222451 -0.05635,-0.204186 -0.389786,-0.610898 -1.072718,-1.308558 -1.154744,-1.179628 -1.408976,-1.52407 -1.620171,-2.194991 -0.137307,-0.436204 -0.142146,-0.544091 -0.04224,-0.940727 0.230122,-0.913579 0.853973,-1.651602 1.800447,-2.129947 0.521996,-0.263807 0.610653,-0.281072 1.453867,-0.283006 0.837615,-0.002 0.928772,0.01497 1.356296,0.2518 0.25208,0.139627 0.634706,0.460322 0.850288,0.712661 0.44466,0.520478 0.436582,0.586662 -0.119654,0.97979 -0.887734,0.627423 -1.076845,0.747217 -1.171871,0.742377 -0.05645,-0.0028 -0.218075,-0.163263 -0.359177,-0.356429 -0.16875,-0.230988 -0.379007,-0.395536 -0.614288,-0.480713 -0.328371,-0.118895 -0.385753,-0.116877 -0.699402,0.02452 -0.425642,0.191933 -0.593786,0.526687 -0.425113,0.846332 0.06261,0.118714 0.575715,0.694995 1.140161,1.280606 1.195493,1.240359 1.17928,1.221096 1.431325,1.700646 0.147998,0.281608 0.193333,0.509217 0.192586,0.966956 -0.0028,1.518079 -1.363772,2.967121 -3.0112,3.205337 -0.666177,0.09634 -0.838025,0.09542 -1.457045,-0.0076 z m 15.757994,-0.04347 c -0.353391,-0.08968 -1.207051,-0.541022 -1.4643,-0.774181 -1.775189,-1.608939 -1.265496,-4.503561 1.048072,-5.952161 0.594617,-0.372305 1.586836,-0.661141 2.27116,-0.661141 1.339004,0 2.567532,0.734784 3.12459,1.868833 0.217568,0.442918 0.237248,0.564586 0.237248,1.466479 0,0.540921 -0.04612,1.272126 -0.102529,1.624899 -0.05635,0.352772 -0.149411,0.979574 -0.206697,1.392891 -0.0573,0.413322 -0.145839,0.798469 -0.196782,0.855888 -0.06402,0.07217 -0.337157,0.09571 -0.8837,0.07624 l -0.791069,-0.02814 v -0.235422 c 0,-0.129486 0.05492,-0.578946 0.122122,-0.998801 0.361462,-2.259397 0.352455,-2.906961 -0.04991,-3.58893 -0.183132,-0.310403 -0.718038,-0.614826 -1.224816,-0.697061 -0.530054,-0.08599 -1.375921,0.229751 -1.847183,0.68956 -0.848451,0.827836 -0.980168,1.914732 -0.322779,2.663466 0.366373,0.417266 0.785839,0.595911 1.398357,0.595534 0.582778,-3.21e-4 0.970263,-0.133037 1.430956,-0.489959 0.36821,-0.285265 0.516871,-0.253606 0.409709,0.08732 -0.04034,0.12831 -0.09683,0.520993 -0.125561,0.87263 -0.06175,0.756254 -0.15191,0.918005 -0.605299,1.086317 -0.339183,0.125926 -1.89698,0.228115 -2.221581,0.145727 z m 10.322756,-0.09986 -0.880503,-0.02444 0.05342,-0.531465 c 0.02933,-0.292313 0.07321,-0.589204 0.0975,-0.659757 0.02423,-0.07056 0.09748,-0.551612 0.16267,-1.069005 0.06516,-0.517405 0.179648,-1.383308 0.254344,-1.924229 0.203149,-1.471075 0.263192,-1.926036 0.378127,-2.864949 0.05758,-0.470364 0.118887,-0.9337 0.136235,-1.029637 0.02063,-0.114348 0.33445,-0.35927 0.911035,-0.711164 0.483707,-0.295201 0.944976,-0.580951 1.025034,-0.634999 0.233251,-0.157453 0.263245,-0.0289 0.159002,0.681395 -0.142268,0.969433 -0.354584,2.495549 -0.402287,2.8917 l -0.04119,0.342081 0.539823,-0.558594 c 0.296907,-0.307217 0.933744,-0.979317 1.415204,-1.493548 0.53354,-0.569839 0.904545,-0.902755 0.950053,-0.852504 0.0717,0.07918 0.284025,1.165463 0.303291,1.551548 0.0066,0.12953 -0.303299,0.504378 -1.016955,1.230612 -0.590563,0.60098 -0.980861,1.060453 -0.91935,1.082291 0.05882,0.02083 0.106904,0.07122 0.106904,0.111805 0,0.06658 0.596816,0.889645 1.059254,1.46074 0.09944,0.122815 0.238528,0.308251 0.309074,0.412106 0.07056,0.103846 0.503512,0.684095 0.962116,1.289447 0.795001,1.049389 1.005828,1.452028 0.698551,1.334108 -0.07444,-0.02849 -0.588905,-0.0519 -1.143339,-0.0519 h -1.00807 L 44.6705,32.542924 c -0.417723,-0.612282 -0.968481,-1.419936 -1.223909,-1.794776 -0.255415,-0.374849 -0.47678,-0.669171 -0.491917,-0.654034 -0.03002,0.03002 -0.185019,0.987279 -0.413234,2.551604 -0.08154,0.559185 -0.188742,1.011177 -0.24332,1.026254 -0.05361,0.01477 -0.493764,0.01601 -0.978029,0.0028 z m -4.858383,-0.595608 c 0.03162,-0.317498 0.093,-0.788937 0.136424,-1.047631 0.04347,-0.258703 0.13695,-0.893703 0.207768,-1.411095 0.07084,-0.517405 0.171619,-1.248605 0.223994,-1.624907 0.113165,-0.813164 0.313613,-1.271376 0.746387,-1.70624 0.550729,-0.553394 0.948668,-0.688342 2.029708,-0.688342 h 0.940735 l -0.01637,0.256564 c -0.0095,0.141104 -0.06478,0.535576 -0.123923,0.876586 l -0.10751,0.620027 h -0.653897 c -0.775192,0 -0.888453,0.08476 -0.971018,0.726936 -0.03021,0.235177 -0.09148,0.658508 -0.136066,0.940722 -0.109501,0.693001 -0.326086,2.286482 -0.389409,2.864953 -0.08978,0.820436 -0.02122,0.769695 -1.040175,0.769695 h -0.904028 z m 12.195707,-5.628519 c -1.787223,-0.537635 -1.876438,-0.570715 -1.917672,-0.711023 -0.05162,-0.175513 -0.305876,-1.542908 -0.305876,-1.64474 0,-0.154976 0.29218,-0.101154 1.819067,0.335131 0.318461,0.09101 0.595138,0.13937 0.614846,0.107494 0.0197,-0.03182 -0.21671,-0.517613 -0.52535,-1.079395 -0.939519,-1.710132 -0.892386,-1.593055 -0.721032,-1.791128 0.237135,-0.2741 1.54916,-1.769277 1.825428,-2.080258 0.138928,-0.156376 0.235879,-0.301032 0.215449,-0.321463 -0.02046,-0.02046 -0.738497,0.140025 -1.595708,0.356562 -1.803428,0.455551 -1.635125,0.49207 -2.245463,-0.487323 -0.203905,-0.327194 -0.517429,-0.829802 -0.696721,-1.116897 -0.185416,-0.296898 -0.357625,-0.489257 -0.39934,-0.44606 -0.06573,0.06809 -0.182608,0.655382 -0.440322,2.21313 -0.151277,0.914413 -0.09776,0.873946 -1.848957,1.3981 -0.858423,0.256941 -1.560758,0.495169 -1.560758,0.529396 0,0.03427 0.240528,0.148283 0.534504,0.253446 0.293982,0.105162 0.661209,0.247129 0.816074,0.315474 0.154856,0.06838 0.42425,0.173638 0.598641,0.233958 0.523428,0.181058 0.44716,0.321728 -0.484975,0.894545 -0.469244,0.288364 -0.915012,0.548029 -0.990598,0.577032 -0.27048,0.103785 -2.747077,-1.039192 -3.061581,-1.412966 -0.342687,-0.407245 -0.456213,-0.859482 -0.294338,-1.172509 0.328225,-0.634723 0.582785,-0.762531 2.882273,-1.4471 1.819661,-0.541724 1.723051,-0.479369 1.851179,-1.194779 0.520359,-2.905408 0.55093,-3.014845 0.977869,-3.501096 0.482286,-0.5493 1.202456,-0.557315 1.741832,-0.01942 0.149286,0.148876 0.567503,0.751744 0.929358,1.339706 0.361874,0.587951 0.744376,1.170415 0.850032,1.294366 l 0.192086,0.225359 0.940722,-0.23804 c 0.517405,-0.130922 1.402547,-0.357118 1.966989,-0.502656 0.564434,-0.145546 1.164877,-0.264915 1.334309,-0.265264 0.413053,-8.03e-4 0.861726,0.31062 0.964721,0.669741 0.119843,0.417864 -0.125428,0.845477 -1.114453,1.942882 -1.527501,1.694887 -1.887566,2.131597 -1.864507,2.261431 0.01252,0.07056 0.377606,0.763274 0.81129,1.539377 1.051247,1.881306 1.116215,2.44629 0.340348,2.959734 -0.515916,0.341419 -0.965612,0.338313 -2.139366,-0.01477 z"
       id="path20" />
  </g>
</svg>
