<?xml version="1.0" encoding="UTF-8" standalone="no"?>
<!-- Created with Inkscape (http://www.inkscape.org/) -->

<svg
   width="200"
   height="200"
   viewBox="0 0 52.916665 52.916666"
   version="1.1"
   id="svg1"
   inkscape:export-filename="gitlab.svg"
   inkscape:export-xdpi="96"
   inkscape:export-ydpi="96"
   xmlns:inkscape="http://www.inkscape.org/namespaces/inkscape"
   xmlns:sodipodi="http://sodipodi.sourceforge.net/DTD/sodipodi-0.dtd"
   xmlns="http://www.w3.org/2000/svg"
   xmlns:svg="http://www.w3.org/2000/svg">
  <sodipodi:namedview
     id="namedview1"
     pagecolor="#ffffff"
     bordercolor="#cccccc"
     borderopacity="1"
     inkscape:showpageshadow="0"
     inkscape:pageopacity="1"
     inkscape:pagecheckerboard="0"
     inkscape:deskcolor="#d1d1d1"
     inkscape:document-units="mm"
     inkscape:zoom="3.76"
     inkscape:cx="99.867021"
     inkscape:cy="100"
     inkscape:window-width="1712"
     inkscape:window-height="971"
     inkscape:window-x="0"
     inkscape:window-y="39"
     inkscape:window-maximized="1"
     inkscape:current-layer="layer1">
    <inkscape:page
       x="0"
       y="0"
       width="52.916664"
       height="52.916664"
       id="page2"
       margin="0"
       bleed="0" />
  </sodipodi:namedview>
  <defs
     id="defs1" />
  <g
     inkscape:label="Layer 1"
     inkscape:groupmode="layer"
     id="layer1">
    <path
      
       d="M 24.819931,52.618203 C 18.45185,52.32363 14.683519,50.415531 13.835615,47.056273 c -0.166051,-0.657865 -0.155228,-0.152314 -0.155228,-7.250214 0,-6.03611 0.0032,-6.453574 0.04574,-6.765583 0.209448,-1.523838 0.718826,-2.657505 1.629581,-3.626785 0.884103,-0.940917 2.287351,-1.66954 3.798562,-1.972365 0.821087,-0.164536 0.200872,-0.151354 7.942204,-0.168771 5.33048,-0.01197 7.109251,-0.02345 7.302731,-0.0472 1.649631,-0.202538 2.780165,-0.638518 3.811234,-1.469755 0.261209,-0.210582 0.747475,-0.711403 0.952968,-0.981492 0.854021,-1.122474 1.374161,-2.525636 1.529443,-4.125922 0.0289,-0.297858 0.03618,-1.036575 0.03658,-3.728656 l 6.57e-4,-3.35722 h 2.389268 c 2.648101,0 2.712134,0.003 3.36652,0.16503 1.491137,0.368884 2.82559,1.339747 3.816333,2.776537 1.250486,1.813461 1.998276,4.305717 2.256367,7.520144 0.124692,1.552912 0.124677,3.453095 -3.1e-5,4.923908 -0.346576,4.087356 -1.632518,7.004647 -3.811593,8.646982 -1.098557,0.827971 -2.445846,1.322349 -3.932057,1.442856 -0.218197,0.01772 -3.362338,0.02652 -9.419367,0.02652 h -9.09202 v 0.895256 0.895266 h 6.381896 6.381895 v 3.149299 c 0,2.712706 -0.0054,3.186311 -0.03962,3.416311 -0.09381,0.631748 -0.335988,1.214014 -0.737482,1.773055 -0.190347,0.265041 -0.646507,0.740903 -0.923858,0.963757 -1.831755,1.471803 -4.791747,2.270452 -9.131611,2.463815 -0.653414,0.02909 -2.762081,0.02731 -3.414767,-0.003 z m 9.32346,-4.087238 c 0.772749,-0.200944 1.405645,-0.819401 1.625493,-1.58844 0.07832,-0.273889 0.09676,-0.786724 0.03876,-1.076388 -0.08903,-0.444461 -0.288307,-0.808881 -0.62829,-1.148927 -0.462489,-0.462561 -0.957817,-0.668552 -1.611467,-0.670175 -0.357674,-7.82e-4 -0.651245,0.06255 -0.960487,0.207436 -0.380129,0.178143 -0.676175,0.425708 -0.905202,0.757005 -0.256918,0.371654 -0.379103,0.7298 -0.403077,1.181486 -0.03782,0.712818 0.202721,1.307564 0.728178,1.800299 0.319573,0.299669 0.697611,0.49231 1.124519,0.573024 0.268689,0.05087 0.722602,0.03464 0.991596,-0.03533 z M 7.1066491,39.317451 C 6.249855,39.227889 5.3157849,38.882638 4.55819,38.375405 2.1880794,36.788568 0.74055823,33.515041 0.35550237,28.871138 0.21759095,27.207942 0.23825931,24.974236 0.40602282,23.410081 0.68363985,20.821762 1.3857058,18.661218 2.453044,17.110572 2.8550552,16.526524 3.4689662,15.852964 3.9476823,15.470711 4.8431263,14.755686 5.9035411,14.259744 7.0427133,14.023174 7.90708,13.843666 6.9910253,13.859084 17.306182,13.850494 l 9.304264,-0.0079 v -0.894771 -0.894761 l -6.375498,-0.0059 -6.375504,-0.0059 -0.007,-2.8903843 c -0.007,-2.9312646 0.0062,-3.5467135 0.08566,-3.9263541 0.284736,-1.3573721 1.289921,-2.5082486 2.904888,-3.3259179 1.768215,-0.8952658 4.006647,-1.3832112 7.299394,-1.59118126 0.694305,-0.0438405 3.720697,-0.0433457 4.361173,6.5315e-4 2.517562,0.1731352 4.145695,0.45819719 5.748688,1.00649991 2.654189,0.9078836 4.31119,2.4298603 4.817139,4.4245619 0.173617,0.6845248 0.160044,0.1222387 0.17068,7.0695186 0.0098,6.407299 0.007,6.669253 -0.08528,7.289937 -0.261585,1.764306 -1.032205,3.112495 -2.340687,4.095046 -0.78098,0.586443 -1.855563,1.042651 -3.003515,1.275134 -0.807382,0.163496 -0.198061,0.150661 -7.954422,0.167563 -6.480546,0.01405 -7.090157,0.019 -7.430625,0.05977 -1.742283,0.208415 -3.094247,0.814779 -4.144238,1.858727 -0.942803,0.937374 -1.611608,2.248461 -1.915971,3.75595 -0.172959,0.856651 -0.164305,0.632213 -0.17404,4.512381 l -0.0088,3.523477 -2.4354372,-0.003 c -1.3394885,-0.002 -2.5275236,-0.01306 -2.6400679,-0.02484 z M 19.88009,8.8019522 c 0.793903,-0.1818341 1.437308,-0.8046854 1.666454,-1.6132302 0.06915,-0.2439331 0.09378,-0.6964796 0.052,-0.9552571 -0.145081,-0.8994222 -0.794886,-1.6165652 -1.684682,-1.8593008 -0.286061,-0.077983 -0.854906,-0.077884 -1.143332,3.364e-4 -0.782264,0.2122651 -1.405886,0.822558 -1.6255,1.5907558 -0.07832,0.2738891 -0.09676,0.7867236 -0.03877,1.0763873 0.08062,0.4024417 0.276842,0.7830521 0.561907,1.0898364 0.571823,0.6154093 1.380982,0.8606388 2.21186,0.6703534 z"
       id="path9" />
  </g>
</svg>
