<?xml version="1.0" encoding="UTF-8" standalone="no"?>
<!-- Created with Inkscape (http://www.inkscape.org/) -->

<svg
   width="200"
   height="200"
   viewBox="0 0 52.916665 52.916666"
   version="1.1"
   id="svg1"
   inkscape:export-filename="cpp.svg"
   inkscape:export-xdpi="96"
   inkscape:export-ydpi="96"
   xmlns:inkscape="http://www.inkscape.org/namespaces/inkscape"
   xmlns:sodipodi="http://sodipodi.sourceforge.net/DTD/sodipodi-0.dtd"
   xmlns="http://www.w3.org/2000/svg"
   xmlns:svg="http://www.w3.org/2000/svg">
  <sodipodi:namedview
     id="namedview1"
     pagecolor="#ffffff"
     bordercolor="#cccccc"
     borderopacity="1"
     inkscape:showpageshadow="0"
     inkscape:pageopacity="1"
     inkscape:pagecheckerboard="0"
     inkscape:deskcolor="#d1d1d1"
     inkscape:document-units="mm"
     inkscape:zoom="3.76"
     inkscape:cx="99.867021"
     inkscape:cy="100"
     inkscape:window-width="1712"
     inkscape:window-height="971"
     inkscape:window-x="0"
     inkscape:window-y="39"
     inkscape:window-maximized="1"
     inkscape:current-layer="layer1">
    <inkscape:page
       x="0"
       y="0"
       width="52.916664"
       height="52.916664"
       id="page2"
       margin="0"
       bleed="0" />
  </sodipodi:namedview>
  <defs
     id="defs1" />
  <g
     inkscape:label="Layer 1"
     inkscape:groupmode="layer"
     id="layer1">
    <path
      
       d="M 6.51964,29.391505 C 6.51964,4.0610839 6.508057,5.915949 6.6770105,5.1503419 7.2074231,2.7532041 8.9384885,0.94204764 11.198283,0.41990155 c 0.63859,-0.14754969 1.491891,-0.19558451 2.127986,-0.11979997 0.199179,0.023661 32.003728,5.23985512 32.889254,5.39401792 l 0.182428,0.031779 -0.0089,17.6985765 -0.0089,17.698606 -0.0796,0.422671 c -0.152431,0.810137 -0.35447,1.42964 -0.689268,2.113413 -0.368073,0.751727 -0.764222,1.30495 -1.308573,1.827432 -0.52572,0.504594 -1.11578,0.866805 -1.743639,1.070349 -0.207336,0.06722 -4.234559,0.754232 -18.117733,3.090772 -9.818142,1.6524 -17.867232,3.004365 -17.8868835,3.004365 -0.028215,0 -0.035739,-4.921065 -0.035739,-23.260588 z m 21.002911,15.713318 c 0.368745,-0.0495 0.785238,-0.104841 0.925531,-0.122997 l 0.255064,-0.03307 10e-6,-1.621334 2e-5,-1.621314 -0.519523,0.0102 c -0.745044,0.01455 -1.145133,-0.07276 -1.541312,-0.335719 -0.442352,-0.293624 -0.8039,-0.989545 -1.046005,-2.013374 -0.03881,-0.164212 -0.07059,-0.315068 -0.07059,-0.335234 5e-5,-0.0202 0.104119,-0.07346 0.231254,-0.118355 0.306633,-0.108326 1.038006,-0.473002 1.323592,-0.660033 0.644252,-0.421938 1.32073,-1.032155 1.779189,-1.604939 1.076883,-1.345391 1.854627,-3.188178 2.331432,-5.524015 0.252301,-1.235977 0.40492,-2.47918 0.52071,-4.241381 0.0492,-0.749598 0.04851,-3.715125 -9.9e-4,-4.50375 -0.156549,-2.486614 -0.476418,-4.332648 -1.037936,-5.990097 -0.959677,-2.832708 -2.633154,-4.774743 -4.909581,-5.697443 -1.271201,-0.515236 -2.611453,-0.7448863 -4.128362,-0.7073752 -0.69505,0.017127 -0.999208,0.052371 -1.580665,0.1827642 -0.988594,0.22172 -2.019096,0.714344 -2.761369,1.320037 -1.262775,1.030422 -2.212532,2.525095 -2.873872,4.522728 -0.544223,1.643866 -0.839323,3.30773 -1.026235,5.786365 -0.05009,0.664568 -0.05019,4.095484 -6.9e-5,4.897285 0.23463,3.755597 0.816691,6.402769 1.836342,8.351605 0.905633,1.730927 1.943441,2.863646 3.318848,3.622402 0.49707,0.274201 1.145758,0.527661 1.691981,0.661093 l 0.2673,0.06534 0.04861,0.223225 c 0.440708,2.025492 1.110275,3.522799 1.951479,4.364002 0.600158,0.600158 1.393356,0.988813 2.346202,1.149609 0.483259,0.08158 0.498159,0.08237 1.284447,0.07276 0.59998,-0.0069 0.821413,-0.02307 1.384654,-0.0987 z m -4.824402,-9.378205 c -0.813661,-0.159064 -1.36819,-0.59207 -1.862686,-1.454489 -0.771002,-1.344619 -1.1821,-3.515057 -1.344391,-7.097562 -0.05108,-1.128947 -0.06841,-3.834322 -0.03148,-4.941004 0.132433,-3.978871 0.495763,-5.992532 1.298822,-7.199442 0.602563,-0.905603 1.478506,-1.341391 2.439232,-1.213553 0.372389,0.0495 0.56436,0.105574 0.862538,0.251896 1.028462,0.504495 1.758726,1.742193 2.132115,3.613631 0.301485,1.511157 0.432452,3.266289 0.461112,6.1799 0.04811,4.877376 -0.275962,8.114391 -0.972913,9.721687 -0.490377,1.130867 -1.191723,1.843905 -2.035193,2.069101 -0.227285,0.06069 -0.783922,0.101653 -0.947065,0.06989 z m 15.541395,1.825343 c 1.019186,-0.09904 2.102613,-0.374706 3.231501,-0.822315 l 0.393535,-0.156043 0.0069,-1.44746 0.0069,-1.44747 -0.220315,0.101792 c -0.675012,0.31186 -1.74748,0.533481 -2.188505,0.452212 -0.239452,-0.04415 -0.387486,-0.117622 -0.535927,-0.266043 -0.152816,-0.152816 -0.227908,-0.308613 -0.301247,-0.624967 -0.06108,-0.2634 -0.06128,-0.281557 -0.07019,-6.641894 l -0.0089,-6.377762 0.255756,0.01703 c 0.272983,0.01812 2.591317,0.130977 2.689594,0.130977 0.05792,0 0.05851,-0.01742 0.05851,-1.574121 v -1.57413 l -0.06564,3.07e-4 c -0.110068,3.66e-4 -2.801157,-0.206782 -2.871318,-0.221166 l -0.06564,-0.01307 V 14.56688 c 0,-1.997692 -0.0069,-2.520828 -0.03643,-2.520303 -0.0201,3.46e-4 -0.669874,-0.06692 -1.444094,-0.149471 -0.77422,-0.08267 -1.416067,-0.141728 -1.426334,-0.131412 -0.0102,0.0102 -0.284248,1.147826 -0.60885,2.527907 -0.324591,1.3801 -0.594416,2.512354 -0.599623,2.516155 -0.0059,0.004 -0.396416,-0.02277 -0.869389,-0.0591 -0.472963,-0.03633 -0.89602,-0.06682 -0.940105,-0.06781 l -0.08019,-9.9e-4 v 1.686823 1.686822 l 0.459113,0.01901 c 0.252529,0.0102 0.553905,0.02683 0.669755,0.03643 l 0.210643,0.01742 0.0089,6.839726 c 0.0102,7.543249 -0.004,6.956466 0.187298,7.772524 0.292337,1.244777 0.918582,2.123462 1.79691,2.521204 0.261489,0.118345 0.637471,0.228344 0.937956,0.27426 0.319097,0.04881 1.008108,0.05722 1.417998,0.01742 z"
       id="path16" />
  </g>
</svg>
