<?xml version="1.0" encoding="UTF-8" standalone="no"?>
<!-- Created with Inkscape (http://www.inkscape.org/) -->

<svg
   width="200"
   height="200"
   viewBox="0 0 52.916665 52.916666"
   version="1.1"
   id="svg1"
   inkscape:export-filename="qt.svg"
   inkscape:export-xdpi="96"
   inkscape:export-ydpi="96"
   xmlns:inkscape="http://www.inkscape.org/namespaces/inkscape"
   xmlns:sodipodi="http://sodipodi.sourceforge.net/DTD/sodipodi-0.dtd"
   xmlns="http://www.w3.org/2000/svg"
   xmlns:svg="http://www.w3.org/2000/svg">
  <sodipodi:namedview
     id="namedview1"
     pagecolor="#ffffff"
     bordercolor="#cccccc"
     borderopacity="1"
     inkscape:showpageshadow="0"
     inkscape:pageopacity="1"
     inkscape:pagecheckerboard="0"
     inkscape:deskcolor="#d1d1d1"
     inkscape:document-units="mm"
     inkscape:zoom="3.76"
     inkscape:cx="99.867021"
     inkscape:cy="100"
     inkscape:window-width="1712"
     inkscape:window-height="971"
     inkscape:window-x="0"
     inkscape:window-y="39"
     inkscape:window-maximized="1"
     inkscape:current-layer="layer1">
    <inkscape:page
       x="0"
       y="0"
       width="52.916664"
       height="52.916664"
       id="page2"
       margin="0"
       bleed="0" />
  </sodipodi:namedview>
  <defs
     id="defs1" />
  <g
     inkscape:label="Layer 1"
     inkscape:groupmode="layer"
     id="layer1">
    <path
      
       d="m 14.897141,49.721217 c -1.285466,-0.271469 -2.278526,-0.901064 -3.067396,-1.944687 -0.794589,-1.051192 -1.295362,-2.529252 -1.476086,-4.356802 -0.206445,-2.087422 0.06397,-4.818053 0.765642,-7.729875 0.05684,-0.23578 0.09867,-0.43337 0.09294,-0.439098 -0.0053,-0.0053 -0.24802,-0.08178 -0.538426,-0.169004 -5.1414685,-1.544219 -8.5968188,-3.760657 -9.85484472,-6.321412 -0.3845172,-0.782684 -0.532443,-1.365892 -0.5518116,-2.175559 -0.012601,-0.536805 0.019386,-0.857409 0.1326283,-1.319427 0.3827989,-1.561042 1.54110902,-3.035215 3.41641042,-4.348069 1.7015566,-1.191223 4.1856564,-2.308769 6.9234606,-3.114761 0.244337,-0.07199 0.452668,-0.138364 0.462969,-0.147758 0.0098,-0.0098 -0.0326,-0.231005 -0.09532,-0.492595 -1.1313884,-4.720938 -1.088792,-8.5634226 0.122434,-11.0458481 0.761042,-1.5597286 2.021747,-2.5852782 3.582251,-2.9140248 0.274597,-0.057894 0.295728,-0.058864 1.221509,-0.058864 0.84635,0 0.969594,0.00441 1.212715,0.046703 1.898829,0.3275041 4.071234,1.4226238 6.430301,3.2415641 0.76536,0.5901083 1.770633,1.4618017 2.536064,2.1990251 L 26.45794,8.867053 26.727329,8.6073302 c 0.781645,-0.7536047 1.816879,-1.6441909 2.647438,-2.2775305 2.068838,-1.5775993 3.92448,-2.5602348 5.671832,-3.0034659 0.684475,-0.1736302 0.777317,-0.1828651 1.836432,-0.1828651 0.925781,0 0.946929,8.812e-4 1.221509,0.058864 0.975692,0.2055558 1.858902,0.6970763 2.551696,1.4200595 1.094935,1.1426514 1.715206,2.7675971 1.922498,5.0363686 0.0482,0.5277902 0.05507,1.9625742 0.0126,2.5628342 -0.116282,1.630224 -0.378358,3.277244 -0.79317,4.985339 -0.05728,0.236072 -0.09546,0.437195 -0.08468,0.446968 0.01119,0.0098 0.204093,0.07155 0.429617,0.137245 0.225541,0.06565 0.712479,0.219549 1.082096,0.341912 5.055296,1.67342 8.271711,4.030029 9.172493,6.720486 0.200083,0.597581 0.268111,1.064692 0.252162,1.731324 -0.0126,0.520317 -0.05146,0.781494 -0.186513,1.250967 -0.869931,3.022403 -4.626949,5.631156 -10.599285,7.359827 -0.09085,0.02626 -0.165171,0.05825 -0.165171,0.07111 0,0.0126 0.02644,0.127324 0.0586,0.254409 0.03225,0.127051 0.113348,0.477492 0.180424,0.778684 0.877131,3.941725 0.917965,7.238566 0.118803,9.591571 -0.729081,2.146673 -2.183323,3.498802 -4.139412,3.848714 -0.186319,0.0334 -0.343189,0.03745 -1.127653,0.02978 -0.824259,-0.0088 -0.935148,-0.01401 -1.161817,-0.05886 -1.595218,-0.317623 -3.131921,-0.999781 -4.909242,-2.179239 -1.290128,-0.85615 -2.557354,-1.880836 -3.926983,-3.175413 -0.173921,-0.164387 -0.323776,-0.298901 -0.333011,-0.298901 -0.0098,0 -0.159091,0.134734 -0.33302,0.2995 -2.965725,2.808846 -5.816542,4.612021 -8.255322,5.221604 -0.725706,0.181393 -0.729601,0.181799 -1.776881,0.188972 -0.915171,0.0053 -0.953415,0.0044 -1.195981,-0.04644 z m 1.720608,-2.233789 c 0.806115,-0.107338 1.63493,-0.388764 2.653289,-0.900984 1.639741,-0.824752 3.31977,-2.060942 5.199698,-3.826006 0.203591,-0.191166 0.37018,-0.355808 0.37018,-0.365871 0,-0.0098 -0.115445,-0.144877 -0.256691,-0.299588 -1.249373,-1.369065 -2.64557,-3.101561 -3.871494,-4.804051 l -0.28763,-0.399445 -0.428965,-0.04071 c -1.982251,-0.188144 -4.497739,-0.582213 -6.281555,-0.984081 -0.136691,-0.03075 -0.251254,-0.05322 -0.25455,-0.05005 -0.0126,0.0126 -0.154817,0.598877 -0.262675,1.0857 -0.27242,1.229625 -0.45644,2.429819 -0.559152,3.646966 -0.04961,0.587244 -0.05657,2.040437 -0.0126,2.517268 0.204525,2.196584 0.874963,3.58856 2.001233,4.15507 0.227074,0.114194 0.531517,0.215293 0.759711,0.252224 0.09393,0.01524 0.18624,0.03058 0.205018,0.03437 0.106501,0.0208 0.82166,0.007 1.025814,-0.0208 z m 20.987754,-0.02247 c 0.240292,-0.05552 0.475624,-0.140154 0.693534,-0.24973 1.037058,-0.521507 1.707425,-1.798012 1.939355,-3.692999 0.236125,-1.92909 8.81e-4,-4.4987 -0.661696,-7.238566 -0.06292,-0.259996 -0.117543,-0.472716 -0.121455,-0.472716 -0.0044,0 -0.13892,0.02996 -0.300196,0.06653 -0.827748,0.187923 -2.339144,0.4646 -3.425046,0.627013 -0.939396,0.140488 -2.917946,0.377133 -3.153163,0.377133 -0.07517,0 -0.08931,0.01551 -0.36937,0.404352 -1.21646,1.689291 -2.596698,3.403863 -3.844229,4.775404 -0.15813,0.173833 -0.287489,0.324164 -0.287489,0.334078 0,0.0098 0.197325,0.202233 0.438517,0.427404 1.934861,1.806322 3.639995,3.043719 5.313609,3.856029 0.904809,0.43916 1.695274,0.700064 2.448923,0.808265 0.290917,0.04177 1.110628,0.02811 1.328662,-0.02221 z M 26.609496,40.577829 c 0.715634,-0.799418 1.09764,-1.243565 1.650721,-1.919281 0.549441,-0.671258 1.213349,-1.525742 1.197664,-1.541436 -0.007,-0.007 -0.37441,-2.6e-5 -0.816848,0.01507 -0.442447,0.01507 -1.424651,0.02749 -2.182679,0.02749 -0.758028,0 -1.740232,-0.0126 -2.18267,-0.02749 -0.442447,-0.01507 -0.810028,-0.02194 -0.816848,-0.01507 -0.007,0.007 0.165453,0.241104 0.382852,0.520635 0.664243,0.854096 1.454267,1.805776 2.110491,2.542312 0.439107,0.49286 0.49294,0.551538 0.506175,0.551538 0.007,0 0.07543,-0.06917 0.151142,-0.153768 z m 2.13832,-5.74631 c 0.865067,-0.03287 1.958504,-0.09267 2.330376,-0.127332 l 0.14344,-0.01401 0.35965,-0.539105 c 1.474227,-2.209873 2.780375,-4.463338 3.992922,-6.888909 l 0.406952,-0.814081 -0.35601,-0.712242 C 34.411805,23.308418 33.086773,21.015105 31.63863,18.836136 l -0.418038,-0.629013 -0.211266,-0.01498 C 29.402886,18.077958 28.58105,18.0528 26.458354,18.0528 c -2.137862,0 -2.878134,0.02273 -4.551624,0.140109 l -0.21191,0.0148 -0.394395,0.59455 c -1.477699,2.227593 -2.721088,4.373685 -3.944456,6.808112 l -0.42077,0.837336 0.407173,0.814284 c 1.220822,2.441441 2.516501,4.675141 4.015339,6.922367 l 0.336184,0.504042 0.144031,0.01436 c 0.468239,0.04653 2.045777,0.123975 3.08272,0.151195 0.833106,0.02194 2.985605,0.0088 3.82717,-0.02309 z m -2.597007,-3.714165 c -1.84023,-0.111956 -3.471406,-1.340726 -4.093343,-3.083523 -0.114608,-0.3213 -0.191994,-0.638988 -0.235164,-0.966148 -0.03956,-0.299095 -0.04459,-0.888709 -0.0098,-1.166928 0.215337,-1.735624 1.358447,-3.202528 2.973074,-3.815239 2.278174,-0.864503 4.814519,0.138365 5.876665,2.323697 0.231392,0.476082 0.359024,0.896234 0.431,1.418878 0.04071,0.295579 0.04653,0.884304 0.01119,1.167325 -0.101883,0.824603 -0.408256,1.594183 -0.894684,2.24772 -0.636855,0.855647 -1.567218,1.481496 -2.581559,1.736593 -0.482127,0.121314 -0.981711,0.167788 -1.477478,0.137669 z m -7.415122,3.270273 c 0,-0.0053 -0.136823,-0.228978 -0.304161,-0.495477 -0.839715,-1.337677 -1.812375,-3.027954 -2.531878,-4.399804 -0.117119,-0.223259 -0.183438,-0.32805 -0.194708,-0.307536 -0.05701,0.103848 -0.764039,1.916788 -0.962783,2.468679 -0.283488,0.78716 -0.66293,1.923353 -0.6475,1.938782 0.01551,0.01551 0.749243,0.169956 1.383393,0.291252 0.782129,0.149609 1.535196,0.275082 2.33502,0.389047 0.97222,0.138505 0.922617,0.132355 0.922617,0.115031 z m 16.140128,-0.08151 c 1.00908,-0.138788 2.128873,-0.329813 3.132358,-0.534329 0.686422,-0.13989 0.820108,-0.171101 0.820108,-0.191448 0,-0.04036 -0.560033,-1.678672 -0.752168,-2.200241 -0.183174,-0.497293 -0.818108,-2.109452 -0.864582,-2.195298 -0.01119,-0.02044 -0.07816,0.08583 -0.19448,0.307536 -0.719485,1.37185 -1.692154,3.062118 -2.53186,4.399804 -0.167295,0.266499 -0.304179,0.490093 -0.304179,0.496869 0,0.007 0.04362,0.007 0.09685,-6.96e-4 0.05322,-0.007 0.322358,-0.04415 0.597995,-0.08204 z M 12.144992,32.137554 c 0.590655,-1.769725 1.301539,-3.582585 2.062369,-5.259372 l 0.192471,-0.424171 -0.168511,-0.373149 C 13.361258,24.154257 12.57111,22.114243 11.967758,20.236809 l -0.118239,-0.367994 -0.116423,0.03366 c -4.7055335,1.363399 -7.9106075,3.282795 -8.887903,5.322633 -0.2064635,0.430921 -0.2891458,0.783574 -0.2893925,1.234295 -1.85e-4,0.316234 0.044588,0.584531 0.1452999,0.871932 0.7351349,2.096621 3.8951799,4.129004 8.6308506,5.55095 0.26938,0.08089 0.495362,0.147573 0.5022,0.148207 0.007,7.14e-4 0.146692,-0.401224 0.310832,-0.892992 z m 29.496699,0.726121 c 1.694217,-0.503373 3.41278,-1.189196 4.658663,-1.859123 2.165575,-1.164461 3.510064,-2.437326 3.927679,-3.71843 0.101883,-0.312427 0.134593,-0.521138 0.133333,-0.849435 -0.0044,-0.86289 -0.427343,-1.706773 -1.293097,-2.57421 -1.54444,-1.547454 -4.251094,-2.906667 -7.886904,-3.960627 l -0.118661,-0.03437 -0.0586,0.19225 c -0.523428,1.716034 -1.599417,4.489015 -2.43277,6.269562 l -0.05631,0.120336 0.193466,0.426356 c 0.760064,1.675103 1.473847,3.495251 2.063383,5.261619 0.237041,0.71025 0.305659,0.892208 0.33362,0.884577 0.0193,-0.0053 0.2607,-0.07658 0.536337,-0.158509 z M 16.036744,23.156262 c 0.769043,-1.4472 1.65948,-2.983674 2.479641,-4.278736 0.223417,-0.352795 0.235419,-0.377556 0.178168,-0.367731 -0.03384,0.0053 -0.225391,0.03172 -0.425871,0.05772 -0.905355,0.11712 -2.275407,0.345551 -3.208802,0.535043 -0.951336,0.19314 -0.971453,0.197643 -0.971453,0.217743 0,0.03886 0.458194,1.396337 0.646584,1.915527 0.384226,1.059 0.9668,2.515435 0.994241,2.485625 0.0098,-0.0098 0.147688,-0.264455 0.307492,-0.565162 z M 37.582107,22.80316 c 0.398573,-1.001035 0.71819,-1.873557 1.020897,-2.78694 0.123975,-0.373854 0.225277,-0.687453 0.225277,-0.696891 0,-0.03296 -1.398268,-0.312955 -2.456016,-0.491837 -0.504121,-0.08521 -1.788803,-0.275937 -2.114016,-0.313802 l -0.09365,-0.01119 0.239094,0.378983 c 0.939563,1.489225 1.789183,2.969056 2.767069,4.819543 0.02221,0.04194 0.0245,0.04142 0.05173,-0.01119 0.01569,-0.03049 0.177516,-0.429449 0.359614,-0.886788 z M 13.955693,16.984283 c 1.219544,-0.265768 2.678843,-0.516564 4.122298,-0.708461 0.543124,-0.07226 1.792523,-0.215804 2.184001,-0.251025 l 0.170863,-0.01533 0.193643,-0.275294 c 0.507029,-0.720859 1.589627,-2.137491 2.240423,-2.93171 0.568995,-0.694371 1.512673,-1.784839 1.863828,-2.153688 l 0.130963,-0.137531 -0.414777,-0.38895 C 21.770656,7.612684 19.288354,6.0314278 17.24352,5.5336509 16.707525,5.403111 16.013181,5.3451197 15.59969,5.3962641 14.537597,5.5275002 13.793994,6.092468 13.279457,7.159046 c -0.929306,1.9262784 -0.925393,5.204729 0.01119,9.254339 0.145,0.627048 0.157161,0.671962 0.18194,0.671962 0.01119,0 0.228528,-0.04538 0.483211,-0.100905 z m 25.530901,0.01551 c 0.129139,-0.496455 0.339805,-1.474535 0.456008,-2.116413 0.238662,-1.318388 0.355879,-2.420725 0.381178,-3.584463 C 40.384846,8.4884662 39.716241,6.5192385 38.444266,5.7635629 37.405164,5.1462522 35.879617,5.2718045 34.02186,6.1275483 32.397443,6.8758131 30.437864,8.273508 28.632856,9.9713019 28.449321,10.143936 28.243932,10.334556 28.176459,10.394935 l -0.122714,0.109718 0.254611,0.277531 c 0.645025,0.703069 1.450091,1.650351 2.176828,2.561372 0.468759,0.587624 1.470984,1.914823 1.804991,2.390244 l 0.193634,0.275611 0.170854,0.01533 c 1.999215,0.179904 4.886865,0.626334 6.549456,1.012561 0.259467,0.06027 0.256894,0.06063 0.282431,-0.03763 z M 24.61311,15.761249 c 0.992311,-0.02784 3.685095,-0.01401 4.453627,0.02335 0.225541,0.01119 0.412275,0.01789 0.414989,0.01551 0.0171,-0.01454 -1.047712,-1.352675 -1.623871,-2.04086 -0.484241,-0.578379 -1.374713,-1.590676 -1.399501,-1.590941 -0.02406,-2.46e-4 -0.957196,1.062067 -1.437551,1.636508 -0.403877,0.482981 -0.973736,1.1922 -1.31793,1.640208 -0.129976,0.169162 -0.247333,0.321846 -0.26085,0.339338 -0.02071,0.0267 -0.0044,0.02952 0.100491,0.01762 0.06873,-0.0088 0.550578,-0.02617 1.070543,-0.04071 z"
       id="path14" />
  </g>
</svg>
