<?xml version="1.0" encoding="UTF-8" standalone="no"?>
<!-- Created with Inkscape (http://www.inkscape.org/) -->

<svg
   width="200"
   height="200"
   viewBox="0 0 52.916665 52.916666"
   version="1.1"
   id="svg1"
   inkscape:export-filename="typescript.svg"
   inkscape:export-xdpi="96"
   inkscape:export-ydpi="96"
   xmlns:inkscape="http://www.inkscape.org/namespaces/inkscape"
   xmlns:sodipodi="http://sodipodi.sourceforge.net/DTD/sodipodi-0.dtd"
   xmlns="http://www.w3.org/2000/svg"
   xmlns:svg="http://www.w3.org/2000/svg">
  <sodipodi:namedview
     id="namedview1"
     pagecolor="#ffffff"
     bordercolor="#cccccc"
     borderopacity="1"
     inkscape:showpageshadow="0"
     inkscape:pageopacity="1"
     inkscape:pagecheckerboard="0"
     inkscape:deskcolor="#d1d1d1"
     inkscape:document-units="mm"
     inkscape:zoom="3.76"
     inkscape:cx="99.867021"
     inkscape:cy="100"
     inkscape:window-width="1712"
     inkscape:window-height="971"
     inkscape:window-x="0"
     inkscape:window-y="39"
     inkscape:window-maximized="1"
     inkscape:current-layer="layer1">
    <inkscape:page
       x="0"
       y="0"
       width="52.916664"
       height="52.916664"
       id="page2"
       margin="0"
       bleed="0" />
  </sodipodi:namedview>
  <defs
     id="defs1" />
  <g
     inkscape:label="Layer 1"
     inkscape:groupmode="layer"
     id="layer1">
    <path
      
       d="m 26.05696,52.552101 c -0.10989,-0.07336 -0.334561,-0.405485 -0.842758,-1.245748 -0.381121,-0.630135 -0.698822,-1.161221 -0.706029,-1.18018 -0.0069,-0.01901 -0.181547,-0.04475 -0.387447,-0.05732 l -0.374359,-0.02287 -0.879378,0.978111 c -0.483635,0.537967 -0.940055,1.015127 -1.014226,1.06036 -0.278161,0.169627 -0.73166,0.07623 -0.954104,-0.196495 -0.04297,-0.05257 -0.281893,-0.665498 -0.530967,-1.361855 l -0.452866,-1.266102 -0.306979,-0.09326 c -0.168825,-0.05128 -0.340452,-0.08445 -0.381368,-0.07385 -0.04099,0.01109 -0.528968,0.356143 -1.084546,0.767647 -0.555589,0.411504 -1.057034,0.77325 -1.114326,0.803891 -0.139115,0.07435 -0.499802,0.06791 -0.653885,-0.01178 -0.324928,-0.168027 -0.371795,-0.311132 -0.589783,-1.800737 L 15.592443,47.5433 15.277157,47.376663 14.961872,47.210036 13.726717,47.792305 c -1.266518,0.59706 -1.398763,0.639353 -1.67428,0.535472 -0.187664,-0.07069 -0.407167,-0.305168 -0.456172,-0.487169 -0.0301,-0.111811 -0.02237,-0.576805 0.02485,-1.495258 0.03772,-0.733145 0.06267,-1.33662 0.05564,-1.341045 -0.0069,-0.004 -0.129067,-0.105346 -0.270974,-0.224226 L 11.147774,44.563893 9.8494774,44.887267 C 8.8441612,45.137658 8.5056997,45.205502 8.3495865,45.1879 8.0110557,45.149686 7.7669115,44.905611 7.7287569,44.567081 7.7111349,44.410967 7.7790489,44.072506 8.0294004,43.06719 l 0.323364,-1.298297 -0.2161766,-0.258005 c -0.1188991,-0.141906 -0.2198,-0.263845 -0.2242253,-0.270973 -0.00396,-0.0069 -0.6079002,0.01792 -1.3410453,0.05564 -0.9184634,0.04722 -1.383457,0.05494 -1.4952578,0.02485 C 4.8940577,41.271496 4.6596255,41.051894 4.5888899,40.86423 4.4849893,40.588713 4.5273119,40.456468 5.1243616,39.18995 L 5.7066306,37.954786 5.5400036,37.63951 5.3733567,37.324224 4.0647537,37.133501 C 2.6416671,36.926086 2.4916225,36.881021 2.3058489,36.605197 2.1924146,36.436778 2.1660311,36.050271 2.2564478,35.881219 2.2847618,35.828249 2.644647,35.330323 3.0561507,34.774734 3.4676545,34.219146 3.8130856,33.731095 3.8237875,33.690179 3.8348755,33.649189 3.8012155,33.477645 3.7499335,33.30882 L 3.6566754,33.001841 2.3905732,32.548975 C 1.6942164,32.299891 1.0813762,32.060964 1.0287181,32.017998 0.75589361,31.795485 0.66259593,31.342075 0.83234148,31.063706 0.87758448,30.989456 1.3549827,30.533006 1.8930779,30.04946 L 2.8714463,29.1703 2.8482803,28.795941 c -0.012771,-0.205891 -0.038709,-0.38025 -0.057717,-0.387447 -0.019008,-0.0079 -0.5500445,-0.324908 -1.18018,-0.706029 -1.29466388,-0.783021 -1.34579742,-0.830284 -1.34579742,-1.244144 0,-0.41385 0.051183,-0.461113 1.34579732,-1.244144 0.6301355,-0.381111 1.1612215,-0.698832 1.18018,-0.706019 0.019008,-0.0079 0.044946,-0.181556 0.057717,-0.387457 l 0.023166,-0.374359 -0.9783684,-0.87916 C 1.3549827,22.383646 0.87765382,21.927236 0.83234148,21.852936 0.66259593,21.574568 0.75581441,21.121157 1.0287181,20.898635 c 0.052668,-0.04297 0.6654983,-0.281883 1.3618551,-0.530958 l 1.2661022,-0.452876 0.093258,-0.306969 c 0.051282,-0.168835 0.084447,-0.340461 0.073854,-0.381368 C 3.8126994,19.185474 3.4676545,18.697486 3.0561507,18.141908 2.644647,17.586319 2.2847817,17.088398 2.2564478,17.035433 2.1660608,16.866371 2.1923948,16.479855 2.3058488,16.311446 2.4916224,16.035631 2.641667,15.990567 4.0647536,15.783152 l 1.308603,-0.190734 0.1666469,-0.315286 0.166627,-0.315275 -0.582269,-1.235165 C 4.527302,12.460184 4.4850091,12.32793 4.5888899,12.052412 c 0.070686,-0.187654 0.3051678,-0.407167 0.4871695,-0.456162 0.1118008,-0.0301 0.5767944,-0.02237 1.4952578,0.02485 0.7331451,0.03762 1.3366101,0.06277 1.3410453,0.05564 0.00396,-0.0069 0.1053361,-0.129067 0.2242253,-0.270963 L 8.3527644,11.147759 8.0294004,9.8494724 C 7.7790093,8.8441562 7.7111646,8.5056848 7.7287569,8.3495815 7.7669709,8.0110408 8.0110557,7.7669066 8.3495865,7.7287421 8.5056799,7.711219 8.8438543,7.7789351 9.8477053,8.0289598 L 11.14424,8.3518783 11.404016,8.1350879 c 0.142867,-0.1192357 0.265608,-0.2199386 0.272736,-0.2237897 0.0069,-0.00297 -0.01792,-0.6068507 -0.05564,-1.3399959 -0.04722,-0.9184634 -0.05495,-1.3834569 -0.02485,-1.4952478 0.0491,-0.1820117 0.268508,-0.4164241 0.456172,-0.4871794 0.275517,-0.1039006 0.407762,-0.061578 1.67428,0.5354716 l 1.235155,0.582279 0.315285,-0.166637 0.315286,-0.166627 0.191496,-1.3086129 c 0.217988,-1.4896147 0.264855,-1.6327194 0.589783,-1.8007522 0.154083,-0.079695 0.51477,-0.08613 0.653885,-0.011781 0.05732,0.030591 0.558737,0.3923868 1.114326,0.8038906 0.555578,0.4114939 1.043629,0.7569448 1.084546,0.7676467 0.04099,0.011088 0.212543,-0.022572 0.381368,-0.073854 l 0.306979,-0.093258 0.452866,-1.2661121 c 0.249077,-0.696347 0.488014,-1.3091872 0.53097,-1.3618454 0.221691,-0.27180471 0.675983,-0.36610229 0.952203,-0.19765364 0.07316,0.044649 0.529542,0.52147304 1.014246,1.05971674 l 0.881259,0.9786158 0.374359,-0.022176 c 0.2059,-0.012177 0.38025,-0.037719 0.387447,-0.056628 0.0069,-0.019008 0.324908,-0.5500346 0.706029,-1.1801801 0.783021,-1.2946637 0.830284,-1.34578734 1.244134,-1.34578734 0.41386,0 0.461123,0.051183 1.244154,1.34578734 0.381111,0.6301455 0.698614,1.1601325 0.705554,1.1777744 0.0069,0.017622 0.181299,0.043362 0.387456,0.057321 l 0.374825,0.025047 0.879358,-0.9780317 c 0.483655,-0.537917 0.940065,-1.015038 1.014246,-1.06027114 0.27816,-0.16962675 0.73166,-0.0762301 0.954093,0.19649534 0.04297,0.052569 0.28128,0.6637857 0.529611,1.3580436 l 0.45151,1.2622907 0.319157,0.1001188 c 0.175547,0.055044 0.349876,0.088209 0.387417,0.073953 0.03752,-0.014454 0.523057,-0.3624591 1.078952,-0.7734481 0.555886,-0.4109791 1.055222,-0.771082 1.109633,-0.8001979 0.13459,-0.072072 0.49697,-0.063954 0.648668,0.014553 0.324839,0.1679833 0.371815,0.311286 0.589377,1.7979604 l 0.19108,1.3058409 0.316038,0.1692406 0.316038,0.1692506 1.234818,-0.5821107 c 1.266162,-0.5968913 1.398426,-0.6391841 1.673934,-0.5353132 0.187654,0.070686 0.407167,0.3051776 0.456162,0.4871794 0.0301,0.1118008 0.02237,0.5767943 -0.02485,1.4952478 -0.03772,0.7331452 -0.06277,1.3361448 -0.05564,1.3400058 0.0069,0.00297 0.129849,0.1045639 0.272726,0.2237798 l 0.259776,0.2167805 1.296525,-0.3229185 c 1.003851,-0.2500247 1.342035,-0.3177903 1.498129,-0.3001979 0.33854,0.038214 0.582674,0.2822789 0.620819,0.6208196 0.01762,0.1560934 -0.05019,0.4942777 -0.300198,1.4981287 l -0.322918,1.296535 0.21678,0.259776 c 0.119236,0.142867 0.219939,0.265607 0.22379,0.272726 0.003,0.0069 0.606851,-0.01792 1.339996,-0.05554 0.918463,-0.04722 1.383457,-0.05495 1.495258,-0.02485 0.182001,0.04891 0.416424,0.268518 0.487179,0.456163 0.103901,0.275527 0.06158,0.407762 -0.535482,1.67429 l -0.582269,1.235154 0.166627,0.315286 0.166637,0.315286 1.308613,0.190723 c 1.423077,0.207425 1.573122,0.25248 1.758895,0.528304 0.113454,0.168409 0.139838,0.554926 0.0494,0.723988 -0.02831,0.05297 -0.388189,0.550886 -0.799693,1.106475 -0.411504,0.555578 -0.756945,1.043629 -0.767646,1.084545 -0.01109,0.04099 0.02257,0.212653 0.07385,0.381626 l 0.09336,0.307217 1.266023,0.452044 c 0.696307,0.248629 1.309118,0.487447 1.361776,0.53072 0.273032,0.224314 0.366102,0.676547 0.196505,0.954678 -0.04524,0.07415 -0.522394,0.530581 -1.06036,1.014236 l -0.978101,0.879358 0.02287,0.374369 c 0.01257,0.205881 0.03831,0.380249 0.05732,0.387447 0.01901,0.0069 0.550034,0.324918 1.18017,0.706029 1.294673,0.783031 1.345797,0.830284 1.345797,1.244144 0,0.41385 -0.05118,0.461122 -1.345797,1.244144 -0.630136,0.381111 -1.161212,0.698822 -1.18017,0.706029 -0.01901,0.0069 -0.04475,0.181546 -0.05732,0.387447 l -0.02287,0.374359 0.978101,0.879368 c 0.537966,0.483645 1.015127,0.940045 1.06036,1.014236 0.169597,0.278131 0.07653,0.730353 -0.196505,0.954678 -0.05257,0.04326 -0.665469,0.28209 -1.361776,0.530719 l -1.266023,0.452035 -0.09336,0.307227 c -0.05128,0.168973 -0.08455,0.340698 -0.07385,0.381615 0.01109,0.04099 0.356142,0.528968 0.767646,1.084556 0.411504,0.555589 0.771359,1.0535 0.799693,1.106475 0.09039,0.169052 0.06405,0.555568 -0.0494,0.723987 -0.185773,0.275824 -0.335818,0.320879 -1.758895,0.528284 l -1.308613,0.190744 -0.166637,0.315286 -0.166627,0.315275 0.582269,1.235165 c 0.59707,1.266518 0.639363,1.398762 0.535482,1.67428 -0.07069,0.187654 -0.305178,0.407157 -0.487179,0.456172 -0.111801,0.0301 -0.576795,0.02237 -1.495258,-0.02485 -0.733145,-0.03772 -1.33661,-0.06267 -1.341036,-0.05564 -0.004,0.0069 -0.105346,0.129057 -0.224225,0.270973 l -0.216186,0.258004 0.323354,1.298297 c 0.250411,1.005317 0.318255,1.343788 0.300643,1.499891 -0.03821,0.338541 -0.282279,0.582675 -0.620819,0.62082 -0.156094,0.01762 -0.494367,-0.05019 -1.498674,-0.300327 l -1.297069,-0.323067 -0.237175,0.193466 c -0.130452,0.106455 -0.252965,0.206544 -0.27227,0.222523 -0.01931,0.01594 -0.004,0.629541 0.03356,1.363459 0.04732,0.919483 0.05504,1.384843 0.02485,1.496653 -0.0491,0.182002 -0.268518,0.416424 -0.456162,0.48717 -0.275518,0.1039 -0.407772,0.06158 -1.673943,-0.535304 l -1.234809,-0.58212 -0.316038,0.169251 -0.316038,0.16925 -0.19109,1.305831 c -0.217552,1.486674 -0.264528,1.629987 -0.589367,1.79798 -0.151925,0.07861 -0.514147,0.08643 -0.649163,0.01416 -0.09365,-0.05019 -0.39901,-0.272438 -1.646144,-1.198445 -0.287665,-0.213593 -0.55247,-0.388348 -0.588476,-0.388348 -0.03594,0 -0.198614,0.04039 -0.36139,0.08989 l -0.295941,0.08989 -0.452866,1.266092 c -0.249075,0.696357 -0.488011,1.309197 -0.530967,1.361875 -0.222444,0.272716 -0.675933,0.366113 -0.954104,0.196486 -0.07415,-0.04524 -0.530581,-0.522394 -1.014236,-1.06035 l -0.879358,-0.978121 -0.374359,0.02287 c -0.205901,0.01257 -0.38025,0.03831 -0.387447,0.05732 -0.0069,0.01901 -0.324918,0.550034 -0.706029,1.18017 -0.783031,1.294674 -0.830304,1.345797 -1.244154,1.345797 -0.188041,0 -0.289357,-0.02515 -0.401366,-0.10001 z m 2.341659,-6.980239 c 2.067003,-0.212583 4.012097,-0.727225 5.853925,-1.548866 0.248589,-0.11089 0.451994,-0.217147 0.451994,-0.236115 0,-0.01901 0.129235,-0.844907 0.2872,-1.835403 0.317929,-1.993604 0.35142,-2.109701 0.701504,-2.432412 0.106227,-0.09791 0.272577,-0.218552 0.369657,-0.268082 0.185506,-0.09454 0.605197,-0.178131 0.770943,-0.153381 0.05376,0.0079 0.880774,0.136551 1.837996,0.285625 l 1.740362,0.271052 0.270379,-0.285377 c 0.148709,-0.156975 0.470845,-0.531482 0.71587,-0.832244 l 0.445491,-0.546857 -4.043738,-0.02406 c -3.642233,-0.02178 -4.06929,-0.03148 -4.300802,-0.09957 -0.477111,-0.140086 -0.740847,-0.298585 -1.112949,-0.668865 -0.289525,-0.2881 -0.397356,-0.436095 -0.579229,-0.794971 -0.357143,-0.704712 -0.538759,-1.31281 -0.895545,-2.998623 -0.536056,-2.532769 -0.88613,-3.437154 -1.604524,-4.145144 -0.358955,-0.353757 -0.7109,-0.55645 -1.203376,-0.69305 -0.332165,-0.09217 -0.439382,-0.09613 -2.979378,-0.112236 l -2.634808,-0.01663 v 1.744926 1.744916 h 2.128908 c 1.855449,0 2.14149,0.0089 2.226907,0.06861 l 0.09801,0.06861 v 2.880467 c 0,2.625512 -0.0069,2.885833 -0.07296,2.940996 -0.06098,0.05059 -1.360014,0.06415 -7.935313,0.08257 l -7.862399,0.02208 0.445481,0.546856 c 0.245005,0.300763 0.567547,0.675706 0.716751,0.833185 l 0.27128,0.286348 1.739471,-0.271993 c 0.956707,-0.149599 1.783397,-0.278556 1.837085,-0.286585 0.165716,-0.02475 0.585427,0.05871 0.770943,0.153371 0.09702,0.0495 0.26342,0.170161 0.369647,0.268082 0.349777,0.322414 0.383289,0.438699 0.701366,2.434085 0.158034,0.991437 0.287348,1.817088 0.287348,1.834799 0,0.0497 0.696604,0.357172 1.483872,0.654955 1.754213,0.663518 3.691783,1.076863 5.614523,1.197752 0.770468,0.04841 2.273795,0.01495 3.08807,-0.0688 z M 15.353555,43.955161 c 0.785061,-0.35942 1.086566,-1.334719 0.649302,-2.100346 -0.157291,-0.275409 -0.489377,-0.546293 -0.793574,-0.647322 -0.314385,-0.104455 -0.870855,-0.07346 -1.13564,0.06306 -0.289496,0.149342 -0.564053,0.426116 -0.698139,0.703742 -0.10101,0.209247 -0.120493,0.308474 -0.122235,0.623661 -9.9e-4,0.314177 0.01643,0.414078 0.112157,0.617364 0.195525,0.415187 0.460024,0.653064 0.915196,0.823137 0.252965,0.09445 0.772676,0.05415 1.072933,-0.08326 z m 23.458032,0.01406 c 0.325522,-0.155212 0.549589,-0.376497 0.708722,-0.699901 0.130571,-0.26535 0.144965,-0.332779 0.143114,-0.670626 -9.9e-4,-0.316048 -0.02109,-0.415068 -0.122245,-0.624453 -0.133977,-0.277428 -0.408326,-0.554074 -0.698139,-0.70402 -0.28707,-0.14851 -0.855836,-0.16827 -1.192288,-0.04138 -0.488634,0.18422 -0.869003,0.678874 -0.939481,1.221741 -0.06138,0.472586 0.212336,1.094832 0.599564,1.363191 0.431037,0.298703 1.063063,0.364172 1.500753,0.15547 z M 13.978811,25.708633 v -6.21772 h -1.609554 c -0.885249,0 -1.609543,0.0089 -1.609543,0.01891 0,0.01 0.122354,0.268567 0.271904,0.573784 0.247133,0.504366 0.273636,0.586041 0.290941,0.896179 0.02475,0.443392 -0.08623,0.753975 -0.386833,1.082912 -0.196565,0.215068 -0.352717,0.305148 -1.8538557,1.069508 -1.1315611,0.576181 -1.6499454,0.862568 -1.6738836,0.9248 -0.04653,0.120819 -0.1231363,1.031452 -0.157618,1.87219 -0.07029,1.714434 0.2205623,4.067449 0.7116126,5.756598 l 0.069894,0.24063 h 2.9734377 2.973438 z m 27.801788,6.106028 c 0.775488,-0.201999 1.294159,-0.759697 1.53068,-1.645876 0.07039,-0.263726 0.09474,-0.524126 0.112197,-1.196951 0.01772,-0.68911 0.03574,-0.87522 0.09029,-0.937075 0.06108,-0.0693 0.171181,-0.07712 1.072825,-0.07712 0.748737,0 1.013355,-0.01386 1.038392,-0.05435 0.06069,-0.09831 0.0299,-2.705386 -0.0393,-3.310484 -0.03544,-0.310563 -0.08227,-0.582101 -0.10401,-0.603425 -0.02178,-0.02128 -0.763766,-0.407287 -1.649025,-0.857678 -1.46129,-0.74348 -1.630511,-0.841035 -1.837055,-1.058994 -0.31633,-0.33382 -0.426933,-0.637315 -0.401054,-1.100526 l 0.0195,-0.348817 0.844728,-1.662816 c 0.464607,-0.914543 0.844738,-1.683714 0.844738,-1.709256 0,-0.08168 -0.43265,-0.804148 -0.903425,-1.508593 C 39.966037,12.100606 36.22511,9.3275836 32.052217,8.0721734 31.421705,7.8824991 30.202361,7.5851622 30.053821,7.5848751 c -0.05485,-1.188e-4 -0.588743,0.4997426 -1.455212,1.362459 l -1.368557,1.3626369 -0.302307,0.09257 c -0.379794,0.116306 -0.559014,0.116306 -0.938808,0 l -0.302297,-0.09257 -1.374171,-1.3682205 -1.37417,-1.3682208 -0.210752,0.031581 c -0.376477,0.056529 -1.707266,0.4092763 -2.336293,0.6193941 -2.103494,0.702663 -4.16528,1.8185132 -5.855291,3.1689332 -0.679665,0.543085 -1.506553,1.289367 -1.91185,1.725453 l -0.327858,0.352777 10.708047,0.02307 10.708038,0.02307 0.425928,0.09821 c 1.336659,0.308276 2.591367,0.970735 3.542144,1.870181 2.236026,2.115275 2.806276,5.010404 1.460776,7.416364 -0.519672,0.929264 -1.60697,2.013127 -2.638343,2.630026 l -0.243698,0.145768 0.417087,0.398733 c 1.052331,1.006039 1.831561,2.37322 2.222621,3.899673 0.16041,0.626175 0.292447,0.88706 0.609187,1.203811 0.570102,0.570092 1.510573,0.832462 2.272557,0.633987 z m -12.611284,-8.88604 c 1.116315,-0.1059 1.924165,-0.5752 2.186743,-1.270448 0.258608,-0.684774 -0.128185,-1.443758 -0.931254,-1.827353 -0.689436,-0.329324 -0.456697,-0.31194 -4.396406,-0.328493 l -3.538807,-0.01485 v 1.74357 1.74358 l 3.097821,-4e-5 c 1.806722,-2e-5 3.299584,-0.01921 3.581903,-0.04594 z M 8.0538336,21.65352 C 8.574485,21.423216 8.9063431,20.952015 8.9422901,20.391992 8.9894141,19.656738 8.5569619,19.056283 7.8310636,18.849283 7.1932555,18.66739 6.4429438,19.001644 6.1514083,19.597506 5.6349743,20.653035 6.4006509,21.839175 7.55023,21.764489 7.7143524,21.753399 7.9389737,21.704299 8.0538336,21.65349 Z M 46.076787,21.62818 c 1.115296,-0.500515 1.137016,-2.127136 0.03564,-2.664241 -0.512889,-0.250104 -1.022482,-0.214097 -1.512167,0.106891 -0.60782,0.398386 -0.811701,1.250717 -0.457944,1.914434 0.376982,0.707276 1.189466,0.977309 1.934511,0.642956 z M 27.078116,7.8412161 C 27.382581,7.7010418 27.656435,7.4265839 27.810885,7.1068334 27.984521,6.7473542 27.983898,6.2645605 27.809895,5.8817271 27.381532,4.9424638 26.199084,4.7129024 25.431933,5.4200402 25.315499,5.5273761 25.18465,5.71214 25.109064,5.8759851 c -0.106673,0.2313533 -0.127037,0.3320661 -0.126691,0.6284823 2.48e-4,0.2956439 0.0202,0.3935253 0.122513,0.6025244 0.132215,0.2702405 0.408613,0.5744975 0.623819,0.6867141 0.42086,0.2194337 0.937135,0.2376002 1.350005,0.04752 z"
       id="path13" />
  </g>
</svg>
