<?xml version="1.0" encoding="UTF-8" standalone="no"?>
<!-- Created with Inkscape (http://www.inkscape.org/) -->

<svg
   width="200"
   height="200"
   viewBox="0 0 52.916665 52.916666"
   version="1.1"
   id="svg1"
   inkscape:export-filename="javascript.svg"
   inkscape:export-xdpi="96"
   inkscape:export-ydpi="96"
   xmlns:inkscape="http://www.inkscape.org/namespaces/inkscape"
   xmlns:sodipodi="http://sodipodi.sourceforge.net/DTD/sodipodi-0.dtd"
   xmlns="http://www.w3.org/2000/svg"
   xmlns:svg="http://www.w3.org/2000/svg">
  <sodipodi:namedview
     id="namedview1"
     pagecolor="#ffffff"
     bordercolor="#cccccc"
     borderopacity="1"
     inkscape:showpageshadow="0"
     inkscape:pageopacity="1"
     inkscape:pagecheckerboard="0"
     inkscape:deskcolor="#d1d1d1"
     inkscape:document-units="mm"
     inkscape:zoom="3.76"
     inkscape:cx="99.867021"
     inkscape:cy="100"
     inkscape:window-width="1712"
     inkscape:window-height="971"
     inkscape:window-x="0"
     inkscape:window-y="39"
     inkscape:window-maximized="1"
     inkscape:current-layer="layer1">
    <inkscape:page
       x="0"
       y="0"
       width="52.916664"
       height="52.916664"
       id="page2"
       margin="0"
       bleed="0" />
  </sodipodi:namedview>
  <defs
     id="defs1" />
  <g
     inkscape:label="Layer 1"
     inkscape:groupmode="layer"
     id="layer1">
    <path
      
       d="M 4.3520352,52.554907 C 3.3231043,52.336196 2.4917983,51.87952 1.7425301,51.121371 1.0573615,50.428085 0.6803366,49.771427 0.3972091,48.778283 L 0.2842848,48.382133 0.2688415,26.687438 C 0.257259,10.462796 0.268495,4.8959941 0.3125976,4.6090061 0.4886316,3.4667451 0.9612763,2.5586081 1.8172025,1.7180861 2.4892937,1.0580921 3.1596724,0.67638408 4.1349971,0.39834508 l 0.3961311,-0.112924 21.6946948,-0.015443 c 16.224652,-0.01158 21.791444,-3.47e-4 22.078442,0.04376 1.125085,0.173381 2.040171,0.644471 2.867844,1.47637102 0.715353,0.719005 1.174742,1.577991 1.384444,2.588667 0.09236,0.445361 0.09553,1.171078 0.09553,22.0784409 0,20.907353 -0.003,21.633071 -0.09553,22.078432 -0.423949,2.043319 -1.978724,3.598095 -4.022044,4.022034 -0.44549,0.09236 -1.165475,0.09543 -22.104012,0.09266 -20.6711894,-0.003 -21.6630663,-0.0069 -22.0784519,-0.09543 z M 40.782745,48.302995 c 0.323627,-0.0292 0.87622,-0.0988 1.228001,-0.154581 3.731195,-0.591321 5.936026,-2.575263 6.300983,-5.669708 0.07781,-0.659637 0.02633,-1.948135 -0.101569,-2.545574 -0.213662,-0.997668 -0.704819,-1.909982 -1.460146,-2.712153 -0.971642,-1.031881 -2.278355,-1.835023 -4.577568,-2.813486 -2.388527,-1.016467 -3.45177,-1.70814 -3.901972,-2.538357 -0.166452,-0.306965 -0.173985,-0.344109 -0.173985,-0.858104 0,-0.486227 0.01326,-0.562384 0.139564,-0.801914 0.320558,-0.607892 1.009617,-1.064629 2.009443,-1.331917 0.481614,-0.128763 0.579273,-0.136881 1.662909,-0.138297 1.245553,-0.002 1.791355,0.06761 2.790291,0.353811 0.854629,0.244885 1.860761,0.679209 2.361204,1.019259 0.10648,0.07236 0.222799,0.131565 0.258468,0.131565 0.09424,0 0.09513,-4.670208 9.3e-4,-4.74688 -0.10943,-0.0891 -0.957505,-0.353009 -1.573377,-0.489662 -1.370377,-0.304056 -2.711738,-0.416822 -4.477087,-0.376372 -2.156145,0.0494 -3.671501,0.373273 -5.112115,1.092585 -1.881432,0.939409 -3.018991,2.352414 -3.441593,4.274929 -0.07316,0.332952 -0.09316,0.645134 -0.09276,1.447811 7.03e-4,0.955189 0.0102,1.060243 0.144415,1.577713 0.308856,1.190254 0.802528,2.029351 1.709466,2.905581 0.9847,0.951328 1.926366,1.509693 4.13188,2.449994 0.675408,0.287948 1.469768,0.645035 1.76526,0.793529 1.199085,0.602566 1.993357,1.256809 2.312251,1.904597 0.159136,0.32324 0.169332,0.376351 0.169332,0.882268 0,0.515896 -0.0069,0.551792 -0.175123,0.861332 -0.549178,1.012854 -1.902577,1.497428 -3.987069,1.427546 C 37.245106,44.2 36.040101,43.903253 34.755771,43.279076 34.270386,43.043169 33.259848,42.403895 32.864668,42.082743 l -0.166293,-0.135139 v 2.564146 2.564165 l 0.297581,0.150216 c 0.381321,0.192487 1.220665,0.484564 1.847426,0.642887 0.814388,0.205703 1.583257,0.323241 2.971671,0.454262 0.440214,0.04148 2.434709,0.02792 2.967662,-0.02029 z m -16.680348,-9.61695 v -9.363512 h 3.274666 3.274667 V 27.224697 25.12686 h -9.158848 -9.158829 v 2.097461 2.09745 l 3.261867,0.01326 3.261886,0.01317 0.01297,9.350721 0.01297,9.350712 h 2.609367 2.609366 z"
       id="path11" />
  </g>
</svg>
