<?xml version="1.0" encoding="UTF-8" standalone="no"?>
<!-- Created with Inkscape (http://www.inkscape.org/) -->

<svg
   width="200"
   height="200"
   viewBox="0 0 52.916665 52.916666"
   version="1.1"
   id="svg1"
   xml:space="preserve"
   inkscape:version="1.4.3 (0d15f75, 2025-12-25)"
   sodipodi:docname="web.svg"
   xmlns:inkscape="http://www.inkscape.org/namespaces/inkscape"
   xmlns:sodipodi="http://sodipodi.sourceforge.net/DTD/sodipodi-0.dtd"
   xmlns="http://www.w3.org/2000/svg"
   xmlns:svg="http://www.w3.org/2000/svg"><sodipodi:namedview
     id="namedview1"
     pagecolor="#ffffff"
     bordercolor="#999999"
     borderopacity="1"
     inkscape:showpageshadow="2"
     inkscape:pageopacity="0"
     inkscape:pagecheckerboard="0"
     inkscape:deskcolor="#d1d1d1"
     inkscape:document-units="mm"
     inkscape:zoom="3.76"
     inkscape:cx="100"
     inkscape:cy="100"
     inkscape:window-width="1710"
     inkscape:window-height="971"
     inkscape:window-x="0"
     inkscape:window-y="39"
     inkscape:window-maximized="1"
     inkscape:current-layer="layer1" /><defs
     id="defs1" /><g
     inkscape:label="Layer 1"
     inkscape:groupmode="layer"
     id="layer1"><path
       d="M 24.16435,51.533753 C 19.315744,51.027288 15.046416,49.366733 11.242931,46.50797 10.072572,45.628309 8.0980725,43.731312 7.0601227,42.489344 4.2051303,39.07318 2.272508,34.739252 1.5555068,30.145177 c -0.307917,-1.972934 -0.307917,-5.404058 0,-7.376992 C 2.2229864,18.491416 3.8331735,14.665726 6.4070446,11.24128 7.2867057,10.07092 9.1837023,8.096421 10.42567,7.05847 13.841835,4.203478 18.175763,2.2708562 22.769837,1.5538552 c 1.972934,-0.3079175 5.404058,-0.3079175 7.376992,0 2.746068,0.428581 5.007708,1.1414313 7.426172,2.3406678 2.781314,1.379161 4.823087,2.879639 7.039126,5.172978 3.646608,3.773811 5.920013,8.388872 6.749032,13.700684 0.307918,1.972934 0.307918,5.404058 0,7.376992 -0.428581,2.746068 -1.141432,5.007708 -2.340667,7.426172 -3.298194,6.65137 -9.247779,11.474316 -16.393694,13.289313 -1.834949,0.466061 -3.527204,0.682286 -5.676665,0.725327 -1.05491,0.02113 -2.308512,-0.0024 -2.785783,-0.05223 z m 0.818585,-8.273141 v -5.031967 l -1.991788,0.06358 c -1.691428,0.054 -5.574146,0.333285 -5.657511,0.40695 -0.05938,0.05246 0.724337,1.950183 1.26156,3.054824 1.317926,2.709929 3.129049,4.878123 4.96152,5.939709 0.383955,0.222432 1.205123,0.582789 1.352448,0.593501 0.04057,0.0029 0.07378,-2.259021 0.07378,-5.026603 z m 4.053545,4.586165 c 0.930731,-0.464228 1.576596,-0.967227 2.51437,-1.958185 0.980709,-1.036327 1.996248,-2.545756 2.747011,-4.082975 0.572875,-1.172987 1.313144,-2.97532 1.250029,-3.043445 -0.07684,-0.08293 -3.925458,-0.39143 -5.72073,-0.458565 l -1.893428,-0.07081 v 5.036516 5.036517 l 0.22131,-0.0649 c 0.12172,-0.0357 0.518367,-0.213066 0.881438,-0.394158 z M 18.061905,46.555974 c -1.162643,-1.507014 -2.415609,-3.876373 -3.268838,-6.181368 -0.260326,-0.703273 -0.475314,-1.28539 -0.477751,-1.293593 -0.02851,-0.09598 -5.2666843,1.050762 -5.2666843,1.152979 0,0.120776 1.4242053,1.696091 2.1517803,2.380087 1.52979,1.43816 3.340916,2.718606 5.116265,3.61714 1.022082,0.517293 2.103157,0.983798 2.157023,0.930799 0.01743,-0.01716 -0.167874,-0.289873 -0.411795,-0.606044 z m 18.446616,-0.280747 c 1.839728,-0.923245 3.651814,-2.197403 5.206828,-3.661148 0.97501,-0.917783 2.089423,-2.196848 1.989477,-2.283418 -0.183079,-0.158583 -5.017622,-1.255573 -5.107708,-1.158974 -0.01159,0.01243 -0.229639,0.575875 -0.484549,1.2521 -0.867152,2.300381 -2.11492,4.650682 -3.250699,6.123035 -0.240013,0.311135 -0.436386,0.587127 -0.436386,0.613313 0,0.08351 0.998929,-0.34086 2.083037,-0.884908 z m 9.434138,-9.121907 c 0.92328,-1.711893 1.639498,-3.555301 2.094322,-5.390388 0.280534,-1.131873 0.552328,-2.823065 0.552328,-3.436765 V 27.93208 h -4.062147 -4.062148 l -0.11919,1.647529 c -0.146459,2.024463 -0.337521,3.482891 -0.695822,5.311434 -0.151057,0.770895 -0.267517,1.401628 -0.2588,1.401628 0.372856,0 4.659529,1.000469 5.65715,1.320327 0.243441,0.07805 0.46965,0.144872 0.502686,0.148492 0.03303,0.0036 0.209266,-0.270059 0.391621,-0.60817 z M 8.1527888,37.378681 c 0.8106217,-0.240301 3.4409572,-0.828168 4.4725572,-0.999595 0.425401,-0.07069 0.793216,-0.180022 0.817366,-0.242958 0.02415,-0.06294 -0.06766,-0.686662 -0.204036,-1.386057 -0.333861,-1.712245 -0.524881,-3.196931 -0.665232,-5.170462 L 12.456277,27.93208 H 8.3918172 4.3273575 v 0.394087 c 0,1.128737 0.5437975,3.708155 1.1472668,5.441876 0.6330137,1.818603 1.6109787,3.803306 1.8740824,3.803306 0.084776,0 0.4466129,-0.0867 0.8040821,-0.192668 z M 36.674101,34.768093 c 0.406198,-1.95091 0.643868,-3.73256 0.762401,-5.715188 l 0.06701,-1.120825 h -4.784893 -4.78489 v 3.672944 3.672944 l 1.795068,0.06281 c 1.706291,0.0597 4.591468,0.273826 5.975364,0.443455 0.351636,0.0431 0.667645,0.05341 0.70224,0.02292 0.0346,-0.0305 0.155061,-0.498075 0.267698,-1.039053 z m -17.54358,0.784622 c 0.919666,-0.08044 2.612685,-0.175223 3.762266,-0.210618 l 2.090148,-0.06435 V 31.604914 27.932083 H 20.21248 15.442025 v 0.476002 c 0,1.344657 0.377508,4.332176 0.807912,6.393641 l 0.212383,1.01723 0.498041,-0.05999 c 0.273923,-0.033 1.250495,-0.125806 2.17016,-0.206251 z M 12.528736,23.776374 c 0.121668,-2.187292 0.489789,-4.967135 0.88339,-6.670865 0.07461,-0.322993 0.10818,-0.60371 0.07459,-0.623816 -0.03359,-0.02011 -0.547955,-0.132671 -1.143033,-0.250144 -1.418656,-0.280053 -2.9063908,-0.632413 -3.960655,-0.938055 -0.4677591,-0.135608 -0.8834611,-0.24656 -0.9237817,-0.24656 -0.2131171,0 -1.4509189,2.55242 -1.9833789,4.089839 -0.597923,1.726439 -1.1485119,4.339337 -1.1485119,5.450423 v 0.394087 h 4.0671778 4.0671777 z m 12.454199,-2.523587 v -3.728496 l -0.90983,-0.05559 c -0.500406,-0.03057 -1.463103,-0.08084 -2.139327,-0.111705 -1.144257,-0.05223 -3.829667,-0.271163 -4.972539,-0.405399 l -0.497164,-0.0584 -0.213828,1.019472 c -0.408642,1.948287 -0.807085,5.155533 -0.807886,6.503035 l -3.36e-4,0.565569 h 4.770455 4.770455 z m 12.455191,2.484649 c -0.08501,-1.590175 -0.388682,-3.955347 -0.702027,-5.467798 -0.134782,-0.650561 -0.245057,-1.205577 -0.245057,-1.233368 0,-0.02779 -0.34303,-0.02183 -0.762289,0.01326 -2.301856,0.192607 -4.690175,0.352274 -6.147494,0.410981 l -1.647527,0.06637 v 3.727206 3.727204 h 4.785444 4.785446 z m 11.119714,0.481558 c -0.193632,-2.434652 -1.003067,-5.234528 -2.22508,-7.696661 -0.754658,-1.520499 -0.544929,-1.411803 -1.971058,-1.021546 -0.671811,0.183839 -2.042547,0.494481 -3.046079,0.690317 -1.003533,0.195835 -1.841049,0.370609 -1.861148,0.388387 -0.02009,0.01778 0.0772,0.642923 0.216223,1.389211 0.434834,2.334249 0.75474,5.063168 0.75474,6.438219 v 0.574362 h 4.096514 4.096514 z M 24.982935,9.493963 V 4.432792 L 24.60452,4.566304 c -1.793131,0.632653 -3.760912,2.466612 -5.14118,4.791544 -0.701804,1.182121 -2.244635,4.563027 -2.127147,4.661354 0.107455,0.08994 4.623467,0.413193 7.277892,0.520957 l 0.36885,0.01498 z m 8.188643,4.793766 c 1.230829,-0.09011 2.280807,-0.190366 2.333284,-0.222799 0.18979,-0.117296 -1.145407,-3.180794 -2.051536,-4.707082 C 32.073058,7.032916 30.105276,5.198957 28.312145,4.566304 L 27.933732,4.432792 v 5.066107 5.066108 l 1.499988,-0.05672 c 0.824993,-0.0312 2.50703,-0.130448 3.737858,-0.220555 z m 6.95878,-0.866365 c 1.625779,-0.302003 3.462709,-0.730514 3.574468,-0.833838 0.04548,-0.04205 -0.224421,-0.424317 -0.59978,-0.849489 -1.846152,-2.09114 -4.15154,-3.872754 -6.587691,-5.090995 -1.184554,-0.592357 -1.809859,-0.865656 -1.861792,-0.813724 -0.01914,0.01914 0.199013,0.362749 0.484778,0.76358 1.209625,1.696691 2.250388,3.732193 3.075825,6.015628 0.210226,0.581553 0.428151,1.056949 0.48428,1.056434 0.05613,-5.14e-4 0.69959,-0.111934 1.429912,-0.247596 z m -25.723111,-0.02195 c 0.03752,-0.09467 0.214077,-0.570488 0.392338,-1.057369 0.768431,-2.098795 1.809176,-4.107444 2.97674,-5.745139 0.285765,-0.400831 0.503915,-0.744443 0.484777,-0.76358 -0.05194,-0.05194 -0.677236,0.221366 -1.86179,0.813724 -1.864865,0.932559 -3.679373,2.212815 -5.247813,3.702679 -0.911732,0.866056 -1.950938,2.029491 -1.877967,2.102463 0.1316357,0.131636 4.290574,1.081818 4.854701,1.109141 0.116238,0.0057 0.24139,-0.06699 0.279014,-0.161919 z"
       id="path1" /></g></svg>
